<?xml version="1.0" encoding="UTF-8"?>
<svg id="Object" xmlns="http://www.w3.org/2000/svg" version="1.1" viewBox="0 0 555.55 442.2">
  <defs>
    <style>
      .cls-1 {
        fill: #fff;
        stroke-width: 0px;
      }
    </style>
  </defs>
  <path class="cls-1" d="M365.81,211.04c-4.77-13.74-12.66-26.35-22.81-36.47L207.01,38.56c-10.16-10.16-22.78-18.05-36.49-22.82-11.01-3.83-22.68-5.75-34.6-5.75-9.6,0-19.35,1.24-29.07,3.74-21.95,5.62-42.37,17.4-59.04,34.07-22.21,22.23-35.55,50.83-37.55,80.54-.99,14.66.86,28.84,5.48,42.14,4.78,13.73,12.68,26.35,22.83,36.49l136.01,136.01c10.18,10.17,22.8,18.06,36.49,22.8,19.88,6.91,41.89,7.61,63.66,2.02.69-.18,1.38-.36,2.07-.55l-25.24-25.24c-.1,0-.2.01-.31.02-10.72.71-21-.6-30.54-3.91-9.72-3.41-18.25-8.74-25.38-15.86L59.3,186.25c-7.15-7.17-12.48-15.71-15.87-25.39-5.02-14.4-5.47-30.55-1.32-46.73,4.36-16.91,13.51-32.68,26.45-45.6,17.18-17.23,39.12-27.54,61.75-29.04,10.71-.72,20.99.61,30.55,3.93,9.67,3.38,18.21,8.71,25.4,15.83l35.32,35.34,34.89,34.87,65.8,65.82c7.12,7.12,12.46,15.66,15.86,25.39,5.02,14.38,5.47,30.53,1.32,46.72-3.09,12.02-8.67,23.59-16.34,33.91l20.84,20.94c16.06-20.21,25.69-44.38,27.36-69.06.98-14.67-.87-28.86-5.49-42.15Z"/>
  <path class="cls-1" d="M385.07,426.46c19.88,6.92,41.89,7.61,63.64,2.01,21.97-5.64,42.38-17.43,59.04-34.08,22.21-22.22,35.54-50.82,37.54-80.53.98-14.68-.87-28.86-5.49-42.16h0c-4.76-13.71-12.64-26.32-22.81-36.48l-135.99-135.99c-10.2-10.19-22.81-18.08-36.49-22.82-19.89-6.9-41.91-7.61-63.67-2.03-.7.18-1.4.37-2.11.57l25.23,25.23c.1,0,.2-.01.3-.02,10.74-.72,21.02.6,30.59,3.93,9.74,3.41,18.28,8.74,25.41,15.86l135.99,136.01c7.15,7.16,12.49,15.7,15.88,25.39,5.02,14.43,5.47,30.58,1.29,46.74-4.32,16.86-13.45,32.63-26.4,45.58-17.25,17.24-39.18,27.55-61.76,29.03-10.76.72-21.04-.6-30.56-3.92-9.72-3.4-18.26-8.73-25.41-15.85l-135.99-136.01c-7.12-7.12-12.46-15.66-15.86-25.39-5.02-14.36-5.48-30.51-1.32-46.72,3.08-12.03,8.68-23.61,16.35-33.95l-20.89-20.89c-16.03,20.2-25.65,44.36-27.32,69.04-.98,14.67.87,28.85,5.5,42.15,4.77,13.74,12.65,26.35,22.81,36.49l136,136c10.12,10.15,22.74,18.04,36.49,22.82Z"/>
</svg>