<?xml version="1.0" encoding="utf-8"?>
<!-- Generator: Adobe Illustrator 28.0.0, SVG Export Plug-In . SVG Version: 6.00 Build 0)  -->
<svg version="1.1" id="katman_2_00000081606087324120345990000009871643583705896839_"
	 xmlns="http://www.w3.org/2000/svg" xmlns:xlink="http://www.w3.org/1999/xlink" x="0px" y="0px" viewBox="0 0 728.4 116.7"
	 style="enable-background:new 0 0 728.4 116.7;" xml:space="preserve">
<style type="text/css">
	.st0{fill:url(#SVGID_1_);}
	.st1{fill:url(#SVGID_00000108995151211671000920000013258894713449001885_);}
	.st2{fill:url(#SVGID_00000045615913262700276360000005587732770361293734_);}
	.st3{fill:url(#SVGID_00000011029728051425076160000001990713914763340423_);}
	.st4{fill:url(#SVGID_00000053544467622174470740000008193123698345074342_);}
	.st5{fill:url(#SVGID_00000148628421279844020360000008352632878317448635_);}
	.st6{fill:url(#SVGID_00000005261990453196162830000011932343281742925970_);}
	.st7{fill:url(#SVGID_00000024719580837017452410000010035040154122648705_);}
	.st8{fill:url(#SVGID_00000111910486566098108300000016899943995623959938_);}
	.st9{fill:url(#SVGID_00000158744728142205205550000008113589409871313070_);}
	.st10{fill:url(#SVGID_00000111907931243542396160000004805154209727017105_);}
	.st11{fill:url(#SVGID_00000020387479435357580460000000552112773389678223_);}
</style>
<g id="katman_1">
	<g>
		
			<linearGradient id="SVGID_1_" gradientUnits="userSpaceOnUse" x1="44.9949" y1="27.2631" x2="82.34" y2="27.2631" gradientTransform="matrix(1 0 0 -1 0 117.4331)">
			<stop  offset="0" style="stop-color:#FFFFFF"/>
			<stop  offset="1" style="stop-color:#CECECE"/>
		</linearGradient>
		<path class="st0" d="M82.3,77.4L59,111l-6.6-4.6c-7.8-5.4-9.8-16.2-4.4-24l9-13.1L82.3,77.4L82.3,77.4z"/>
		
			<linearGradient id="SVGID_00000181084119272651375090000012345793607853575345_" gradientUnits="userSpaceOnUse" x1="1.140385e-03" y1="78.7581" x2="85.8113" y2="78.7581" gradientTransform="matrix(1 0 0 -1 0 117.4331)">
			<stop  offset="0" style="stop-color:#FFFFFF"/>
			<stop  offset="1" style="stop-color:#CECECE"/>
		</linearGradient>
		<path style="fill:url(#SVGID_00000181084119272651375090000012345793607853575345_);" d="M82.3,77.4L59.2,66.4L20.8,48.3
			C2.7,39.8-5.1,18.1,3.5,0L65,29C83.1,37.6,90.9,59.2,82.3,77.4z"/>
		
			<linearGradient id="SVGID_00000054260797902510356740000013586400079554276999_" gradientUnits="userSpaceOnUse" x1="619.531" y1="272.9809" x2="-1413.8892" y2="-635.149" gradientTransform="matrix(1 0 0 -1 0 117.4331)">
			<stop  offset="0" style="stop-color:#FFFFFF"/>
			<stop  offset="1" style="stop-color:#CECECE"/>
		</linearGradient>
		<path style="fill:url(#SVGID_00000054260797902510356740000013586400079554276999_);" d="M128.1,56l35-33.3c0.6-0.5,1.2-1,1.9-1.2
			s1.4-0.4,2.2-0.4c0.8,0,1.6,0.2,2.4,0.5c0.8,0.3,1.4,0.8,2.1,1.4c0.6,0.6,1,1.2,1.2,2s0.4,1.5,0.3,2.2s-0.2,1.5-0.6,2.3
			s-0.8,1.4-1.4,2l-25.2,23.9l25.8,26.3c0.6,0.6,1.1,1.3,1.4,2.1s0.4,1.5,0.4,2.3s-0.2,1.5-0.5,2.2s-0.8,1.4-1.4,2s-1.2,1-1.9,1.3
			c-0.7,0.3-1.4,0.4-2.1,0.4s-1.5-0.2-2.2-0.4c-0.7-0.3-1.4-0.8-1.9-1.4l-26.2-26.6l-9.2,8.7V86c0,0.8-0.2,1.6-0.5,2.3
			c-0.3,0.7-0.8,1.4-1.3,1.9c-0.6,0.5-1.2,0.9-1.9,1.2c-0.7,0.3-1.5,0.5-2.3,0.5s-1.6-0.2-2.3-0.5c-0.7-0.3-1.4-0.7-1.9-1.2
			c-0.5-0.5-1-1.1-1.3-1.9s-0.5-1.5-0.5-2.3v-59c0-0.9,0.2-1.6,0.5-2.4s0.7-1.3,1.3-1.9c0.5-0.5,1.2-0.9,1.9-1.2
			c0.7-0.3,1.5-0.5,2.3-0.5s1.6,0.2,2.3,0.5s1.4,0.7,1.9,1.2s1,1.1,1.3,1.9c0.3,0.7,0.5,1.5,0.5,2.4L128.1,56L128.1,56z"/>
		
			<linearGradient id="SVGID_00000139979632141382082600000010205275020145357218_" gradientUnits="userSpaceOnUse" x1="634.2092" y1="240.115" x2="-1399.2108" y2="-668.0148" gradientTransform="matrix(1 0 0 -1 0 117.4331)">
			<stop  offset="0" style="stop-color:#FFFFFF"/>
			<stop  offset="1" style="stop-color:#CECECE"/>
		</linearGradient>
		<path style="fill:url(#SVGID_00000139979632141382082600000010205275020145357218_);" d="M177.8,66.1c0-3.6,0.7-7.1,2.1-10.3
			c1.4-3.2,3.3-6,5.7-8.4c2.4-2.4,5.2-4.3,8.4-5.7c3.2-1.4,6.6-2.1,10.2-2.1s7.1,0.7,10.3,2.1c3.2,1.4,6,3.3,8.4,5.7
			c2.4,2.4,4.2,5.2,5.6,8.4s2.1,6.6,2.1,10.3v19.6c0,0.8-0.2,1.6-0.5,2.4s-0.8,1.4-1.3,1.9s-1.2,1-2,1.3s-1.6,0.5-2.4,0.5
			c-1.4,0-2.7-0.4-3.6-1.3c-1-0.8-1.7-1.9-2-3.2c-2.1,1.6-4.4,2.8-6.8,3.8c-2.4,0.9-5,1.4-7.7,1.4c-3.6,0-7-0.7-10.2-2.1
			c-3.2-1.4-6-3.3-8.4-5.7s-4.3-5.2-5.7-8.4C178.5,73.2,177.8,69.8,177.8,66.1L177.8,66.1z M189.8,66.1c0,2,0.4,3.8,1.1,5.6
			c0.8,1.8,1.8,3.3,3.1,4.6c1.3,1.3,2.8,2.3,4.6,3.1c1.7,0.8,3.6,1.1,5.6,1.1s3.9-0.4,5.6-1.1c1.8-0.8,3.3-1.8,4.6-3.1
			c1.3-1.3,2.3-2.8,3.1-4.6c0.7-1.8,1.1-3.6,1.1-5.6s-0.4-3.9-1.1-5.6s-1.8-3.3-3.1-4.6c-1.3-1.3-2.8-2.3-4.6-3.1
			c-1.8-0.8-3.6-1.1-5.6-1.1s-3.8,0.4-5.6,1.1s-3.3,1.8-4.6,3.1c-1.3,1.3-2.3,2.8-3.1,4.6C190.2,62.3,189.8,64.2,189.8,66.1z"/>
		
			<linearGradient id="SVGID_00000078734463070556980980000007672457456987184063_" gradientUnits="userSpaceOnUse" x1="644.3508" y1="217.4111" x2="-1389.0691" y2="-690.7187" gradientTransform="matrix(1 0 0 -1 0 117.4331)">
			<stop  offset="0" style="stop-color:#FFFFFF"/>
			<stop  offset="1" style="stop-color:#CECECE"/>
		</linearGradient>
		<path style="fill:url(#SVGID_00000078734463070556980980000007672457456987184063_);" d="M290.4,86.1c0,0.8-0.2,1.6-0.5,2.3
			s-0.7,1.3-1.2,1.9c-0.5,0.5-1.1,0.9-1.9,1.2c-0.7,0.3-1.5,0.4-2.3,0.4s-1.6-0.2-2.4-0.4c-0.8-0.3-1.4-0.7-2-1.2
			c-0.5-0.5-1-1.2-1.3-1.9s-0.5-1.5-0.5-2.3V65.5c0-0.3,0-0.5,0.1-0.7c-0.1-1.8-0.4-3.5-1.1-5.1c-0.7-1.6-1.6-3-2.7-4.2
			c-1.1-1.2-2.5-2.1-4-2.8c-1.5-0.7-3.2-1-5.1-1s-3.6,0.3-5.2,1c-1.6,0.7-2.9,1.6-4.1,2.8c-1.1,1.2-2,2.7-2.7,4.3
			c-0.6,1.6-1,3.4-1,5.3v20.9c0,0.8-0.1,1.6-0.4,2.3c-0.3,0.7-0.7,1.3-1.2,1.9s-1.1,0.9-1.9,1.2c-0.7,0.3-1.5,0.4-2.3,0.4
			s-1.6-0.2-2.3-0.4c-0.7-0.3-1.4-0.7-2-1.2c-0.6-0.5-1-1.2-1.4-1.9s-0.5-1.5-0.5-2.3V65.2c0-3.5,0.6-6.9,1.9-9.9s3-5.8,5.3-8.1
			c2.2-2.3,4.9-4.1,7.9-5.5c3-1.3,6.3-2,9.8-2s6.8,0.7,9.9,2c3,1.3,5.6,3.2,7.9,5.5c2.2,2.3,4,5,5.2,8.1c1.3,3.1,1.9,6.4,1.9,9.9
			L290.4,86.1L290.4,86.1z"/>
		
			<linearGradient id="SVGID_00000036937085713884130460000014580573856866131102_" gradientUnits="userSpaceOnUse" x1="654.1224" y1="195.5276" x2="-1379.2977" y2="-712.6022" gradientTransform="matrix(1 0 0 -1 0 117.4331)">
			<stop  offset="0" style="stop-color:#FFFFFF"/>
			<stop  offset="1" style="stop-color:#CECECE"/>
		</linearGradient>
		<path style="fill:url(#SVGID_00000036937085713884130460000014580573856866131102_);" d="M297.5,66.1c0-3.6,0.7-7.1,2.1-10.3
			s3.3-6,5.7-8.4c2.4-2.4,5.2-4.3,8.4-5.7c3.2-1.4,6.6-2.1,10.2-2.1s7.1,0.7,10.3,2.1c3.2,1.4,6,3.3,8.4,5.7
			c2.4,2.4,4.2,5.2,5.6,8.4s2,6.6,2,10.3v19.6c0,0.8-0.2,1.6-0.5,2.4s-0.8,1.4-1.3,1.9c-0.5,0.6-1.2,1-2,1.3s-1.6,0.5-2.4,0.5
			c-1.4,0-2.7-0.4-3.6-1.3c-1-0.8-1.7-1.9-2-3.2c-2.1,1.6-4.4,2.8-6.8,3.8c-2.5,0.9-5,1.4-7.7,1.4c-3.6,0-7-0.7-10.2-2.1
			c-3.2-1.4-6-3.3-8.4-5.7c-2.4-2.4-4.3-5.2-5.7-8.4C298.2,73.2,297.5,69.8,297.5,66.1L297.5,66.1z M309.5,66.1c0,2,0.4,3.8,1.1,5.6
			c0.8,1.8,1.8,3.3,3.1,4.6s2.8,2.3,4.6,3.1c1.7,0.8,3.6,1.1,5.6,1.1s3.9-0.4,5.6-1.1c1.8-0.8,3.3-1.8,4.6-3.1s2.3-2.8,3-4.6
			c0.7-1.8,1.1-3.6,1.1-5.6s-0.4-3.9-1.1-5.6s-1.8-3.3-3-4.6c-1.3-1.3-2.8-2.3-4.6-3.1c-1.8-0.8-3.6-1.1-5.6-1.1s-3.8,0.4-5.6,1.1
			s-3.3,1.8-4.6,3.1s-2.3,2.8-3.1,4.6C309.9,62.3,309.5,64.2,309.5,66.1z"/>
		
			<linearGradient id="SVGID_00000168112483103263428350000013087061490930021806_" gradientUnits="userSpaceOnUse" x1="659.3521" y1="183.8185" x2="-1374.0679" y2="-724.3113" gradientTransform="matrix(1 0 0 -1 0 117.4331)">
			<stop  offset="0" style="stop-color:#FFFFFF"/>
			<stop  offset="1" style="stop-color:#CECECE"/>
		</linearGradient>
		<path style="fill:url(#SVGID_00000168112483103263428350000013087061490930021806_);" d="M373,40.4h19.3c0.9,0,1.6,0.2,2.4,0.5
			s1.4,0.8,1.9,1.3s1,1.2,1.3,1.9c0.3,0.7,0.5,1.5,0.5,2.4s-0.2,1.6-0.5,2.3c-0.3,0.7-0.8,1.3-1.3,1.9c-0.5,0.5-1.2,1-1.9,1.3
			s-1.5,0.5-2.4,0.5H373v14c0,2,0.4,3.8,1.1,5.5s1.8,3.2,3.1,4.5c1.3,1.3,2.8,2.3,4.6,3c1.8,0.7,3.6,1.1,5.6,1.1
			c1.8,0,3.4-0.2,4.9-0.8c1.5-0.5,2.9-1.3,4.2-2.5c0.6-0.6,1.3-1.1,2.1-1.5c0.8-0.4,1.6-0.6,2.4-0.6c1.4,0,2.6,0.5,3.7,1.5
			c0.7,0.6,1.1,1.3,1.4,2.1s0.4,1.7,0.3,2.5c-0.1,0.9-0.3,1.7-0.6,2.5c-0.4,0.8-0.9,1.5-1.5,2.2c-2.2,2.1-4.8,3.8-7.6,4.8
			c-2.9,1.1-6,1.6-9.3,1.6c-3.6,0-7.1-0.7-10.3-2.1s-6-3.2-8.4-5.6c-2.4-2.4-4.3-5.1-5.7-8.3S361,70,361,66.3V30.8
			c0-0.9,0.2-1.6,0.5-2.4s0.8-1.4,1.3-1.9c0.5-0.5,1.2-1,1.9-1.3s1.5-0.5,2.3-0.5s1.6,0.2,2.3,0.5s1.4,0.8,1.9,1.3s1,1.2,1.3,1.9
			s0.5,1.5,0.5,2.4L373,40.4L373,40.4z"/>
		
			<linearGradient id="SVGID_00000014606744609349704240000009364982313607892618_" gradientUnits="userSpaceOnUse" x1="673.8695" y1="151.3141" x2="-1359.5507" y2="-756.8158" gradientTransform="matrix(1 0 0 -1 0 117.4331)">
			<stop  offset="0" style="stop-color:#FFFFFF"/>
			<stop  offset="1" style="stop-color:#CECECE"/>
		</linearGradient>
		<path style="fill:url(#SVGID_00000014606744609349704240000009364982313607892618_);" d="M449.3,43.6v43c0,0.8-0.1,1.6-0.4,2.3
			c-0.3,0.7-0.7,1.4-1.2,1.9c-0.5,0.5-1.1,0.9-1.8,1.2c-0.7,0.3-1.4,0.5-2.2,0.5s-1.5-0.2-2.2-0.5c-0.7-0.3-1.3-0.7-1.8-1.2
			s-0.9-1.1-1.2-1.9c-0.3-0.7-0.4-1.5-0.4-2.3v-59c0-0.9,0.1-1.6,0.4-2.4s0.7-1.4,1.2-1.9c0.5-0.5,1.1-1,1.8-1.2
			c0.7-0.3,1.4-0.4,2.2-0.4c1.5,0,2.8,0.6,4,1.7l22.6,28.5l22.5-28.5c0.5-0.5,1.1-0.9,1.8-1.2s1.4-0.5,2.1-0.5h0.4
			c0.8,0,1.5,0.2,2.1,0.5s1.2,0.8,1.8,1.3c0.5,0.5,0.9,1.1,1.2,1.8c0.3,0.7,0.4,1.5,0.4,2.3v59c0,0.8-0.1,1.6-0.4,2.3
			c-0.3,0.7-0.7,1.4-1.2,1.9c-0.5,0.5-1.1,0.9-1.8,1.2c-0.7,0.3-1.4,0.5-2.2,0.5s-1.5-0.2-2.2-0.5c-0.7-0.3-1.3-0.7-1.8-1.2
			s-0.9-1.1-1.2-1.9c-0.3-0.7-0.4-1.5-0.4-2.3V43.5L474,65.2c-0.5,0.5-1.1,0.9-1.7,1.3c-0.7,0.3-1.3,0.5-2,0.5
			c-1.4,0-2.6-0.6-3.6-1.8h0v-0.1L449.3,43.6L449.3,43.6z"/>
		
			<linearGradient id="SVGID_00000003100408424960117580000016817748691587611063_" gradientUnits="userSpaceOnUse" x1="688.181" y1="119.2608" x2="-1345.239" y2="-788.8593" gradientTransform="matrix(1 0 0 -1 0 117.4331)">
			<stop  offset="0" style="stop-color:#FFFFFF"/>
			<stop  offset="1" style="stop-color:#CECECE"/>
		</linearGradient>
		<path style="fill:url(#SVGID_00000003100408424960117580000016817748691587611063_);" d="M521.1,72.1c0.5,1.4,1.2,2.6,2,3.7
			s1.9,2.1,3,2.9c1.1,0.8,2.4,1.4,3.8,1.8c1.4,0.4,2.8,0.6,4.3,0.6c3.8,0,6.8-1,9-3c0.7-0.5,1.5-0.9,2.2-1.1c0.7-0.2,1.4-0.4,2-0.4
			c1,0,2,0.3,2.8,0.8c0.8,0.5,1.5,1.2,2,2.1c0.4,0.6,0.6,1.2,0.8,1.9c0.2,0.7,0.2,1.4,0.1,2.1c-0.1,0.7-0.3,1.4-0.7,2.1
			c-0.3,0.7-0.9,1.3-1.6,1.8c-0.8,0.7-1.7,1.4-2.8,2.1s-2.2,1.3-3.6,1.8c-1.3,0.5-2.9,0.9-4.5,1.2c-1.7,0.3-3.6,0.5-5.7,0.5
			c-3.7,0-7.1-0.7-10.3-2.1c-3.2-1.4-6-3.3-8.4-5.7c-2.4-2.4-4.3-5.2-5.7-8.4c-1.4-3.2-2.1-6.6-2.1-10.3c0-3.6,0.7-7.1,2.1-10.3
			s3.3-6,5.7-8.4s5.2-4.3,8.4-5.7c3.2-1.4,6.6-2.1,10.3-2.1s7,0.7,10.2,2s6,3.2,8.4,5.6c2.4,2.3,4.3,5.1,5.8,8.3
			c1.4,3.2,2.2,6.6,2.2,10.2c0,1.7-0.5,3.1-1.6,4.1s-2.5,1.6-4.3,1.6L521.1,72.1L521.1,72.1z M548.4,62.2c-0.4-1.5-1-2.9-1.9-4.1
			c-0.9-1.2-1.9-2.2-3.1-3.1c-1.2-0.8-2.6-1.5-4.1-1.9c-1.5-0.4-3.1-0.7-4.8-0.7s-3.3,0.2-4.8,0.7s-2.8,1.1-4,2
			c-1.2,0.9-2.2,1.9-3.1,3.1c-0.8,1.2-1.5,2.5-1.9,4L548.4,62.2L548.4,62.2z"/>
		
			<linearGradient id="SVGID_00000128472663344927069900000008008943940100999846_" gradientUnits="userSpaceOnUse" x1="696.2417" y1="101.2093" x2="-1337.1785" y2="-806.9207" gradientTransform="matrix(1 0 0 -1 0 117.4331)">
			<stop  offset="0" style="stop-color:#FFFFFF"/>
			<stop  offset="1" style="stop-color:#CECECE"/>
		</linearGradient>
		<path style="fill:url(#SVGID_00000128472663344927069900000008008943940100999846_);" d="M618.7,67c0,3.6-0.8,7-2.2,10.2
			c-1.4,3.2-3.3,6-5.7,8.3s-5.2,4.2-8.4,5.6c-3.2,1.4-6.6,2.1-10.2,2.1s-7.1-0.7-10.3-2.1c-3.2-1.4-6-3.3-8.4-5.7s-4.3-5.2-5.7-8.4
			c-1.4-3.2-2.1-6.6-2.1-10.2c0-3.6,0.7-7.1,2.1-10.3c1.4-3.2,3.3-6,5.7-8.4s5.2-4.3,8.4-5.7c3.2-1.4,6.6-2.1,10.3-2.1
			c2.7,0,5.2,0.4,7.6,1.1c2.4,0.8,4.7,1.8,6.8,3.2V27.4c0-0.9,0.2-1.7,0.4-2.5c0.3-0.8,0.7-1.4,1.2-2c0.5-0.6,1.2-1,1.9-1.3
			c0.7-0.3,1.5-0.5,2.4-0.5s1.6,0.2,2.4,0.5s1.4,0.8,1.9,1.3c0.5,0.6,1,1.2,1.3,2c0.3,0.8,0.5,1.6,0.5,2.5V67L618.7,67z M606.7,66.8
			c0-2-0.4-3.9-1.1-5.6s-1.8-3.3-3.1-4.6s-2.8-2.3-4.6-3.1c-1.7-0.8-3.6-1.1-5.6-1.1s-3.9,0.4-5.6,1.1c-1.7,0.8-3.3,1.8-4.6,3.1
			s-2.3,2.8-3.1,4.6c-0.7,1.8-1.1,3.6-1.1,5.6s0.4,3.8,1.1,5.6s1.8,3.3,3,4.6c1.3,1.3,2.8,2.3,4.6,3.1c1.8,0.8,3.6,1.1,5.6,1.1
			s3.9-0.4,5.6-1.1c1.7-0.8,3.3-1.8,4.6-3.1s2.3-2.8,3.1-4.6C606.4,70.6,606.7,68.7,606.7,66.8L606.7,66.8z"/>
		
			<linearGradient id="SVGID_00000142143210312433393070000001634955860423120296_" gradientUnits="userSpaceOnUse" x1="717.2202" y1="54.2325" x2="-1316.1997" y2="-853.8876" gradientTransform="matrix(1 0 0 -1 0 117.4331)">
			<stop  offset="0" style="stop-color:#FFFFFF"/>
			<stop  offset="1" style="stop-color:#CECECE"/>
		</linearGradient>
		<path style="fill:url(#SVGID_00000142143210312433393070000001634955860423120296_);" d="M675.6,66.8c0-3.6,0.7-7.1,2.1-10.3
			c1.4-3.2,3.3-6,5.7-8.4c2.4-2.4,5.2-4.3,8.4-5.7c3.2-1.4,6.6-2.1,10.2-2.1s7.1,0.7,10.3,2.1s6,3.3,8.4,5.7
			c2.4,2.4,4.2,5.2,5.6,8.4s2,6.6,2,10.3v19.6c0,0.8-0.2,1.6-0.5,2.4s-0.8,1.4-1.3,1.9c-0.5,0.6-1.2,1-2,1.3
			c-0.8,0.3-1.6,0.5-2.4,0.5c-1.4,0-2.7-0.4-3.7-1.3c-1-0.8-1.7-1.9-2-3.2c-2.1,1.6-4.4,2.8-6.8,3.8c-2.5,0.9-5,1.4-7.7,1.4
			c-3.6,0-7-0.7-10.2-2.1c-3.2-1.4-6-3.3-8.4-5.7s-4.3-5.2-5.7-8.4C676.4,73.8,675.7,70.4,675.6,66.8L675.6,66.8z M687.7,66.8
			c0,2,0.4,3.8,1.1,5.6c0.8,1.8,1.8,3.3,3.1,4.6s2.8,2.3,4.6,3.1c1.7,0.8,3.6,1.1,5.6,1.1s3.9-0.4,5.6-1.1c1.8-0.8,3.3-1.8,4.6-3.1
			s2.3-2.8,3-4.6c0.7-1.8,1.1-3.6,1.1-5.6s-0.4-3.9-1.1-5.6s-1.8-3.3-3-4.6c-1.3-1.3-2.8-2.3-4.6-3.1c-1.8-0.8-3.6-1.1-5.6-1.1
			s-3.8,0.4-5.6,1.1s-3.3,1.8-4.6,3.1s-2.3,2.8-3.1,4.6C688,62.9,687.7,64.8,687.7,66.8L687.7,66.8z"/>
		
			<linearGradient id="SVGID_00000010293185745634117990000015055404335007877786_" gradientUnits="userSpaceOnUse" x1="711.3519" y1="67.3688" x2="-1322.0681" y2="-840.761" gradientTransform="matrix(1 0 0 -1 0 117.4331)">
			<stop  offset="0" style="stop-color:#FFFFFF"/>
			<stop  offset="1" style="stop-color:#CECECE"/>
		</linearGradient>
		<path style="fill:url(#SVGID_00000010293185745634117990000015055404335007877786_);" d="M660.2,90.2c-0.2,0.1-0.3,0.2-0.5,0.2
			c-3,1.7-6.2,2.7-9.7,3c-12.8,1.1-23.3-8.1-25.6-19c-0.4-1.7-0.6-3.5-0.6-5.2c0-5.4,0-10.9,0-16.3c0-1.6,0.4-3,1.4-4.3
			c1.5-1.8,3.5-2.5,5.8-2c2.3,0.5,3.7,2,4.4,4.3c0.2,0.7,0.3,1.4,0.3,2.1c0,5.4,0,10.9,0,16.3c0,3.4,1.2,6.4,3.7,8.8
			c2.2,2.1,4.8,3.3,7.9,3.4c3.2,0.2,6.1-0.7,8.5-2.8c2.3-1.9,3.7-4.4,4.1-7.5c0.1-0.9,0.2-1.8,0.2-2.7c0-5.3,0-10.5,0-15.8
			c0-1.5,0.4-2.9,1.3-4.1c1.4-1.8,3.3-2.6,5.6-2.2c2.3,0.4,3.8,1.8,4.6,4c0.2,0.7,0.4,1.5,0.4,2.2c0,13.3,0.1,26.7,0,40
			c0,7.2-2.9,13.2-8.3,17.9c-3.3,2.9-7.2,4.9-11.5,5.6c-7.1,1.2-13.5-0.3-19.2-4.8c-4.7-3.7-7.6-8.6-8.7-14.5
			c-0.2-0.9-0.3-1.9-0.4-2.8c-0.1-3.6,2.4-5.7,4.9-6c2.3-0.3,4.1,0.5,5.3,2.5c0.6,1,0.9,2.1,1.2,3.2c1,4.9,3.7,8.6,8.6,10.3
			c4.1,1.4,8.1,0.8,11.6-1.8c2.5-1.9,4-4.5,4.5-7.7C660.2,93.1,660.2,91.7,660.2,90.2L660.2,90.2z"/>
	</g>
</g>
</svg>
