<?xml version="1.0" encoding="UTF-8"?>
<svg id="katman_1" data-name="katman 1" xmlns="http://www.w3.org/2000/svg" version="1.1" xmlns:xlink="http://www.w3.org/1999/xlink" viewBox="0 0 727.7 115.48">
  <defs>
    <style>
      .cls-1 {
        fill: url(#New_Gradient_Swatch_1);
      }

      .cls-1, .cls-2, .cls-3 {
        stroke-width: 0px;
      }

      .cls-2 {
        fill: url(#New_Gradient_Swatch_1-2);
      }

      .cls-3 {
        fill: #0a0c11;
      }
    </style>
    <linearGradient id="New_Gradient_Swatch_1" data-name="New Gradient Swatch 1" x1="72.86" y1="70.2" x2="48.07" y2="103.14" gradientUnits="userSpaceOnUse">
      <stop offset=".18" stop-color="#0033ab"/>
      <stop offset="1" stop-color="#00a3dd"/>
    </linearGradient>
    <linearGradient id="New_Gradient_Swatch_1-2" data-name="New Gradient Swatch 1" x1="3.94" y1="11.59" x2="92.27" y2="72.97" xlink:href="#New_Gradient_Swatch_1"/>
  </defs>
  <g>
    <path class="cls-1" d="M82.23,77.25l-23.31,33.64-6.56-4.55c-7.83-5.42-9.78-16.17-4.35-24l11.08-16.01,23.14,10.91Z"/>
    <path class="cls-2" d="M82.23,77.25l-23.14-10.91-38.3-18.07C2.68,39.72-5.07,18.11,3.48,0l61.43,28.99c18.11,8.54,25.86,30.15,17.32,48.26Z"/>
  </g>
  <path class="cls-3" d="M127.93,55.92l34.99-33.28c.59-.55,1.23-.97,1.93-1.24s1.42-.41,2.16-.41c.81,0,1.59.17,2.35.5.75.33,1.45.81,2.07,1.44.55.59.96,1.24,1.22,1.96.26.72.36,1.46.3,2.24-.05.77-.25,1.53-.58,2.27-.33.74-.81,1.4-1.44,1.99l-25.21,23.83,25.76,26.26c.63.63,1.08,1.32,1.35,2.07.28.76.41,1.52.41,2.29s-.16,1.52-.47,2.24c-.31.72-.76,1.37-1.35,1.96s-1.23,1.02-1.91,1.3c-.68.28-1.39.41-2.13.41s-1.46-.15-2.16-.44c-.7-.29-1.35-.76-1.93-1.38l-26.2-26.59-9.18,8.73v13.76c0,.81-.16,1.59-.47,2.32-.31.74-.75,1.36-1.3,1.88-.55.52-1.19.93-1.91,1.24-.72.31-1.5.47-2.35.47s-1.59-.16-2.32-.47c-.74-.31-1.37-.73-1.91-1.24-.53-.52-.96-1.14-1.27-1.88-.31-.74-.47-1.51-.47-2.32V26.9c0-.85.16-1.63.47-2.35s.74-1.34,1.27-1.85c.53-.52,1.17-.93,1.91-1.24.74-.31,1.51-.47,2.32-.47s1.63.16,2.35.47,1.35.73,1.91,1.24c.55.52.99,1.13,1.3,1.85.31.72.47,1.5.47,2.35v29.02Z"/>
  <path class="cls-3" d="M177.52,66.04c0-3.65.7-7.07,2.1-10.25,1.4-3.19,3.3-5.98,5.69-8.37,2.39-2.4,5.19-4.28,8.37-5.67,3.19-1.38,6.59-2.07,10.2-2.07s7.08.69,10.28,2.07c3.21,1.38,6,3.27,8.37,5.67,2.38,2.4,4.25,5.19,5.61,8.37,1.36,3.19,2.05,6.61,2.05,10.25v19.57c0,.85-.16,1.64-.47,2.38-.31.74-.75,1.38-1.3,1.93s-1.21.99-1.96,1.33c-.76.33-1.56.5-2.4.5-1.44,0-2.65-.42-3.65-1.27-.99-.85-1.66-1.92-1.99-3.21-2.1,1.59-4.38,2.84-6.83,3.76-2.45.92-5.02,1.38-7.71,1.38-3.61,0-7.01-.69-10.2-2.07-3.19-1.38-5.98-3.27-8.37-5.67-2.4-2.4-4.29-5.2-5.69-8.4-1.4-3.21-2.1-6.61-2.1-10.23ZM189.52,66.04c0,1.95.38,3.81,1.13,5.56.76,1.75,1.79,3.28,3.1,4.59,1.31,1.31,2.83,2.34,4.56,3.1,1.73.76,3.59,1.13,5.58,1.13s3.86-.38,5.61-1.13c1.75-.76,3.27-1.79,4.56-3.1,1.29-1.31,2.3-2.84,3.04-4.59.74-1.75,1.11-3.6,1.11-5.56s-.37-3.86-1.11-5.61c-.74-1.75-1.75-3.27-3.04-4.56-1.29-1.29-2.81-2.31-4.56-3.07-1.75-.76-3.62-1.13-5.61-1.13s-3.81.38-5.56,1.13c-1.75.76-3.28,1.78-4.59,3.07-1.31,1.29-2.34,2.81-3.1,4.56-.76,1.75-1.13,3.62-1.13,5.61Z"/>
  <path class="cls-3" d="M289.96,85.94c0,.85-.16,1.63-.47,2.35-.31.72-.73,1.35-1.24,1.88-.52.53-1.13.95-1.85,1.24-.72.3-1.48.44-2.29.44s-1.59-.15-2.35-.44c-.76-.29-1.41-.71-1.96-1.24-.55-.53-.99-1.16-1.33-1.88s-.5-1.5-.5-2.35v-20.56c0-.29.02-.52.06-.66-.07-1.81-.44-3.5-1.11-5.09-.66-1.58-1.57-2.97-2.71-4.15-1.14-1.18-2.48-2.11-4.01-2.79-1.53-.68-3.22-1.02-5.06-1.02s-3.61.34-5.2,1.02c-1.58.68-2.94,1.63-4.06,2.85-1.12,1.22-2.01,2.64-2.65,4.28-.65,1.64-.97,3.4-.97,5.28v20.84c0,.85-.15,1.63-.44,2.35-.3.72-.71,1.35-1.24,1.88-.53.53-1.15.95-1.85,1.24-.7.3-1.47.44-2.32.44s-1.59-.15-2.32-.44c-.74-.29-1.39-.71-1.96-1.24-.57-.53-1.02-1.16-1.35-1.88s-.5-1.5-.5-2.35v-20.84c0-3.54.64-6.85,1.91-9.92,1.27-3.08,3.02-5.77,5.25-8.07,2.23-2.3,4.86-4.12,7.9-5.44s6.31-1.99,9.81-1.99,6.82.66,9.84,1.99c3.02,1.33,5.64,3.14,7.85,5.44,2.21,2.3,3.95,4.99,5.22,8.07,1.27,3.08,1.91,6.38,1.91,9.92v20.84Z"/>
  <path class="cls-3" d="M297.09,66.04c0-3.65.7-7.07,2.1-10.25,1.4-3.19,3.3-5.98,5.69-8.37,2.39-2.4,5.19-4.28,8.37-5.67,3.19-1.38,6.59-2.07,10.2-2.07s7.08.69,10.28,2.07,6,3.27,8.37,5.67c2.38,2.4,4.25,5.19,5.61,8.37,1.36,3.19,2.05,6.61,2.05,10.25v19.57c0,.85-.16,1.64-.47,2.38-.31.74-.75,1.38-1.3,1.93s-1.21.99-1.96,1.33c-.76.33-1.56.5-2.4.5-1.44,0-2.65-.42-3.65-1.27-.99-.85-1.66-1.92-1.99-3.21-2.1,1.59-4.38,2.84-6.83,3.76-2.45.92-5.02,1.38-7.71,1.38-3.61,0-7.01-.69-10.2-2.07-3.19-1.38-5.98-3.27-8.37-5.67-2.4-2.4-4.29-5.2-5.69-8.4-1.4-3.21-2.1-6.61-2.1-10.23ZM309.08,66.04c0,1.95.38,3.81,1.13,5.56.76,1.75,1.79,3.28,3.1,4.59,1.31,1.31,2.83,2.34,4.56,3.1,1.73.76,3.59,1.13,5.58,1.13s3.86-.38,5.61-1.13c1.75-.76,3.27-1.79,4.56-3.1,1.29-1.31,2.3-2.84,3.04-4.59.74-1.75,1.11-3.6,1.11-5.56s-.37-3.86-1.11-5.61c-.74-1.75-1.75-3.27-3.04-4.56-1.29-1.29-2.81-2.31-4.56-3.07-1.75-.76-3.62-1.13-5.61-1.13s-3.81.38-5.56,1.13c-1.75.76-3.28,1.78-4.59,3.07-1.31,1.29-2.34,2.81-3.1,4.56-.76,1.75-1.13,3.62-1.13,5.61Z"/>
  <path class="cls-3" d="M372.43,40.34h19.24c.85,0,1.64.16,2.38.47.74.31,1.38.75,1.93,1.3s.99,1.2,1.3,1.93c.31.74.47,1.53.47,2.38s-.16,1.57-.47,2.29c-.31.72-.75,1.35-1.3,1.88-.55.53-1.2.96-1.93,1.27-.74.31-1.53.47-2.38.47h-19.24v13.99c0,1.95.38,3.79,1.13,5.5.75,1.71,1.78,3.21,3.07,4.48,1.29,1.27,2.81,2.28,4.56,3.01,1.75.74,3.62,1.1,5.61,1.1,1.77,0,3.41-.25,4.92-.75,1.51-.5,2.91-1.32,4.2-2.46.63-.59,1.33-1.08,2.1-1.46.77-.39,1.58-.58,2.43-.58,1.36,0,2.6.5,3.7,1.49.66.59,1.13,1.29,1.41,2.1.28.81.39,1.65.33,2.51-.05.87-.27,1.7-.64,2.51-.37.81-.88,1.53-1.55,2.16-2.21,2.14-4.75,3.75-7.63,4.84-2.87,1.09-5.97,1.63-9.29,1.63-3.65,0-7.07-.68-10.25-2.05-3.19-1.36-5.98-3.22-8.37-5.58-2.4-2.36-4.28-5.13-5.67-8.32-1.38-3.19-2.07-6.61-2.07-10.25V30.72c0-.85.17-1.64.5-2.38.33-.74.77-1.38,1.33-1.93.55-.55,1.2-.99,1.93-1.3.74-.31,1.51-.47,2.32-.47s1.58.16,2.29.47,1.34.75,1.88,1.3c.53.55.96,1.2,1.27,1.93.31.74.47,1.53.47,2.38v9.62Z"/>
  <path class="cls-3" d="M449.02,43.54v42.95c0,.81-.15,1.59-.44,2.32-.3.74-.7,1.36-1.22,1.88-.52.52-1.12.93-1.8,1.24-.68.31-1.41.47-2.21.47s-1.49-.16-2.19-.47c-.7-.31-1.29-.73-1.8-1.24-.5-.52-.9-1.14-1.2-1.88-.3-.74-.44-1.51-.44-2.32V27.57c0-.85.15-1.63.44-2.35s.7-1.34,1.22-1.88c.52-.53,1.13-.95,1.82-1.24.69-.29,1.42-.44,2.19-.44,1.49,0,2.83.57,4.01,1.71l22.55,28.41,22.45-28.41c.49-.48,1.08-.88,1.8-1.22.71-.33,1.4-.5,2.06-.5h.42c.76.04,1.48.22,2.14.55.66.33,1.24.76,1.74,1.27.5.52.89,1.12,1.17,1.82.28.7.42,1.46.42,2.27v58.93c0,.81-.15,1.59-.44,2.32-.3.74-.7,1.36-1.22,1.88-.52.52-1.12.93-1.8,1.24-.68.31-1.42.47-2.21.47s-1.48-.16-2.16-.47c-.68-.31-1.28-.73-1.8-1.24-.52-.52-.93-1.14-1.22-1.88-.3-.74-.44-1.51-.44-2.32v-43.01l-17.19,21.67c-.49.52-1.06.95-1.72,1.3s-1.34.52-2.03.52c-1.35,0-2.55-.59-3.59-1.77h-.05v-.06l-17.24-21.61Z"/>
  <path class="cls-3" d="M520.7,71.4c.48,1.36,1.15,2.61,2.02,3.73.87,1.12,1.87,2.08,3.01,2.87,1.14.79,2.4,1.4,3.76,1.82,1.36.42,2.8.64,4.31.64,3.8,0,6.78-.99,8.95-2.98.74-.52,1.46-.89,2.16-1.13.7-.24,1.36-.36,1.99-.36,1.03,0,1.95.27,2.76.8.81.53,1.47,1.23,1.99,2.07.37.59.64,1.23.8,1.91.17.68.2,1.37.11,2.07-.09.7-.31,1.39-.66,2.07-.35.68-.88,1.3-1.58,1.85-.81.74-1.73,1.45-2.76,2.13-1.03.68-2.22,1.28-3.56,1.8-1.35.52-2.86.93-4.53,1.24-1.68.31-3.57.47-5.67.47-3.65,0-7.08-.69-10.28-2.07-3.21-1.38-6.01-3.27-8.4-5.67-2.4-2.4-4.29-5.19-5.69-8.37-1.4-3.19-2.1-6.61-2.1-10.25s.7-7.08,2.1-10.28c1.4-3.21,3.3-6,5.69-8.37,2.39-2.38,5.2-4.26,8.4-5.64,3.21-1.38,6.63-2.07,10.28-2.07s7.01.68,10.2,2.04c3.19,1.36,5.99,3.22,8.4,5.56,2.41,2.34,4.33,5.1,5.75,8.26,1.42,3.17,2.15,6.56,2.18,10.17,0,1.7-.54,3.07-1.63,4.12-1.09,1.05-2.51,1.57-4.28,1.57h-33.72ZM548.01,61.45c-.41-1.51-1.04-2.87-1.91-4.09-.87-1.22-1.91-2.25-3.12-3.1-1.22-.85-2.58-1.49-4.09-1.93-1.51-.44-3.11-.66-4.81-.66s-3.29.23-4.78.69c-1.49.46-2.84,1.12-4.04,1.99-1.2.87-2.22,1.9-3.07,3.1-.85,1.2-1.47,2.53-1.88,4.01h27.7Z"/>
  <path class="cls-3" d="M618.19,66.26c-.04,3.58-.76,6.96-2.16,10.14-1.4,3.19-3.29,5.96-5.67,8.32-2.38,2.36-5.16,4.23-8.35,5.61-3.19,1.38-6.59,2.07-10.2,2.07s-7.07-.69-10.25-2.07c-3.19-1.38-5.97-3.27-8.35-5.67-2.38-2.4-4.26-5.2-5.64-8.4-1.38-3.21-2.07-6.61-2.07-10.23s.69-7.08,2.07-10.28c1.38-3.21,3.26-6,5.64-8.37,2.38-2.38,5.16-4.26,8.35-5.64,3.19-1.38,6.61-2.07,10.25-2.07,2.65,0,5.19.38,7.6,1.13,2.41.76,4.67,1.82,6.77,3.18v-17.25c0-.88.15-1.7.44-2.46.29-.76.71-1.42,1.24-1.99.53-.57,1.16-1.01,1.88-1.33.72-.31,1.52-.47,2.4-.47s1.64.16,2.38.47c.74.31,1.37.76,1.91,1.33.53.57.96,1.23,1.27,1.99.31.76.47,1.58.47,2.46v39.52ZM606.2,66.04c0-1.99-.38-3.86-1.13-5.61-.76-1.75-1.79-3.27-3.1-4.56-1.31-1.29-2.83-2.31-4.56-3.07-1.73-.76-3.59-1.13-5.58-1.13s-3.85.38-5.58,1.13c-1.73.76-3.25,1.78-4.56,3.07-1.31,1.29-2.33,2.81-3.07,4.56-.74,1.75-1.1,3.62-1.1,5.61s.37,3.81,1.1,5.56c.74,1.75,1.75,3.28,3.04,4.59,1.29,1.31,2.81,2.34,4.56,3.1,1.75.76,3.62,1.13,5.61,1.13s3.85-.38,5.58-1.13c1.73-.76,3.25-1.79,4.56-3.1,1.31-1.31,2.34-2.84,3.1-4.59.76-1.75,1.13-3.6,1.13-5.56Z"/>
  <path class="cls-3" d="M675.01,66.04c0-3.65.7-7.07,2.1-10.25,1.4-3.19,3.3-5.98,5.69-8.37,2.39-2.4,5.19-4.28,8.37-5.67,3.19-1.38,6.59-2.07,10.2-2.07s7.08.69,10.28,2.07c3.21,1.38,6,3.27,8.37,5.67,2.38,2.4,4.25,5.19,5.61,8.37,1.36,3.19,2.05,6.61,2.05,10.25v19.57c0,.85-.16,1.64-.47,2.38-.31.74-.75,1.38-1.3,1.93s-1.21.99-1.96,1.33c-.76.33-1.56.5-2.4.5-1.44,0-2.65-.42-3.65-1.27-.99-.85-1.66-1.92-1.99-3.21-2.1,1.59-4.38,2.84-6.83,3.76-2.45.92-5.02,1.38-7.71,1.38-3.61,0-7.01-.69-10.2-2.07-3.19-1.38-5.98-3.27-8.37-5.67-2.4-2.4-4.29-5.2-5.69-8.4-1.4-3.21-2.1-6.61-2.1-10.23ZM687.01,66.04c0,1.95.38,3.81,1.13,5.56.76,1.75,1.79,3.28,3.1,4.59,1.31,1.31,2.83,2.34,4.56,3.1,1.73.76,3.59,1.13,5.58,1.13s3.86-.38,5.61-1.13c1.75-.76,3.27-1.79,4.56-3.1,1.29-1.31,2.3-2.84,3.04-4.59.74-1.75,1.11-3.6,1.11-5.56s-.37-3.86-1.11-5.61c-.74-1.75-1.75-3.27-3.04-4.56-1.29-1.29-2.81-2.31-4.56-3.07-1.75-.76-3.62-1.13-5.61-1.13s-3.81.38-5.56,1.13c-1.75.76-3.28,1.78-4.59,3.07-1.31,1.29-2.34,2.81-3.1,4.56-.76,1.75-1.13,3.62-1.13,5.61Z"/>
  <path class="cls-3" d="M659.6,89.08c-.19.11-.32.18-.45.25-3.01,1.68-6.22,2.68-9.66,2.97-12.78,1.06-23.24-8.07-25.58-18.97-.37-1.73-.56-3.47-.56-5.24,0-5.43,0-10.86,0-16.3,0-1.58.4-3.05,1.43-4.28,1.52-1.83,3.49-2.5,5.78-2.02,2.33.49,3.74,2.05,4.38,4.29.19.66.26,1.38.26,2.08.02,5.43,0,10.86.02,16.3,0,3.44,1.2,6.41,3.68,8.81,2.18,2.11,4.81,3.27,7.85,3.41,3.18.15,6.06-.69,8.53-2.75,2.33-1.95,3.71-4.45,4.13-7.45.12-.87.17-1.76.17-2.64.01-5.26,0-10.52,0-15.78,0-1.51.37-2.9,1.3-4.11,1.43-1.85,3.35-2.58,5.63-2.23,2.32.36,3.84,1.78,4.61,3.96.25.7.38,1.47.38,2.21.02,13.33.07,26.65,0,39.98-.04,7.18-2.92,13.15-8.27,17.91-3.31,2.95-7.16,4.86-11.54,5.6-7.09,1.2-13.53-.35-19.17-4.84-4.69-3.73-7.59-8.6-8.73-14.5-.18-.94-.33-1.89-.37-2.84-.14-3.57,2.41-5.68,4.88-6.01,2.28-.3,4.06.5,5.3,2.47.62.98.93,2.06,1.17,3.18,1.05,4.93,3.72,8.6,8.58,10.28,4.12,1.43,8.07.83,11.59-1.81,2.55-1.91,3.99-4.53,4.48-7.68.22-1.4.17-2.8.17-4.27Z"/>
</svg>