<?xml version="1.0" encoding="UTF-8"?>
<svg id="katman_1" data-name="katman 1" xmlns="http://www.w3.org/2000/svg" version="1.1" viewBox="0 0 1666.7 1749.9">
  <path d="M1492.6,273.7h100.7v-42.6h-100.7v42.6Z" fill="none" stroke="#ebebeb" stroke-miterlimit="10" stroke-width=".8"/>
  <path d="M1548.8,220.1h100.7v-42.6h-100.7v42.6Z" fill="none" stroke="#ebebeb" stroke-miterlimit="10" stroke-width=".8"/>
  <path d="M856.3,692.5h100.7v-42.6h-100.7v42.6Z" fill="none" stroke="#ebebeb" stroke-miterlimit="10" stroke-width=".8"/>
  <path d="M912.6,638.9h100.7v-42.6h-100.7v42.6Z" fill="none" stroke="#ebebeb" stroke-miterlimit="10" stroke-width=".8"/>
  <path d="M968.4,692.5h100.7v-42.6h-100.7v42.6Z" fill="none" stroke="#ebebeb" stroke-miterlimit="10" stroke-width=".8"/>
  <path d="M63.1,220.1h100.7v-42.6H63.1s0,42.6,0,42.6Z" fill="none" stroke="#ebebeb" stroke-miterlimit="10" stroke-width=".8"/>
  <path d="M119.3,1220.1h100.7v-42.6h-100.7v42.6Z" fill="none" stroke="#ebebeb" stroke-miterlimit="10" stroke-width=".8"/>
  <path d="M63.1,1166.5h100.7v-42.6H63.1s0,42.6,0,42.6Z" fill="none" stroke="#ebebeb" stroke-miterlimit="10" stroke-width=".8"/>
  <path d="M1492.6,1220.1h100.7v-42.6h-100.7v42.6Z" fill="none" stroke="#ebebeb" stroke-miterlimit="10" stroke-width=".8"/>
  <path d="M699.7,1602v-477.8l101.5-138.7v-259.6" fill="none" stroke="#ebebeb" stroke-miterlimit="10"/>
  <path d="M792.5,717.2c0,1.9.4,3.4,1.5,4.9,1.1,1.5,2.3,2.7,4.2,3.4,1.5.8,3.4.8,5.3.4,1.9,0,3.4-1.1,4.6-2.7,1.1-1.1,2.3-3,2.3-4.6s0-3.4-.4-5.3c-.8-1.5-1.9-3-3.4-4.2-1.5-1.1-3.4-1.5-4.9-1.5s-2.3,0-3.4.8c-1.1.4-2.3,1.1-3,1.9-.8.8-1.5,1.9-1.9,3s-.8,2.3-.8,3.4v.4Z" fill="none" stroke="#ebebeb" stroke-miterlimit="10"/>
  <path d="M726,1602v-460.7l101.5-138.7v-181.3" fill="none" stroke="#ebebeb" stroke-miterlimit="10"/>
  <path d="M818.7,812.2c0,1.9.4,3.4,1.5,4.9,1.1,1.5,2.3,2.7,4.2,3.4,1.5.8,3.4.8,5.3.4,1.9,0,3.4-1.1,4.6-2.3,1.1-1.1,2.3-3,2.7-4.6,0-1.9,0-3.4-.4-5.3-.8-1.5-1.9-3-3.4-4.2-1.5-1.1-3.4-1.5-4.9-1.5s-4.6.8-6.5,2.7c-1.5,1.5-2.7,3.8-2.7,6.5h-.4Z" fill="none" stroke="#ebebeb" stroke-miterlimit="10"/>
  <path d="M674.6,1602v-632.5" fill="none" stroke="#ebebeb" stroke-miterlimit="10"/>
  <path d="M665.5,960.8c0,1.9.4,3.4,1.5,4.9,1.1,1.5,2.3,2.7,4.2,3.4,1.5.8,3.4.8,5.3.4,1.9,0,3.4-1.1,4.6-2.3,1.1-1.1,2.3-3,2.7-4.6,0-1.9,0-3.4-.4-5.3-.8-1.5-1.9-3-3.4-4.2-1.5-1.1-3.4-1.5-4.9-1.5s-4.6.8-6.5,2.7c-1.5,1.5-2.7,3.8-2.7,6.5h-.4Z" fill="none" stroke="#ebebeb" stroke-miterlimit="10"/>
  <path d="M650.3,1602v-321.5l-68.8-130v-233.4" fill="none" stroke="#ebebeb" stroke-miterlimit="10"/>
  <path d="M572.4,908.4c0,1.9.4,3.4,1.5,4.9,1.1,1.5,2.3,2.7,4.2,3.4,1.5.8,3.4.8,5.3.4,1.9,0,3.4-1.1,4.6-2.7,1.1-1.5,2.3-3,2.7-4.6,0-1.9,0-3.4-.4-5.3-.8-1.5-1.9-3-3.4-4.2-1.5-1.1-3.4-1.5-4.9-1.5s-2.3,0-3.4.8c-1.1.4-2.3,1.1-3,1.9-.8.8-1.5,1.9-1.9,3-.4,1.1-.8,2.3-.8,3.4l-.4.4Z" fill="none" stroke="#ebebeb" stroke-miterlimit="10"/>
  <path d="M626,1602v-307.5l-81.3-143.7v-153.6" fill="none" stroke="#ebebeb" stroke-miterlimit="10"/>
  <path d="M535.9,988.2c0,1.9.4,3.4,1.5,4.9,1.1,1.5,2.3,2.7,4.2,3.4,1.5.8,3.4.8,5.3.4,1.9,0,3.4-1.1,4.6-2.3,1.1-1.1,2.3-3,2.7-4.6,0-1.9,0-3.4-.4-5.3-.8-1.5-1.9-3-3.4-4.2-1.5-1.1-3.4-1.5-4.9-1.5-2.3,0-4.6,1.1-6.5,2.7-1.5,1.5-2.7,3.8-2.7,6.5h-.4Z" fill="none" stroke="#ebebeb" stroke-miterlimit="10"/>
  <path d="M326.9,142.9V0" fill="none" stroke="#c7c7c7" stroke-miterlimit="10"/>
  <path d="M415,227.7l-7.2,15.6h-162.3l-7.2-15.6,69.2-47.9h38.4l69.2,47.9h0Z" fill="#ebebeb" stroke-width="0"/>
  <path d="M350.8,133.8l-4.9,46h-38.4l-4.9-46h48.3Z" fill="#dbdbdb" stroke-width="0"/>
  <path d="M415,227.7l-7.2,15.6h-162.3l-7.2-15.6h176.7Z" fill="#dbdbdb" stroke-width="0"/>
  <path d="M680,142.9V0" fill="none" stroke="#c7c7c7" stroke-miterlimit="10"/>
  <path d="M768.1,227.7l-7.2,15.6h-162.3l-7.2-15.6,69.2-47.9h38.4l69.2,47.9h0Z" fill="#ebebeb" stroke-width="0"/>
  <path d="M703.9,133.8l-4.9,46h-38.4l-4.9-46h48.3Z" fill="#dbdbdb" stroke-width="0"/>
  <path d="M768.1,227.7l-7.2,15.6h-162.3l-7.2-15.6h176.7Z" fill="#dbdbdb" stroke-width="0"/>
  <path d="M1032.7,142.9V0" fill="none" stroke="#c7c7c7" stroke-miterlimit="10"/>
  <path d="M1120.9,227.7l-7.2,15.6h-162.3l-7.2-15.6,69.2-47.9h38.4l69.2,47.9h0Z" fill="#ebebeb" stroke-width="0"/>
  <path d="M1056.6,133.8l-4.9,46h-38.4l-4.9-46h48.3Z" fill="#dbdbdb" stroke-width="0"/>
  <path d="M1120.9,227.7l-7.2,15.6h-162.3l-7.2-15.6h176.7Z" fill="#dbdbdb" stroke-width="0"/>
  <path d="M1385.8,142.9V0" fill="none" stroke="#c7c7c7" stroke-miterlimit="10"/>
  <path d="M1473.9,227.7l-7.2,15.6h-162.3l-7.2-15.6,69.2-47.9h38.4l69.2,47.9h0Z" fill="#ebebeb" stroke-width="0"/>
  <path d="M1409.7,133.8l-4.9,46h-38.4l-4.9-46h48.3Z" fill="#dbdbdb" stroke-width="0"/>
  <path d="M1473.9,227.7l-7.2,15.6h-162.3l-7.2-15.6h176.7Z" fill="#dbdbdb" stroke-width="0"/>
  <path d="M604.7,1749.9c223.5,0,404.4-28.9,404.4-64.6s-180.9-64.6-404.4-64.6-404.4,28.9-404.4,64.6,180.9,64.6,404.4,64.6h0Z" fill="#ebebeb" stroke-width="0"/>
  <path d="M1169.5,670.5h-247.1v932h247.1v-932h0Z" fill="#37474f" stroke-width="0"/>
  <path d="M1624.1,670.5h-455v932h455v-932h0Z" fill="#455a64" stroke-width="0"/>
  <path d="M1596,1481.6h-392.2v90.5h392.2v-90.5h0Z" fill="#37474f" stroke-width="0"/>
  <path d="M1443.5,1496.4h-223.5v7.6h223.5v-7.6Z" fill="#455a64" stroke-width="0"/>
  <path d="M1443.5,1509.7h-223.5v7.6h223.5v-7.6Z" fill="#455a64" stroke-width="0"/>
  <path d="M1443.5,1523h-223.5v7.6h223.5v-7.6Z" fill="#455a64" stroke-width="0"/>
  <path d="M1443.5,1536.3h-223.5v7.6h223.5v-7.6Z" fill="#455a64" stroke-width="0"/>
  <path d="M1443.5,1549.6h-223.5v7.6h223.5v-7.6Z" fill="#455a64" stroke-width="0"/>
  <path d="M1484.2,1504c0,1.5-.4,3-1.1,4.2-.8,1.1-1.9,2.3-3.4,2.7-1.5.8-3,.8-4.6.4-1.5,0-2.7-1.1-3.8-1.9-1.1-.8-1.9-2.3-1.9-3.8s0-3,.4-4.6c.8-1.5,1.5-2.7,2.7-3.4,1.1-.8,2.7-1.1,4.2-1.1s3.8.8,5.3,2.3,2.3,3.4,2.3,5.3h0Z" fill="#4361ee" stroke-width="0"/>
  <path d="M1509.3,1504c0,1.5-.4,3-1.1,4.2-.8,1.1-1.9,2.3-3.4,2.7-1.5.8-3,.8-4.6.4-1.5,0-2.7-1.1-3.8-1.9-1.1-1.1-1.9-2.3-1.9-3.8s0-3,.4-4.6c.8-1.5,1.5-2.7,2.7-3.4,1.1-.8,2.7-1.1,4.2-1.1s3.8.8,5.3,2.3c1.5,1.5,2.3,3.4,2.3,5.3h0Z" fill="#4361ee" stroke-width="0"/>
  <path d="M1534,1504c0,1.5-.4,3-1.1,4.2-.8,1.1-1.9,2.3-3.4,2.7-1.5.8-3,.8-4.6.4-1.5,0-2.7-1.1-3.8-1.9-1.1-1.1-1.9-2.3-1.9-3.8s0-3,.4-4.6c.8-1.5,1.5-2.7,2.7-3.4,1.1-.8,2.7-1.1,4.2-1.1s3.8.8,5.3,2.3,2.3,3.4,2.3,5.3h0Z" fill="#4361ee" stroke-width="0"/>
  <path d="M1559.1,1504c0,1.5-.4,3-1.1,4.2-.8,1.1-1.9,2.3-3.4,2.7-1.5.8-3,.8-4.6.4-1.5,0-2.7-1.1-3.8-1.9-1.1-.8-1.9-2.3-1.9-3.8s0-3,.4-4.6c.8-1.5,1.5-2.7,2.7-3.4s2.7-1.1,4.2-1.1,3.8.8,5.3,2.3c1.5,1.5,2.3,3.4,2.3,5.3h0Z" fill="#4361ee" stroke-width="0"/>
  <path d="M1584.2,1504c0,1.5-.4,3-1.1,4.2-.8,1.1-1.9,2.3-3.4,2.7-1.5.8-3,.8-4.6.4-1.5,0-2.7-1.1-3.8-1.9-1.1-1.1-1.9-2.3-1.9-3.8s0-3,.4-4.6c.8-1.5,1.5-2.7,2.7-3.4,1.1-.8,2.7-1.1,4.2-1.1s3.8.8,5.3,2.3c1.5,1.5,2.3,3.4,2.3,5.3h0Z" fill="#4361ee" stroke-width="0"/>
  <path d="M1484.2,1526.8c0,1.5-.4,3-1.1,4.2-.8,1.1-1.9,2.3-3.4,2.7-1.5.8-3,.8-4.6.4-1.5,0-2.7-1.1-3.8-1.9-1.1-.8-1.9-2.3-1.9-3.8s0-3,.4-4.6c.8-1.5,1.5-2.7,2.7-3.4,1.1-.8,2.7-1.1,4.2-1.1s3.8.8,5.3,2.3c1.5,1.5,2.3,3.4,2.3,5.3h0Z" fill="#4361ee" stroke-width="0"/>
  <path d="M1509.3,1526.8c0,1.5-.4,3-1.1,4.2-.8,1.1-1.9,2.3-3.4,2.7-1.5.8-3,.8-4.6.4-1.5,0-2.7-1.1-3.8-1.9-1.1-1.1-1.9-2.3-1.9-3.8s0-3,.4-4.6c.8-1.5,1.5-2.7,2.7-3.4,1.1-.8,2.7-1.1,4.2-1.1s3.8.8,5.3,2.3c1.5,1.5,2.3,3.4,2.3,5.3h0Z" fill="#4361ee" stroke-width="0"/>
  <path d="M1534,1526.8c0,1.5-.4,3-1.1,4.2-.8,1.1-1.9,2.3-3.4,2.7-1.5.8-3,.8-4.6.4-1.5,0-2.7-1.1-3.8-1.9-1.1-1.1-1.9-2.3-1.9-3.8s0-3,.4-4.6c.8-1.5,1.5-2.7,2.7-3.4,1.1-.8,2.7-1.1,4.2-1.1s3.8.8,5.3,2.3c1.5,1.5,2.3,3.4,2.3,5.3h0Z" fill="#4361ee" stroke-width="0"/>
  <path d="M1559.1,1526.8c0,1.5-.4,3-1.1,4.2-.8,1.1-1.9,2.3-3.4,2.7-1.5.8-3,.8-4.6.4-1.5,0-2.7-1.1-3.8-1.9-1.1-.8-1.9-2.3-1.9-3.8s0-3,.4-4.6c.8-1.5,1.5-2.7,2.7-3.4,1.1-.8,2.7-1.1,4.2-1.1s3.8.8,5.3,2.3c1.5,1.5,2.3,3.4,2.3,5.3h0Z" fill="#4361ee" stroke-width="0"/>
  <path d="M1584.2,1526.8c0,1.5-.4,3-1.1,4.2-.8,1.1-1.9,2.3-3.4,2.7-1.5.8-3,.8-4.6.4-1.5,0-2.7-1.1-3.8-1.9-1.1-1.1-1.9-2.3-1.9-3.8s0-3,.4-4.6c.8-1.5,1.5-2.7,2.7-3.4,1.1-.8,2.7-1.1,4.2-1.1s3.8.8,5.3,2.3c1.5,1.5,2.3,3.4,2.3,5.3h0Z" fill="#4361ee" stroke-width="0"/>
  <path d="M1476.6,1557.2c4.2,0,7.6-3.4,7.6-7.6s-3.4-7.6-7.6-7.6-7.6,3.4-7.6,7.6,3.4,7.6,7.6,7.6Z" fill="#4361ee" stroke-width="0"/>
  <path d="M1509.3,1549.6c0,1.5-.4,3-1.1,4.2-.8,1.1-1.9,2.3-3.4,2.7-1.5.8-3,.8-4.6.4-1.5-.4-2.7-1.1-3.8-1.9-1.1-1.1-1.9-2.3-1.9-3.8s0-3,.4-4.6c.8-1.5,1.5-2.7,2.7-3.4,1.1-.8,2.7-1.1,4.2-1.1s3.8.8,5.3,2.3,2.3,3.4,2.3,5.3h0Z" fill="#4361ee" stroke-width="0"/>
  <path d="M1526.4,1557.2c4.2,0,7.6-3.4,7.6-7.6s-3.4-7.6-7.6-7.6-7.6,3.4-7.6,7.6,3.4,7.6,7.6,7.6Z" fill="#4361ee" stroke-width="0"/>
  <path d="M1559.1,1549.6c0,1.5-.4,3-1.1,4.2-.8,1.1-1.9,2.3-3.4,2.7-1.5.8-3,.8-4.6.4-1.5-.4-2.7-1.1-3.8-1.9-1.1-.8-1.9-2.3-1.9-3.8s0-3,.4-4.6c.8-1.5,1.5-2.7,2.7-3.4,1.1-.8,2.7-1.1,4.2-1.1s3.8.8,5.3,2.3c1.5,1.5,2.3,3.4,2.3,5.3h0Z" fill="#4361ee" stroke-width="0"/>
  <path d="M1584.2,1549.6c0,1.5-.4,3-1.1,4.2-.8,1.1-1.9,2.3-3.4,2.7-1.5.8-3,.8-4.6.4-1.5-.4-2.7-1.1-3.8-1.9-1.1-1.1-1.9-2.3-1.9-3.8s0-3,.4-4.6c.8-1.5,1.5-2.7,2.7-3.4,1.1-.8,2.7-1.1,4.2-1.1s3.8.8,5.3,2.3c1.5,1.5,2.3,3.4,2.3,5.3h0Z" fill="#4361ee" stroke-width="0"/>
  <path d="M1458.7,1496.4h-4.2v60.8h4.2v-60.8Z" fill="#263238" stroke-width="0"/>
  <path d="M1596,1372.5h-392.2v90.5h392.2v-90.5h0Z" fill="#37474f" stroke-width="0"/>
  <path d="M1443.5,1387.3h-223.5v7.6h223.5v-7.6Z" fill="#455a64" stroke-width="0"/>
  <path d="M1443.5,1400.6h-223.5v7.6h223.5v-7.6Z" fill="#455a64" stroke-width="0"/>
  <path d="M1443.5,1413.9h-223.5v7.6h223.5v-7.6Z" fill="#455a64" stroke-width="0"/>
  <path d="M1443.5,1427.2h-223.5v7.6h223.5v-7.6Z" fill="#455a64" stroke-width="0"/>
  <path d="M1443.5,1440.5h-223.5v7.6h223.5v-7.6Z" fill="#455a64" stroke-width="0"/>
  <path d="M1484.2,1394.9c0,1.5-.4,3-1.1,4.2-.8,1.1-1.9,2.3-3.4,2.7-1.5.8-3,.8-4.6.4-1.5,0-2.7-1.1-3.8-1.9-1.1-1.1-1.9-2.3-1.9-3.8s0-3,.4-4.6c.8-1.5,1.5-2.7,2.7-3.4,1.1-.8,2.7-1.1,4.2-1.1s3.8.8,5.3,2.3c1.5,1.5,2.3,3.4,2.3,5.3h0Z" fill="#4361ee" stroke-width="0"/>
  <path d="M1509.3,1394.9c0,1.5-.4,3-1.1,4.2-.8,1.1-1.9,2.3-3.4,2.7-1.5.8-3,.8-4.6.4-1.5,0-2.7-1.1-3.8-1.9-1.1-1.1-1.9-2.3-1.9-3.8s0-3,.4-4.6c.8-1.5,1.5-2.7,2.7-3.4,1.1-.8,2.7-1.1,4.2-1.1s3.8.8,5.3,2.3c1.5,1.5,2.3,3.4,2.3,5.3h0Z" fill="#4361ee" stroke-width="0"/>
  <path d="M1534,1394.9c0,1.5-.4,3-1.1,4.2-.8,1.1-1.9,2.3-3.4,2.7-1.5.8-3,.8-4.6.4-1.5,0-2.7-1.1-3.8-1.9-1.1-1.1-1.9-2.3-1.9-3.8s0-3,.4-4.6c.8-1.5,1.5-2.7,2.7-3.4,1.1-.8,2.7-1.1,4.2-1.1s3.8.8,5.3,2.3c1.5,1.5,2.3,3.4,2.3,5.3h0Z" fill="#4361ee" stroke-width="0"/>
  <path d="M1559.1,1394.9c0,1.5-.4,3-1.1,4.2-.8,1.1-1.9,2.3-3.4,2.7-1.5.8-3,.8-4.6.4-1.5,0-2.7-1.1-3.8-1.9-1.1-1.1-1.9-2.3-1.9-3.8s0-3,.4-4.6c.8-1.5,1.5-2.7,2.7-3.4,1.1-.8,2.7-1.1,4.2-1.1s3.8.8,5.3,2.3,2.3,3.4,2.3,5.3h0Z" fill="#4361ee" stroke-width="0"/>
  <path d="M1584.2,1394.9c0,1.5-.4,3-1.1,4.2-.8,1.1-1.9,2.3-3.4,2.7-1.5.8-3,.8-4.6.4-1.5,0-2.7-1.1-3.8-1.9-1.1-1.1-1.9-2.3-1.9-3.8s0-3,.4-4.6c.8-1.5,1.5-2.7,2.7-3.4,1.1-.8,2.7-1.1,4.2-1.1s3.8.8,5.3,2.3c1.5,1.5,2.3,3.4,2.3,5.3h0Z" fill="#4361ee" stroke-width="0"/>
  <path d="M1484.2,1417.7c0,1.5-.4,3-1.1,4.2-.8,1.1-1.9,2.3-3.4,2.7-1.5.8-3,.8-4.6.4-1.5,0-2.7-1.1-3.8-1.9-1.1-1.1-1.9-2.3-1.9-3.8s0-3,.4-4.6c.8-1.5,1.5-2.7,2.7-3.4,1.1-.8,2.7-1.1,4.2-1.1s3.8.8,5.3,2.3,2.3,3.4,2.3,5.3h0Z" fill="#4361ee" stroke-width="0"/>
  <path d="M1509.3,1417.7c0,1.5-.4,3-1.1,4.2-.8,1.1-1.9,2.3-3.4,2.7-1.5.8-3,.8-4.6.4-1.5,0-2.7-1.1-3.8-1.9-1.1-1.1-1.9-2.3-1.9-3.8s0-3,.4-4.6c.8-1.5,1.5-2.7,2.7-3.4,1.1-.8,2.7-1.1,4.2-1.1s3.8.8,5.3,2.3c1.5,1.5,2.3,3.4,2.3,5.3h0Z" fill="#4361ee" stroke-width="0"/>
  <path d="M1534,1417.7c0,1.5-.4,3-1.1,4.2-.8,1.1-1.9,2.3-3.4,2.7-1.5.8-3,.8-4.6.4-1.5,0-2.7-1.1-3.8-1.9-1.1-1.1-1.9-2.3-1.9-3.8s0-3,.4-4.6c.8-1.5,1.5-2.7,2.7-3.4,1.1-.8,2.7-1.1,4.2-1.1s3.8.8,5.3,2.3,2.3,3.4,2.3,5.3h0Z" fill="#4361ee" stroke-width="0"/>
  <path d="M1559.1,1417.7c0,1.5-.4,3-1.1,4.2-.8,1.1-1.9,2.3-3.4,2.7-1.5.8-3,.8-4.6.4-1.5,0-2.7-1.1-3.8-1.9-1.1-1.1-1.9-2.3-1.9-3.8s0-3,.4-4.6c.8-1.5,1.5-2.7,2.7-3.4,1.1-.8,2.7-1.1,4.2-1.1s3.8.8,5.3,2.3c1.5,1.5,2.3,3.4,2.3,5.3h0Z" fill="#4361ee" stroke-width="0"/>
  <path d="M1584.2,1417.7c0,1.5-.4,3-1.1,4.2-.8,1.1-1.9,2.3-3.4,2.7-1.5.8-3,.8-4.6.4-1.5,0-2.7-1.1-3.8-1.9-1.1-1.1-1.9-2.3-1.9-3.8s0-3,.4-4.6c.8-1.5,1.5-2.7,2.7-3.4,1.1-.8,2.7-1.1,4.2-1.1s3.8.8,5.3,2.3c1.5,1.5,2.3,3.4,2.3,5.3h0Z" fill="#4361ee" stroke-width="0"/>
  <path d="M1484.2,1440.5c0,1.5-.4,3-1.1,4.2-.8,1.1-1.9,2.3-3.4,2.7-1.5.8-3,.8-4.6.4-1.5,0-2.7-1.1-3.8-1.9-1.1-1.1-1.9-2.3-1.9-3.8s0-3,.4-4.6c.8-1.5,1.5-2.7,2.7-3.4,1.1-.8,2.7-1.1,4.2-1.1s3.8.8,5.3,2.3c1.5,1.5,2.3,3.4,2.3,5.3h0Z" fill="#4361ee" stroke-width="0"/>
  <path d="M1509.3,1440.5c0,1.5-.4,3-1.1,4.2-.8,1.1-1.9,2.3-3.4,2.7-1.5.8-3,.8-4.6.4-1.5,0-2.7-1.1-3.8-1.9-1.1-1.1-1.9-2.3-1.9-3.8s0-3,.4-4.6c.8-1.5,1.5-2.7,2.7-3.4,1.1-.8,2.7-1.1,4.2-1.1s3.8.8,5.3,2.3c1.5,1.5,2.3,3.4,2.3,5.3h0Z" fill="#4361ee" stroke-width="0"/>
  <path d="M1534,1440.5c0,1.5-.4,3-1.1,4.2-.8,1.1-1.9,2.3-3.4,2.7-1.5.8-3,.8-4.6.4-1.5,0-2.7-1.1-3.8-1.9-1.1-1.1-1.9-2.3-1.9-3.8s0-3,.4-4.6c.8-1.5,1.5-2.7,2.7-3.4,1.1-.8,2.7-1.1,4.2-1.1s3.8.8,5.3,2.3c1.5,1.5,2.3,3.4,2.3,5.3h0Z" fill="#4361ee" stroke-width="0"/>
  <path d="M1559.1,1440.5c0,1.5-.4,3-1.1,4.2-.8,1.1-1.9,2.3-3.4,2.7-1.5.8-3,.8-4.6.4-1.5,0-2.7-1.1-3.8-1.9-1.1-1.1-1.9-2.3-1.9-3.8s0-3,.4-4.6c.8-1.5,1.5-2.7,2.7-3.4,1.1-.8,2.7-1.1,4.2-1.1s3.8.8,5.3,2.3c1.5,1.5,2.3,3.4,2.3,5.3h0Z" fill="#4361ee" stroke-width="0"/>
  <path d="M1584.2,1440.5c0,1.5-.4,3-1.1,4.2-.8,1.1-1.9,2.3-3.4,2.7-1.5.8-3,.8-4.6.4-1.5,0-2.7-1.1-3.8-1.9-1.1-1.1-1.9-2.3-1.9-3.8s0-3,.4-4.6c.8-1.5,1.5-2.7,2.7-3.4,1.1-.8,2.7-1.1,4.2-1.1s3.8.8,5.3,2.3,2.3,3.4,2.3,5.3h0Z" fill="#4361ee" stroke-width="0"/>
  <path d="M1458.7,1387.3h-4.2v60.8h4.2v-60.8Z" fill="#263238" stroke-width="0"/>
  <path d="M1596,1263h-392.2v90.5h392.2v-90.5h0Z" fill="#37474f" stroke-width="0"/>
  <path d="M1443.5,1278.2h-223.5v7.6h223.5v-7.6Z" fill="#455a64" stroke-width="0"/>
  <path d="M1443.5,1291.5h-223.5v7.6h223.5v-7.6Z" fill="#455a64" stroke-width="0"/>
  <path d="M1443.5,1304.8h-223.5v7.6h223.5v-7.6Z" fill="#455a64" stroke-width="0"/>
  <path d="M1443.5,1317.7h-223.5v7.6h223.5v-7.6Z" fill="#455a64" stroke-width="0"/>
  <path d="M1443.5,1331h-223.5v7.6h223.5v-7.6Z" fill="#455a64" stroke-width="0"/>
  <path d="M1476.6,1293.4c4.2,0,7.6-3.4,7.6-7.6s-3.4-7.6-7.6-7.6-7.6,3.4-7.6,7.6,3.4,7.6,7.6,7.6Z" fill="#4361ee" stroke-width="0"/>
  <path d="M1509.3,1285.8c0,1.5-.4,3-1.1,4.2-.8,1.1-1.9,2.3-3.4,2.7-1.5.8-3,.8-4.6.4-1.5,0-2.7-1.1-3.8-1.9-1.1-1.1-1.9-2.3-1.9-3.8s0-3,.4-4.6c.8-1.5,1.5-2.7,2.7-3.4,1.1-.8,2.7-1.1,4.2-1.1s3.8.8,5.3,2.3c1.5,1.5,2.3,3.4,2.3,5.3h0Z" fill="#4361ee" stroke-width="0"/>
  <path d="M1526.4,1293.4c4.2,0,7.6-3.4,7.6-7.6s-3.4-7.6-7.6-7.6-7.6,3.4-7.6,7.6,3.4,7.6,7.6,7.6Z" fill="#4361ee" stroke-width="0"/>
  <path d="M1559.1,1285.8c0,1.5-.4,3-1.1,4.2-.8,1.1-1.9,2.3-3.4,2.7-1.5.8-3,.8-4.6.4-1.5,0-2.7-1.1-3.8-1.9-1.1-1.1-1.9-2.3-1.9-3.8s0-3,.4-4.6c.8-1.5,1.5-2.7,2.7-3.4,1.1-.8,2.7-1.1,4.2-1.1s3.8.8,5.3,2.3c1.5,1.5,2.3,3.4,2.3,5.3h0Z" fill="#4361ee" stroke-width="0"/>
  <path d="M1584.2,1285.8c0,1.5-.4,3-1.1,4.2-.8,1.1-1.9,2.3-3.4,2.7-1.5.8-3,.8-4.6.4-1.5,0-2.7-1.1-3.8-1.9-1.1-1.1-1.9-2.3-1.9-3.8s0-3,.4-4.6c.8-1.5,1.5-2.7,2.7-3.4,1.1-.8,2.7-1.1,4.2-1.1s3.8.8,5.3,2.3c1.5,1.5,2.3,3.4,2.3,5.3h0Z" fill="#4361ee" stroke-width="0"/>
  <path d="M1484.2,1308.6c0,1.5-.4,3-1.1,4.2-.8,1.1-1.9,2.3-3.4,2.7-1.5.8-3,.8-4.6.4-1.5-.4-2.7-1.1-3.8-1.9-1.1-.8-1.9-2.3-1.9-3.8s0-3,.4-4.6c.8-1.5,1.5-2.7,2.7-3.4,1.1-.8,2.7-1.1,4.2-1.1s3.8.8,5.3,2.3c1.5,1.5,2.3,3.4,2.3,5.3h0Z" fill="#4361ee" stroke-width="0"/>
  <path d="M1509.3,1308.6c0,1.5-.4,3-1.1,4.2-.8,1.1-1.9,2.3-3.4,2.7-1.5.8-3,.8-4.6.4-1.5-.4-2.7-1.1-3.8-1.9-1.1-1.1-1.9-2.3-1.9-3.8s0-3,.4-4.6c.8-1.5,1.5-2.7,2.7-3.4,1.1-.8,2.7-1.1,4.2-1.1s3.8.8,5.3,2.3,2.3,3.4,2.3,5.3h0Z" fill="#4361ee" stroke-width="0"/>
  <path d="M1534,1308.6c0,1.5-.4,3-1.1,4.2-.8,1.1-1.9,2.3-3.4,2.7-1.5.8-3,.8-4.6.4-1.5-.4-2.7-1.1-3.8-1.9-1.1-1.1-1.9-2.3-1.9-3.8s0-3,.4-4.6c.8-1.5,1.5-2.7,2.7-3.4,1.1-.8,2.7-1.1,4.2-1.1s3.8.8,5.3,2.3c1.5,1.5,2.3,3.4,2.3,5.3h0Z" fill="#4361ee" stroke-width="0"/>
  <path d="M1559.1,1308.6c0,1.5-.4,3-1.1,4.2-.8,1.1-1.9,2.3-3.4,2.7-1.5.8-3,.8-4.6.4-1.5-.4-2.7-1.1-3.8-1.9-1.1-.8-1.9-2.3-1.9-3.8s0-3,.4-4.6c.8-1.5,1.5-2.7,2.7-3.4,1.1-.8,2.7-1.1,4.2-1.1s3.8.8,5.3,2.3c1.5,1.5,2.3,3.4,2.3,5.3h0Z" fill="#4361ee" stroke-width="0"/>
  <path d="M1584.2,1308.6c0,1.5-.4,3-1.1,4.2-.8,1.1-1.9,2.3-3.4,2.7-1.5.8-3,.8-4.6.4-1.5-.4-2.7-1.1-3.8-1.9-1.1-1.1-1.9-2.3-1.9-3.8s0-3,.4-4.6c.8-1.5,1.5-2.7,2.7-3.4,1.1-.8,2.7-1.1,4.2-1.1s3.8.8,5.3,2.3c1.5,1.5,2.3,3.4,2.3,5.3h0Z" fill="#4361ee" stroke-width="0"/>
  <path d="M1484.2,1331c0,1.5-.4,3-1.1,4.2-.8,1.1-1.9,2.3-3.4,2.7-1.5.8-3,.8-4.6.4-1.5,0-2.7-1.1-3.8-1.9-1.1-.8-1.9-2.3-1.9-3.8s0-3,.4-4.6c.8-1.5,1.5-2.7,2.7-3.4,1.1-.8,2.7-1.1,4.2-1.1s3.8.8,5.3,2.3c1.5,1.5,2.3,3.4,2.3,5.3h0Z" fill="#4361ee" stroke-width="0"/>
  <path d="M1509.3,1331c0,1.5-.4,3-1.1,4.2-.8,1.1-1.9,2.3-3.4,2.7-1.5.8-3,.8-4.6.4-1.5,0-2.7-1.1-3.8-1.9-1.1-1.1-1.9-2.3-1.9-3.8s0-3,.4-4.6c.8-1.5,1.5-2.7,2.7-3.4,1.1-.8,2.7-1.1,4.2-1.1s3.8.8,5.3,2.3,2.3,3.4,2.3,5.3h0Z" fill="#4361ee" stroke-width="0"/>
  <path d="M1534,1331c0,1.5-.4,3-1.1,4.2-.8,1.1-1.9,2.3-3.4,2.7-1.5.8-3,.8-4.6.4-1.5,0-2.7-1.1-3.8-1.9-1.1-1.1-1.9-2.3-1.9-3.8s0-3,.4-4.6c.8-1.5,1.5-2.7,2.7-3.4,1.1-.8,2.7-1.1,4.2-1.1s3.8.8,5.3,2.3c1.5,1.5,2.3,3.4,2.3,5.3h0Z" fill="#4361ee" stroke-width="0"/>
  <path d="M1559.1,1331c0,1.5-.4,3-1.1,4.2-.8,1.1-1.9,2.3-3.4,2.7-1.5.8-3,.8-4.6.4-1.5,0-2.7-1.1-3.8-1.9-1.1-.8-1.9-2.3-1.9-3.8s0-3,.4-4.6c.8-1.5,1.5-2.7,2.7-3.4,1.1-.8,2.7-1.1,4.2-1.1s3.8.8,5.3,2.3c1.5,1.5,2.3,3.4,2.3,5.3h0Z" fill="#4361ee" stroke-width="0"/>
  <path d="M1584.2,1331c0,1.5-.4,3-1.1,4.2-.8,1.1-1.9,2.3-3.4,2.7-1.5.8-3,.8-4.6.4-1.5,0-2.7-1.1-3.8-1.9-1.1-1.1-1.9-2.3-1.9-3.8s0-3,.4-4.6c.8-1.5,1.5-2.7,2.7-3.4,1.1-.8,2.7-1.1,4.2-1.1s3.8.8,5.3,2.3c1.5,1.5,2.3,3.4,2.3,5.3h0Z" fill="#4361ee" stroke-width="0"/>
  <path d="M1458.7,1278.2h-4.2v60.8h4.2v-60.8Z" fill="#263238" stroke-width="0"/>
  <path d="M1596,1153.9h-392.2v90.5h392.2v-90.5h0Z" fill="#37474f" stroke-width="0"/>
  <path d="M1443.5,1168.7h-223.5v7.6h223.5v-7.6Z" fill="#455a64" stroke-width="0"/>
  <path d="M1443.5,1182h-223.5v7.6h223.5v-7.6Z" fill="#455a64" stroke-width="0"/>
  <path d="M1443.5,1195.4h-223.5v7.6h223.5v-7.6Z" fill="#455a64" stroke-width="0"/>
  <path d="M1443.5,1208.7h-223.5v7.6h223.5v-7.6Z" fill="#455a64" stroke-width="0"/>
  <path d="M1443.5,1222h-223.5v7.6h223.5v-7.6Z" fill="#455a64" stroke-width="0"/>
  <path d="M1484.2,1176.3c0,1.5-.4,3-1.1,4.2-.8,1.1-1.9,2.3-3.4,2.7-1.5.8-3,.8-4.6.4-1.5,0-2.7-1.1-3.8-1.9-1.1-1.1-1.9-2.3-1.9-3.8s0-3,.4-4.6c.8-1.5,1.5-2.7,2.7-3.4,1.1-.8,2.7-1.1,4.2-1.1s3.8.8,5.3,2.3c1.5,1.5,2.3,3.4,2.3,5.3h0Z" fill="#4361ee" stroke-width="0"/>
  <path d="M1509.3,1176.3c0,1.5-.4,3-1.1,4.2-.8,1.1-1.9,2.3-3.4,2.7-1.5.8-3,.8-4.6.4-1.5,0-2.7-1.1-3.8-1.9-1.1-1.1-1.9-2.3-1.9-3.8s0-3,.4-4.6c.8-1.5,1.5-2.7,2.7-3.4,1.1-.8,2.7-1.1,4.2-1.1s3.8.8,5.3,2.3c1.5,1.5,2.3,3.4,2.3,5.3h0Z" fill="#4361ee" stroke-width="0"/>
  <path d="M1534,1176.3c0,1.5-.4,3-1.1,4.2s-1.9,2.3-3.4,2.7c-1.5.8-3,.8-4.6.4-1.5,0-2.7-1.1-3.8-1.9-1.1-1.1-1.9-2.3-1.9-3.8s0-3,.4-4.6c.8-1.5,1.5-2.7,2.7-3.4,1.1-.8,2.7-1.1,4.2-1.1s3.8.8,5.3,2.3c1.5,1.5,2.3,3.4,2.3,5.3h0Z" fill="#4361ee" stroke-width="0"/>
  <path d="M1559.1,1176.3c0,1.5-.4,3-1.1,4.2-.8,1.1-1.9,2.3-3.4,2.7-1.5.8-3,.8-4.6.4-1.5,0-2.7-1.1-3.8-1.9-1.1-1.1-1.9-2.3-1.9-3.8s0-3,.4-4.6c.8-1.5,1.5-2.7,2.7-3.4,1.1-.8,2.7-1.1,4.2-1.1s3.8.8,5.3,2.3c1.5,1.5,2.3,3.4,2.3,5.3h0Z" fill="#4361ee" stroke-width="0"/>
  <path d="M1584.2,1176.3c0,1.5-.4,3-1.1,4.2-.8,1.1-1.9,2.3-3.4,2.7-1.5.8-3,.8-4.6.4-1.5,0-2.7-1.1-3.8-1.9-1.1-1.1-1.9-2.3-1.9-3.8s0-3,.4-4.6c.8-1.5,1.5-2.7,2.7-3.4,1.1-.8,2.7-1.1,4.2-1.1s3.8.8,5.3,2.3,2.3,3.4,2.3,5.3h0Z" fill="#4361ee" stroke-width="0"/>
  <path d="M1476.6,1206.8c4.2,0,7.6-3.4,7.6-7.6s-3.4-7.6-7.6-7.6-7.6,3.4-7.6,7.6,3.4,7.6,7.6,7.6Z" fill="#4361ee" stroke-width="0"/>
  <path d="M1509.3,1199.2c0,1.5-.4,3-1.1,4.2-.8,1.1-1.9,2.3-3.4,2.7-1.5.8-3,.8-4.6.4-1.5,0-2.7-1.1-3.8-1.9-1.1-1.1-1.9-2.3-1.9-3.8s0-3,.4-4.6c.8-1.5,1.5-2.7,2.7-3.4,1.1-.8,2.7-1.1,4.2-1.1s3.8.8,5.3,2.3c1.5,1.5,2.3,3.4,2.3,5.3h0Z" fill="#4361ee" stroke-width="0"/>
  <path d="M1526.4,1206.8c4.2,0,7.6-3.4,7.6-7.6s-3.4-7.6-7.6-7.6-7.6,3.4-7.6,7.6,3.4,7.6,7.6,7.6Z" fill="#4361ee" stroke-width="0"/>
  <path d="M1559.1,1199.2c0,1.5-.4,3-1.1,4.2-.8,1.1-1.9,2.3-3.4,2.7-1.5.8-3,.8-4.6.4-1.5,0-2.7-1.1-3.8-1.9-1.1-.8-1.9-2.3-1.9-3.8s0-3,.4-4.6c.8-1.5,1.5-2.7,2.7-3.4,1.1-.8,2.7-1.1,4.2-1.1s3.8.8,5.3,2.3c1.5,1.5,2.3,3.4,2.3,5.3h0Z" fill="#4361ee" stroke-width="0"/>
  <path d="M1584.2,1199.2c0,1.5-.4,3-1.1,4.2-.8,1.1-1.9,2.3-3.4,2.7-1.5.8-3,.8-4.6.4-1.5,0-2.7-1.1-3.8-1.9-1.1-1.1-1.9-2.3-1.9-3.8s0-3,.4-4.6c.8-1.5,1.5-2.7,2.7-3.4,1.1-.8,2.7-1.1,4.2-1.1s3.8.8,5.3,2.3c1.5,1.5,2.3,3.4,2.3,5.3h0Z" fill="#4361ee" stroke-width="0"/>
  <path d="M1476.6,1229.6c4.2,0,7.6-3.4,7.6-7.6s-3.4-7.6-7.6-7.6-7.6,3.4-7.6,7.6,3.4,7.6,7.6,7.6Z" fill="#4361ee" stroke-width="0"/>
  <path d="M1509.3,1222c0,1.5-.4,3-1.1,4.2-.8,1.1-1.9,2.3-3.4,2.7-1.5.8-3,.8-4.6.4-1.5-.4-2.7-1.1-3.8-1.9-1.1-1.1-1.9-2.3-1.9-3.8s0-3,.4-4.6c.8-1.5,1.5-2.7,2.7-3.4,1.1-.8,2.7-1.1,4.2-1.1s3.8.8,5.3,2.3c1.5,1.5,2.3,3.4,2.3,5.3h0Z" fill="#4361ee" stroke-width="0"/>
  <path d="M1526.4,1229.6c4.2,0,7.6-3.4,7.6-7.6s-3.4-7.6-7.6-7.6-7.6,3.4-7.6,7.6,3.4,7.6,7.6,7.6Z" fill="#4361ee" stroke-width="0"/>
  <path d="M1559.1,1222c0,1.5-.4,3-1.1,4.2-.8,1.1-1.9,2.3-3.4,2.7-1.5.8-3,.8-4.6.4-1.5-.4-2.7-1.1-3.8-1.9-1.1-.8-1.9-2.3-1.9-3.8s0-3,.4-4.6c.8-1.5,1.5-2.7,2.7-3.4,1.1-.8,2.7-1.1,4.2-1.1s3.8.8,5.3,2.3c1.5,1.5,2.3,3.4,2.3,5.3h0Z" fill="#4361ee" stroke-width="0"/>
  <path d="M1584.2,1222c0,1.5-.4,3-1.1,4.2-.8,1.1-1.9,2.3-3.4,2.7-1.5.8-3,.8-4.6.4-1.5-.4-2.7-1.1-3.8-1.9-1.1-1.1-1.9-2.3-1.9-3.8s0-3,.4-4.6c.8-1.5,1.5-2.7,2.7-3.4,1.1-.8,2.7-1.1,4.2-1.1s3.8.8,5.3,2.3,2.3,3.4,2.3,5.3h0Z" fill="#4361ee" stroke-width="0"/>
  <path d="M1458.7,1168.7h-4.2v60.8h4.2v-60.8Z" fill="#263238" stroke-width="0"/>
  <path d="M1596,1044.8h-392.2v90.5h392.2v-90.5h0Z" fill="#37474f" stroke-width="0"/>
  <path d="M1443.5,1059.7h-223.5v7.6h223.5v-7.6Z" fill="#455a64" stroke-width="0"/>
  <path d="M1443.5,1073h-223.5v7.6h223.5v-7.6Z" fill="#455a64" stroke-width="0"/>
  <path d="M1443.5,1086.3h-223.5v7.6h223.5v-7.6Z" fill="#455a64" stroke-width="0"/>
  <path d="M1443.5,1099.6h-223.5v7.6h223.5v-7.6Z" fill="#455a64" stroke-width="0"/>
  <path d="M1443.5,1112.9h-223.5v7.6h223.5v-7.6Z" fill="#455a64" stroke-width="0"/>
  <path d="M1476.6,1074.9c4.2,0,7.6-3.4,7.6-7.6s-3.4-7.6-7.6-7.6-7.6,3.4-7.6,7.6,3.4,7.6,7.6,7.6Z" fill="#4361ee" stroke-width="0"/>
  <path d="M1509.3,1067.3c0,1.5-.4,3-1.1,4.2-.8,1.1-1.9,2.3-3.4,2.7-1.5.8-3,.8-4.6.4-1.5,0-2.7-1.1-3.8-1.9-1.1-1.1-1.9-2.3-1.9-3.8s0-3,.4-4.6c.8-1.5,1.5-2.7,2.7-3.4,1.1-.8,2.7-1.1,4.2-1.1s3.8.8,5.3,2.3c1.5,1.5,2.3,3.4,2.3,5.3h0Z" fill="#4361ee" stroke-width="0"/>
  <path d="M1526.4,1074.9c4.2,0,7.6-3.4,7.6-7.6s-3.4-7.6-7.6-7.6-7.6,3.4-7.6,7.6,3.4,7.6,7.6,7.6Z" fill="#4361ee" stroke-width="0"/>
  <path d="M1559.1,1067.3c0,1.5-.4,3-1.1,4.2-.8,1.1-1.9,2.3-3.4,2.7-1.5.8-3,.8-4.6.4-1.5,0-2.7-1.1-3.8-1.9-1.1-.8-1.9-2.3-1.9-3.8s0-3,.4-4.6c.8-1.5,1.5-2.7,2.7-3.4,1.1-.8,2.7-1.1,4.2-1.1s3.8.8,5.3,2.3c1.5,1.5,2.3,3.4,2.3,5.3h0Z" fill="#4361ee" stroke-width="0"/>
  <path d="M1584.2,1067.3c0,1.5-.4,3-1.1,4.2-.8,1.1-1.9,2.3-3.4,2.7-1.5.8-3,.8-4.6.4-1.5,0-2.7-1.1-3.8-1.9-1.1-1.1-1.9-2.3-1.9-3.8s0-3,.4-4.6c.8-1.5,1.5-2.7,2.7-3.4,1.1-.8,2.7-1.1,4.2-1.1s3.8.8,5.3,2.3c1.5,1.5,2.3,3.4,2.3,5.3h0Z" fill="#4361ee" stroke-width="0"/>
  <path d="M1476.6,1097.7c4.2,0,7.6-3.4,7.6-7.6s-3.4-7.6-7.6-7.6-7.6,3.4-7.6,7.6,3.4,7.6,7.6,7.6Z" fill="#4361ee" stroke-width="0"/>
  <path d="M1509.3,1090.1c0,1.5-.4,3-1.1,4.2-.8,1.1-1.9,2.3-3.4,2.7-1.5.8-3,.8-4.6.4-1.5,0-2.7-1.1-3.8-1.9-1.1-1.1-1.9-2.3-1.9-3.8s0-3,.4-4.6c.8-1.5,1.5-2.7,2.7-3.4,1.1-.8,2.7-1.1,4.2-1.1s3.8.8,5.3,2.3c1.5,1.5,2.3,3.4,2.3,5.3h0Z" fill="#4361ee" stroke-width="0"/>
  <path d="M1526.4,1097.7c4.2,0,7.6-3.4,7.6-7.6s-3.4-7.6-7.6-7.6-7.6,3.4-7.6,7.6,3.4,7.6,7.6,7.6Z" fill="#4361ee" stroke-width="0"/>
  <path d="M1559.1,1090.1c0,1.5-.4,3-1.1,4.2-.8,1.1-1.9,2.3-3.4,2.7-1.5.8-3,.8-4.6.4-1.5,0-2.7-1.1-3.8-1.9-1.1-.8-1.9-2.3-1.9-3.8s0-3,.4-4.6c.8-1.5,1.5-2.7,2.7-3.4,1.1-.8,2.7-1.1,4.2-1.1s3.8.8,5.3,2.3c1.5,1.5,2.3,3.4,2.3,5.3h0Z" fill="#4361ee" stroke-width="0"/>
  <path d="M1584.2,1090.1c0,1.5-.4,3-1.1,4.2-.8,1.1-1.9,2.3-3.4,2.7-1.5.8-3,.8-4.6.4-1.5,0-2.7-1.1-3.8-1.9-1.1-1.1-1.9-2.3-1.9-3.8s0-3,.4-4.6c.8-1.5,1.5-2.7,2.7-3.4,1.1-.8,2.7-1.1,4.2-1.1s3.8.8,5.3,2.3,2.3,3.4,2.3,5.3h0Z" fill="#4361ee" stroke-width="0"/>
  <path d="M1484.2,1112.9c0,1.5-.4,3-1.1,4.2-.8,1.1-1.9,2.3-3.4,2.7-1.5.8-3,.8-4.6.4-1.5,0-2.7-1.1-3.8-1.9-1.1-1.1-1.9-2.3-1.9-3.8s0-3,.4-4.6c.8-1.5,1.5-2.7,2.7-3.4,1.1-.8,2.7-1.1,4.2-1.1s3.8.8,5.3,2.3c1.5,1.5,2.3,3.4,2.3,5.3h0Z" fill="#4361ee" stroke-width="0"/>
  <path d="M1509.3,1112.9c0,1.5-.4,3-1.1,4.2-.8,1.1-1.9,2.3-3.4,2.7-1.5.8-3,.8-4.6.4-1.5,0-2.7-1.1-3.8-1.9-1.1-1.1-1.9-2.3-1.9-3.8s0-3,.4-4.6c.8-1.5,1.5-2.7,2.7-3.4,1.1-.8,2.7-1.1,4.2-1.1s3.8.8,5.3,2.3c1.5,1.5,2.3,3.4,2.3,5.3h0Z" fill="#4361ee" stroke-width="0"/>
  <path d="M1534,1112.9c0,1.5-.4,3-1.1,4.2-.8,1.1-1.9,2.3-3.4,2.7-1.5.8-3,.8-4.6.4-1.5,0-2.7-1.1-3.8-1.9-1.1-1.1-1.9-2.3-1.9-3.8s0-3,.4-4.6c.8-1.5,1.5-2.7,2.7-3.4,1.1-.8,2.7-1.1,4.2-1.1s3.8.8,5.3,2.3c1.5,1.5,2.3,3.4,2.3,5.3h0Z" fill="#4361ee" stroke-width="0"/>
  <path d="M1559.1,1112.9c0,1.5-.4,3-1.1,4.2-.8,1.1-1.9,2.3-3.4,2.7-1.5.8-3,.8-4.6.4-1.5,0-2.7-1.1-3.8-1.9-1.1-1.1-1.9-2.3-1.9-3.8s0-3,.4-4.6c.8-1.5,1.5-2.7,2.7-3.4,1.1-.8,2.7-1.1,4.2-1.1s3.8.8,5.3,2.3c1.5,1.5,2.3,3.4,2.3,5.3h0Z" fill="#4361ee" stroke-width="0"/>
  <path d="M1584.2,1112.9c0,1.5-.4,3-1.1,4.2-.8,1.1-1.9,2.3-3.4,2.7-1.5.8-3,.8-4.6.4-1.5,0-2.7-1.1-3.8-1.9-1.1-1.1-1.9-2.3-1.9-3.8s0-3,.4-4.6c.8-1.5,1.5-2.7,2.7-3.4,1.1-.8,2.7-1.1,4.2-1.1s3.8.8,5.3,2.3c1.5,1.5,2.3,3.4,2.3,5.3h0Z" fill="#4361ee" stroke-width="0"/>
  <path d="M1458.7,1059.7h-4.2v60.8h4.2v-60.8Z" fill="#263238" stroke-width="0"/>
  <path d="M1596,935.4h-392.2v90.5h392.2v-90.5h0Z" fill="#37474f" stroke-width="0"/>
  <path d="M1443.5,950.6h-223.5v7.6h223.5v-7.6Z" fill="#455a64" stroke-width="0"/>
  <path d="M1443.5,963.9h-223.5v7.6h223.5v-7.6Z" fill="#455a64" stroke-width="0"/>
  <path d="M1443.5,977.2h-223.5v7.6h223.5v-7.6Z" fill="#455a64" stroke-width="0"/>
  <path d="M1443.5,990.1h-223.5v7.6h223.5v-7.6Z" fill="#455a64" stroke-width="0"/>
  <path d="M1443.5,1003.4h-223.5v7.6h223.5v-7.6Z" fill="#455a64" stroke-width="0"/>
  <path d="M1484.2,958.2c0,1.5-.4,3-1.1,4.2-.8,1.1-1.9,2.3-3.4,2.7-1.5.8-3,.8-4.6.4-1.5,0-2.7-1.1-3.8-1.9-1.1-.8-1.9-2.3-1.9-3.8s0-3,.4-4.6c.8-1.5,1.5-2.7,2.7-3.4,1.1-.8,2.7-1.1,4.2-1.1s3.8.8,5.3,2.3c1.5,1.5,2.3,3.4,2.3,5.3h0Z" fill="#4361ee" stroke-width="0"/>
  <path d="M1509.3,958.2c0,1.5-.4,3-1.1,4.2-.8,1.1-1.9,2.3-3.4,2.7-1.5.8-3,.8-4.6.4-1.5,0-2.7-1.1-3.8-1.9-1.1-1.1-1.9-2.3-1.9-3.8s0-3,.4-4.6c.8-1.5,1.5-2.7,2.7-3.4,1.1-.8,2.7-1.1,4.2-1.1s3.8.8,5.3,2.3,2.3,3.4,2.3,5.3h0Z" fill="#4361ee" stroke-width="0"/>
  <path d="M1534,958.2c0,1.5-.4,3-1.1,4.2-.8,1.1-1.9,2.3-3.4,2.7-1.5.8-3,.8-4.6.4-1.5,0-2.7-1.1-3.8-1.9-1.1-1.1-1.9-2.3-1.9-3.8s0-3,.4-4.6c.8-1.5,1.5-2.7,2.7-3.4,1.1-.8,2.7-1.1,4.2-1.1s3.8.8,5.3,2.3c1.5,1.5,2.3,3.4,2.3,5.3h0Z" fill="#4361ee" stroke-width="0"/>
  <path d="M1559.1,958.2c0,1.5-.4,3-1.1,4.2-.8,1.1-1.9,2.3-3.4,2.7-1.5.8-3,.8-4.6.4-1.5,0-2.7-1.1-3.8-1.9-1.1-.8-1.9-2.3-1.9-3.8s0-3,.4-4.6c.8-1.5,1.5-2.7,2.7-3.4,1.1-.8,2.7-1.1,4.2-1.1s3.8.8,5.3,2.3c1.5,1.5,2.3,3.4,2.3,5.3h0Z" fill="#4361ee" stroke-width="0"/>
  <path d="M1584.2,958.2c0,1.5-.4,3-1.1,4.2-.8,1.1-1.9,2.3-3.4,2.7-1.5.8-3,.8-4.6.4-1.5,0-2.7-1.1-3.8-1.9-1.1-1.1-1.9-2.3-1.9-3.8s0-3,.4-4.6c.8-1.5,1.5-2.7,2.7-3.4,1.1-.8,2.7-1.1,4.2-1.1s3.8.8,5.3,2.3c1.5,1.5,2.3,3.4,2.3,5.3h0Z" fill="#4361ee" stroke-width="0"/>
  <path d="M1484.2,981c0,1.5-.4,3-1.1,4.2-.8,1.1-1.9,2.3-3.4,2.7-1.5.8-3,.8-4.6.4-1.5,0-2.7-1.1-3.8-1.9-1.1-.8-1.9-2.3-1.9-3.8s0-3,.4-4.6c.8-1.5,1.5-2.7,2.7-3.4,1.1-.8,2.7-1.1,4.2-1.1s3.8.8,5.3,2.3c1.5,1.5,2.3,3.4,2.3,5.3h0Z" fill="#4361ee" stroke-width="0"/>
  <path d="M1509.3,981c0,1.5-.4,3-1.1,4.2-.8,1.1-1.9,2.3-3.4,2.7-1.5.8-3,.8-4.6.4-1.5,0-2.7-1.1-3.8-1.9-1.1-1.1-1.9-2.3-1.9-3.8s0-3,.4-4.6c.8-1.5,1.5-2.7,2.7-3.4,1.1-.8,2.7-1.1,4.2-1.1s3.8.8,5.3,2.3,2.3,3.4,2.3,5.3h0Z" fill="#4361ee" stroke-width="0"/>
  <path d="M1534,981c0,1.5-.4,3-1.1,4.2-.8,1.1-1.9,2.3-3.4,2.7-1.5.8-3,.8-4.6.4-1.5,0-2.7-1.1-3.8-1.9-1.1-1.1-1.9-2.3-1.9-3.8s0-3,.4-4.6c.8-1.5,1.5-2.7,2.7-3.4,1.1-.8,2.7-1.1,4.2-1.1s3.8.8,5.3,2.3c1.5,1.5,2.3,3.4,2.3,5.3h0Z" fill="#4361ee" stroke-width="0"/>
  <path d="M1559.1,981c0,1.5-.4,3-1.1,4.2-.8,1.1-1.9,2.3-3.4,2.7-1.5.8-3,.8-4.6.4-1.5,0-2.7-1.1-3.8-1.9-1.1-.8-1.9-2.3-1.9-3.8s0-3,.4-4.6c.8-1.5,1.5-2.7,2.7-3.4,1.1-.8,2.7-1.1,4.2-1.1s3.8.8,5.3,2.3c1.5,1.5,2.3,3.4,2.3,5.3h0Z" fill="#4361ee" stroke-width="0"/>
  <path d="M1584.2,981c0,1.5-.4,3-1.1,4.2-.8,1.1-1.9,2.3-3.4,2.7-1.5.8-3,.8-4.6.4-1.5,0-2.7-1.1-3.8-1.9-1.1-1.1-1.9-2.3-1.9-3.8s0-3,.4-4.6c.8-1.5,1.5-2.7,2.7-3.4,1.1-.8,2.7-1.1,4.2-1.1s3.8.8,5.3,2.3c1.5,1.5,2.3,3.4,2.3,5.3h0Z" fill="#4361ee" stroke-width="0"/>
  <path d="M1484.2,1003.8c0,1.5-.4,3-1.1,4.2-.8,1.1-1.9,2.3-3.4,2.7-1.5.8-3,.8-4.6.4-1.5,0-2.7-1.1-3.8-1.9-1.1-1.1-1.9-2.3-1.9-3.8s0-3,.4-4.6c.8-1.5,1.5-2.7,2.7-3.4,1.1-.8,2.7-1.1,4.2-1.1s3.8.8,5.3,2.3c1.5,1.5,2.3,3.4,2.3,5.3h0Z" fill="#4361ee" stroke-width="0"/>
  <path d="M1509.3,1003.8c0,1.5-.4,3-1.1,4.2-.8,1.1-1.9,2.3-3.4,2.7-1.5.8-3,.8-4.6.4-1.5,0-2.7-1.1-3.8-1.9-1.1-1.1-1.9-2.3-1.9-3.8s0-3,.4-4.6c.8-1.5,1.5-2.7,2.7-3.4,1.1-.8,2.7-1.1,4.2-1.1s3.8.8,5.3,2.3c1.5,1.5,2.3,3.4,2.3,5.3h0Z" fill="#4361ee" stroke-width="0"/>
  <path d="M1534,1003.8c0,1.5-.4,3-1.1,4.2-.8,1.1-1.9,2.3-3.4,2.7-1.5.8-3,.8-4.6.4-1.5,0-2.7-1.1-3.8-1.9-1.1-1.1-1.9-2.3-1.9-3.8s0-3,.4-4.6c.8-1.5,1.5-2.7,2.7-3.4,1.1-.8,2.7-1.1,4.2-1.1s3.8.8,5.3,2.3c1.5,1.5,2.3,3.4,2.3,5.3h0Z" fill="#4361ee" stroke-width="0"/>
  <path d="M1559.1,1003.8c0,1.5-.4,3-1.1,4.2-.8,1.1-1.9,2.3-3.4,2.7-1.5.8-3,.8-4.6.4-1.5,0-2.7-1.1-3.8-1.9-1.1-1.1-1.9-2.3-1.9-3.8s0-3,.4-4.6c.8-1.5,1.5-2.7,2.7-3.4,1.1-.8,2.7-1.1,4.2-1.1s3.8.8,5.3,2.3c1.5,1.5,2.3,3.4,2.3,5.3h0Z" fill="#4361ee" stroke-width="0"/>
  <path d="M1584.2,1003.8c0,1.5-.4,3-1.1,4.2-.8,1.1-1.9,2.3-3.4,2.7-1.5.8-3,.8-4.6.4-1.5,0-2.7-1.1-3.8-1.9-1.1-1.1-1.9-2.3-1.9-3.8s0-3,.4-4.6c.8-1.5,1.5-2.7,2.7-3.4,1.1-.8,2.7-1.1,4.2-1.1s3.8.8,5.3,2.3,2.3,3.4,2.3,5.3h0Z" fill="#4361ee" stroke-width="0"/>
  <path d="M1458.7,950.6h-4.2v60.8h4.2v-60.8Z" fill="#263238" stroke-width="0"/>
  <path d="M1596,826.3h-392.2v90.5h392.2v-90.5h0Z" fill="#37474f" stroke-width="0"/>
  <path d="M1443.5,841.5h-223.5v7.6h223.5v-7.6Z" fill="#455a64" stroke-width="0"/>
  <path d="M1443.5,854.8h-223.5v7.6h223.5v-7.6Z" fill="#455a64" stroke-width="0"/>
  <path d="M1443.5,867.7h-223.5v7.6h223.5v-7.6Z" fill="#455a64" stroke-width="0"/>
  <path d="M1443.5,881h-223.5v7.6h223.5v-7.6Z" fill="#455a64" stroke-width="0"/>
  <path d="M1443.5,894.3h-223.5v7.6h223.5v-7.6Z" fill="#455a64" stroke-width="0"/>
  <path d="M1484.2,849.1c0,1.5-.4,3-1.1,4.2-.8,1.1-1.9,2.3-3.4,2.7-1.5.8-3,.8-4.6.4-1.5,0-2.7-1.1-3.8-1.9-1.1-.8-1.9-2.3-1.9-3.8s0-3,.4-4.6c.8-1.5,1.5-2.7,2.7-3.4,1.1-.8,2.7-1.1,4.2-1.1s3.8.8,5.3,2.3,2.3,3.4,2.3,5.3h0Z" fill="#4361ee" stroke-width="0"/>
  <path d="M1509.3,849.1c0,1.5-.4,3-1.1,4.2-.8,1.1-1.9,2.3-3.4,2.7-1.5.8-3,.8-4.6.4-1.5,0-2.7-1.1-3.8-1.9-1.1-1.1-1.9-2.3-1.9-3.8s0-3,.4-4.6c.8-1.5,1.5-2.7,2.7-3.4,1.1-.8,2.7-1.1,4.2-1.1s3.8.8,5.3,2.3c1.5,1.5,2.3,3.4,2.3,5.3h0Z" fill="#4361ee" stroke-width="0"/>
  <path d="M1534,849.1c0,1.5-.4,3-1.1,4.2-.8,1.1-1.9,2.3-3.4,2.7-1.5.8-3,.8-4.6.4-1.5,0-2.7-1.1-3.8-1.9-1.1-1.1-1.9-2.3-1.9-3.8s0-3,.4-4.6c.8-1.5,1.5-2.7,2.7-3.4,1.1-.8,2.7-1.1,4.2-1.1s3.8.8,5.3,2.3,2.3,3.4,2.3,5.3h0Z" fill="#4361ee" stroke-width="0"/>
  <path d="M1559.1,849.1c0,1.5-.4,3-1.1,4.2-.8,1.1-1.9,2.3-3.4,2.7-1.5.8-3,.8-4.6.4-1.5,0-2.7-1.1-3.8-1.9-1.1-.8-1.9-2.3-1.9-3.8s0-3,.4-4.6c.8-1.5,1.5-2.7,2.7-3.4,1.1-.8,2.7-1.1,4.2-1.1s3.8.8,5.3,2.3c1.5,1.5,2.3,3.4,2.3,5.3h0Z" fill="#4361ee" stroke-width="0"/>
  <path d="M1584.2,849.1c0,1.5-.4,3-1.1,4.2-.8,1.1-1.9,2.3-3.4,2.7-1.5.8-3,.8-4.6.4-1.5,0-2.7-1.1-3.8-1.9-1.1-1.1-1.9-2.3-1.9-3.8s0-3,.4-4.6c.8-1.5,1.5-2.7,2.7-3.4,1.1-.8,2.7-1.1,4.2-1.1s3.8.8,5.3,2.3c1.5,1.5,2.3,3.4,2.3,5.3h0Z" fill="#4361ee" stroke-width="0"/>
  <path d="M1484.2,871.9c0,1.5-.4,3-1.1,4.2-.8,1.1-1.9,2.3-3.4,2.7-1.5.8-3,.8-4.6.4-1.5,0-2.7-1.1-3.8-1.9-1.1-1.1-1.9-2.3-1.9-3.8s0-3,.4-4.6c.8-1.5,1.5-2.7,2.7-3.4,1.1-.8,2.7-1.1,4.2-1.1s3.8.8,5.3,2.3c1.5,1.5,2.3,3.4,2.3,5.3h0Z" fill="#4361ee" stroke-width="0"/>
  <path d="M1509.3,871.9c0,1.5-.4,3-1.1,4.2-.8,1.1-1.9,2.3-3.4,2.7-1.5.8-3,.8-4.6.4-1.5,0-2.7-1.1-3.8-1.9-1.1-1.1-1.9-2.3-1.9-3.8s0-3,.4-4.6c.8-1.5,1.5-2.7,2.7-3.4,1.1-.8,2.7-1.1,4.2-1.1s3.8.8,5.3,2.3,2.3,3.4,2.3,5.3h0Z" fill="#4361ee" stroke-width="0"/>
  <path d="M1534,871.9c0,1.5-.4,3-1.1,4.2s-1.9,2.3-3.4,2.7c-1.5.8-3,.8-4.6.4-1.5,0-2.7-1.1-3.8-1.9-1.1-1.1-1.9-2.3-1.9-3.8s0-3,.4-4.6c.8-1.5,1.5-2.7,2.7-3.4,1.1-.8,2.7-1.1,4.2-1.1s3.8.8,5.3,2.3c1.5,1.5,2.3,3.4,2.3,5.3h0Z" fill="#4361ee" stroke-width="0"/>
  <path d="M1559.1,871.9c0,1.5-.4,3-1.1,4.2-.8,1.1-1.9,2.3-3.4,2.7-1.5.8-3,.8-4.6.4-1.5,0-2.7-1.1-3.8-1.9-1.1-1.1-1.9-2.3-1.9-3.8s0-3,.4-4.6c.8-1.5,1.5-2.7,2.7-3.4,1.1-.8,2.7-1.1,4.2-1.1s3.8.8,5.3,2.3c1.5,1.5,2.3,3.4,2.3,5.3h0Z" fill="#4361ee" stroke-width="0"/>
  <path d="M1584.2,871.9c0,1.5-.4,3-1.1,4.2-.8,1.1-1.9,2.3-3.4,2.7-1.5.8-3,.8-4.6.4-1.5,0-2.7-1.1-3.8-1.9-1.1-1.1-1.9-2.3-1.9-3.8s0-3,.4-4.6c.8-1.5,1.5-2.7,2.7-3.4,1.1-.8,2.7-1.1,4.2-1.1s3.8.8,5.3,2.3c1.5,1.5,2.3,3.4,2.3,5.3h0Z" fill="#4361ee" stroke-width="0"/>
  <path d="M1484.2,894.3c0,1.5-.4,3-1.1,4.2-.8,1.1-1.9,2.3-3.4,2.7-1.5.8-3,.8-4.6.4-1.5,0-2.7-1.1-3.8-1.9-1.1-1.1-1.9-2.3-1.9-3.8s0-3,.4-4.6c.8-1.5,1.5-2.7,2.7-3.4,1.1-.8,2.7-1.1,4.2-1.1s3.8.8,5.3,2.3,2.3,3.4,2.3,5.3h0Z" fill="#4361ee" stroke-width="0"/>
  <path d="M1509.3,894.3c0,1.5-.4,3-1.1,4.2-.8,1.1-1.9,2.3-3.4,2.7-1.5.8-3,.8-4.6.4-1.5,0-2.7-1.1-3.8-1.9-1.1-1.1-1.9-2.3-1.9-3.8s0-3,.4-4.6c.8-1.5,1.5-2.7,2.7-3.4,1.1-.8,2.7-1.1,4.2-1.1s3.8.8,5.3,2.3c1.5,1.5,2.3,3.4,2.3,5.3h0Z" fill="#4361ee" stroke-width="0"/>
  <path d="M1534,894.3c0,1.5-.4,3-1.1,4.2-.8,1.1-1.9,2.3-3.4,2.7-1.5.8-3,.8-4.6.4-1.5,0-2.7-1.1-3.8-1.9-1.1-1.1-1.9-2.3-1.9-3.8s0-3,.4-4.6c.8-1.5,1.5-2.7,2.7-3.4,1.1-.8,2.7-1.1,4.2-1.1s3.8.8,5.3,2.3,2.3,3.4,2.3,5.3h0Z" fill="#4361ee" stroke-width="0"/>
  <path d="M1559.1,894.3c0,1.5-.4,3-1.1,4.2-.8,1.1-1.9,2.3-3.4,2.7-1.5.8-3,.8-4.6.4-1.5,0-2.7-1.1-3.8-1.9-1.1-1.1-1.9-2.3-1.9-3.8s0-3,.4-4.6c.8-1.5,1.5-2.7,2.7-3.4,1.1-.8,2.7-1.1,4.2-1.1s3.8.8,5.3,2.3c1.5,1.5,2.3,3.4,2.3,5.3h0Z" fill="#4361ee" stroke-width="0"/>
  <path d="M1584.2,894.3c0,1.5-.4,3-1.1,4.2-.8,1.1-1.9,2.3-3.4,2.7-1.5.8-3,.8-4.6.4-1.5,0-2.7-1.1-3.8-1.9-1.1-1.1-1.9-2.3-1.9-3.8s0-3,.4-4.6c.8-1.5,1.5-2.7,2.7-3.4,1.1-.8,2.7-1.1,4.2-1.1s3.8.8,5.3,2.3c1.5,1.5,2.3,3.4,2.3,5.3h0Z" fill="#4361ee" stroke-width="0"/>
  <path d="M1458.7,841.5h-4.2v60.8h4.2v-60.8Z" fill="#263238" stroke-width="0"/>
  <path d="M1596,717.2h-392.2v90.5h392.2v-90.5h0Z" fill="#37474f" stroke-width="0"/>
  <path d="M1443.5,732h-223.5v7.6h223.5v-7.6Z" fill="#455a64" stroke-width="0"/>
  <path d="M1443.5,745.3h-223.5v7.6h223.5v-7.6Z" fill="#455a64" stroke-width="0"/>
  <path d="M1443.5,758.6h-223.5v7.6h223.5v-7.6Z" fill="#455a64" stroke-width="0"/>
  <path d="M1443.5,771.9h-223.5v7.6h223.5v-7.6Z" fill="#455a64" stroke-width="0"/>
  <path d="M1443.5,785.2h-223.5v7.6h223.5v-7.6Z" fill="#455a64" stroke-width="0"/>
  <path d="M1484.2,739.6c0,1.5-.4,3-1.1,4.2-.8,1.1-1.9,2.3-3.4,2.7-1.5.8-3,.8-4.6.4-1.5,0-2.7-1.1-3.8-1.9-1.1-.8-1.9-2.3-1.9-3.8s0-3,.4-4.6c.8-1.5,1.5-2.7,2.7-3.4,1.1-.8,2.7-1.1,4.2-1.1s3.8.8,5.3,2.3c1.5,1.5,2.3,3.4,2.3,5.3h0Z" fill="#4361ee" stroke-width="0"/>
  <path d="M1509.3,739.6c0,1.5-.4,3-1.1,4.2-.8,1.1-1.9,2.3-3.4,2.7-1.5.8-3,.8-4.6.4-1.5,0-2.7-1.1-3.8-1.9-1.1-1.1-1.9-2.3-1.9-3.8s0-3,.4-4.6c.8-1.5,1.5-2.7,2.7-3.4,1.1-.8,2.7-1.1,4.2-1.1s3.8.8,5.3,2.3,2.3,3.4,2.3,5.3h0Z" fill="#4361ee" stroke-width="0"/>
  <path d="M1534,739.6c0,1.5-.4,3-1.1,4.2-.8,1.1-1.9,2.3-3.4,2.7-1.5.8-3,.8-4.6.4-1.5,0-2.7-1.1-3.8-1.9-1.1-1.1-1.9-2.3-1.9-3.8s0-3,.4-4.6c.8-1.5,1.5-2.7,2.7-3.4,1.1-.8,2.7-1.1,4.2-1.1s3.8.8,5.3,2.3c1.5,1.5,2.3,3.4,2.3,5.3h0Z" fill="#4361ee" stroke-width="0"/>
  <path d="M1559.1,739.6c0,1.5-.4,3-1.1,4.2-.8,1.1-1.9,2.3-3.4,2.7-1.5.8-3,.8-4.6.4-1.5,0-2.7-1.1-3.8-1.9-1.1-.8-1.9-2.3-1.9-3.8s0-3,.4-4.6c.8-1.5,1.5-2.7,2.7-3.4,1.1-.8,2.7-1.1,4.2-1.1s3.8.8,5.3,2.3c1.5,1.5,2.3,3.4,2.3,5.3h0Z" fill="#4361ee" stroke-width="0"/>
  <path d="M1584.2,739.6c0,1.5-.4,3-1.1,4.2-.8,1.1-1.9,2.3-3.4,2.7-1.5.8-3,.8-4.6.4-1.5,0-2.7-1.1-3.8-1.9-1.1-1.1-1.9-2.3-1.9-3.8s0-3,.4-4.6c.8-1.5,1.5-2.7,2.7-3.4,1.1-.8,2.7-1.1,4.2-1.1s3.8.8,5.3,2.3c1.5,1.5,2.3,3.4,2.3,5.3h0Z" fill="#4361ee" stroke-width="0"/>
  <path d="M1476.6,770c4.2,0,7.6-3.4,7.6-7.6s-3.4-7.6-7.6-7.6-7.6,3.4-7.6,7.6,3.4,7.6,7.6,7.6Z" fill="#4361ee" stroke-width="0"/>
  <path d="M1509.3,762.4c0,1.5-.4,3-1.1,4.2-.8,1.1-1.9,2.3-3.4,2.7-1.5.8-3,.8-4.6.4-1.5,0-2.7-1.1-3.8-1.9-1.1-1.1-1.9-2.3-1.9-3.8s0-3,.4-4.6c.8-1.5,1.5-2.7,2.7-3.4,1.1-.8,2.7-1.1,4.2-1.1s3.8.8,5.3,2.3,2.3,3.4,2.3,5.3h0Z" fill="#4361ee" stroke-width="0"/>
  <path d="M1526.4,770c4.2,0,7.6-3.4,7.6-7.6s-3.4-7.6-7.6-7.6-7.6,3.4-7.6,7.6,3.4,7.6,7.6,7.6Z" fill="#4361ee" stroke-width="0"/>
  <path d="M1559.1,762.4c0,1.5-.4,3-1.1,4.2-.8,1.1-1.9,2.3-3.4,2.7-1.5.8-3,.8-4.6.4-1.5,0-2.7-1.1-3.8-1.9-1.1-.8-1.9-2.3-1.9-3.8s0-3,.4-4.6c.8-1.5,1.5-2.7,2.7-3.4,1.1-.8,2.7-1.1,4.2-1.1s3.8.8,5.3,2.3c1.5,1.5,2.3,3.4,2.3,5.3h0Z" fill="#4361ee" stroke-width="0"/>
  <path d="M1584.2,762.4c0,1.5-.4,3-1.1,4.2-.8,1.1-1.9,2.3-3.4,2.7-1.5.8-3,.8-4.6.4-1.5,0-2.7-1.1-3.8-1.9-1.1-1.1-1.9-2.3-1.9-3.8s0-3,.4-4.6c.8-1.5,1.5-2.7,2.7-3.4,1.1-.8,2.7-1.1,4.2-1.1s3.8.8,5.3,2.3c1.5,1.5,2.3,3.4,2.3,5.3h0Z" fill="#4361ee" stroke-width="0"/>
  <path d="M1484.2,785.2c0,1.5-.4,3-1.1,4.2-.8,1.1-1.9,2.3-3.4,2.7-1.5.8-3,.8-4.6.4-1.5,0-2.7-1.1-3.8-1.9-1.1-1.1-1.9-2.3-1.9-3.8s0-3,.4-4.6c.8-1.5,1.5-2.7,2.7-3.4,1.1-.8,2.7-1.1,4.2-1.1s3.8.8,5.3,2.3c1.5,1.5,2.3,3.4,2.3,5.3h0Z" fill="#4361ee" stroke-width="0"/>
  <path d="M1509.3,785.2c0,1.5-.4,3-1.1,4.2-.8,1.1-1.9,2.3-3.4,2.7-1.5.8-3,.8-4.6.4-1.5,0-2.7-1.1-3.8-1.9-1.1-1.1-1.9-2.3-1.9-3.8s0-3,.4-4.6c.8-1.5,1.5-2.7,2.7-3.4,1.1-.8,2.7-1.1,4.2-1.1s3.8.8,5.3,2.3c1.5,1.5,2.3,3.4,2.3,5.3h0Z" fill="#4361ee" stroke-width="0"/>
  <path d="M1534,785.2c0,1.5-.4,3-1.1,4.2s-1.9,2.3-3.4,2.7c-1.5.8-3,.8-4.6.4-1.5,0-2.7-1.1-3.8-1.9-1.1-1.1-1.9-2.3-1.9-3.8s0-3,.4-4.6c.8-1.5,1.5-2.7,2.7-3.4,1.1-.8,2.7-1.1,4.2-1.1s3.8.8,5.3,2.3c1.5,1.5,2.3,3.4,2.3,5.3h0Z" fill="#4361ee" stroke-width="0"/>
  <path d="M1559.1,785.2c0,1.5-.4,3-1.1,4.2-.8,1.1-1.9,2.3-3.4,2.7-1.5.8-3,.8-4.6.4-1.5,0-2.7-1.1-3.8-1.9-1.1-1.1-1.9-2.3-1.9-3.8s0-3,.4-4.6c.8-1.5,1.5-2.7,2.7-3.4,1.1-.8,2.7-1.1,4.2-1.1s3.8.8,5.3,2.3c1.5,1.5,2.3,3.4,2.3,5.3h0Z" fill="#4361ee" stroke-width="0"/>
  <path d="M1584.2,785.2c0,1.5-.4,3-1.1,4.2-.8,1.1-1.9,2.3-3.4,2.7-1.5.8-3,.8-4.6.4-1.5,0-2.7-1.1-3.8-1.9-1.1-1.1-1.9-2.3-1.9-3.8s0-3,.4-4.6c.8-1.5,1.5-2.7,2.7-3.4,1.1-.8,2.7-1.1,4.2-1.1s3.8.8,5.3,2.3,2.3,3.4,2.3,5.3h0Z" fill="#4361ee" stroke-width="0"/>
  <path d="M1458.7,732h-4.2v60.8h4.2v-60.8Z" fill="#263238" stroke-width="0"/>
  <path d="M1531.7,642h-516.9v28.9h516.9v-28.9Z" fill="#37474f" stroke-width="0"/>
  <path d="M1019.8,1459.9h-57.8v57.8h57.8v-57.8Z" fill="#263238" stroke-width="0"/>
  <path d="M172.2,1344.3h-101.1v101.1h101.1v-101.1Z" fill="#37474f" stroke-width="0"/>
  <path d="M121.6,1428.7c18.6,0,33.8-15.2,33.8-33.8s-15.2-33.8-33.8-33.8-33.8,15.2-33.8,33.8,15.2,33.8,33.8,33.8Z" fill="#455a64" stroke-width="0"/>
  <path d="M115.5,1381.2h-7.6v27.7h7.6v-27.7Z" fill="#263238" stroke-width="0"/>
  <path d="M136.8,1381.2h-7.6v27.7h7.6v-27.7Z" fill="#263238" stroke-width="0"/>
  <path d="M46,1602.4l202.6-.8h202.6l405.2-1.1,405.2.8h202.6l202.6,1.1-202.6.8h-202.6l-405.2.8-405.2-.8h-202.6l-202.6-1.1v.4Z" fill="#263238" stroke-width="0"/>
  <path d="M393,1507c3.8,8-10.6,65.8-15.2,77.5-4.6,11.8-20.5,77.9-28.1,81-7.6,3-45.2,1.9-50.6,0-5.3-1.9,0-13.3,6.1-17.5,6.1-3.8,13.3-9.9,13.3-9.9,0,0-11-102.2-8.7-113.6,1.9-11.4,73.7-39.1,83.6-17.5h-.4Z" fill="#4361ee" stroke-width="0"/>
  <path d="M393,1507c3.8,8-10.6,65.8-15.2,77.5-4.6,11.8-20.5,77.9-28.1,81-7.6,3-45.2,1.9-50.6,0-5.3-1.9,0-13.3,6.1-17.5,6.1-3.8,13.3-9.9,13.3-9.9,0,0-11-102.2-8.7-113.6,1.9-11.4,73.7-39.1,83.6-17.5h-.4Z" fill="#000" isolation="isolate" opacity=".1" stroke-width="0"/>
  <path d="M314.3,1661.3c.4-1.9,1.1-3.8,2.7-5.7,1.1-1.5,2.7-3,4.2-4.2,1.5-1.1,3.4-2.3,5.3-2.7h0c-.8.8-1.5,1.1-1.9,1.9-.8.8-1.5,1.5-1.9,1.9-1.1,1.5-2.3,2.7-3,4.6-.8,1.5-1.9,3-2.7,4.9-.8,1.5-1.1,3.4-1.9,5.3h0v-6.1h-.8Z" fill="#000" isolation="isolate" opacity=".1" stroke-width="0"/>
  <path d="M303.3,1655.2c1.9-3.4,5.3-6.5,9.1-8,0,0,.4,0,0,.4-3,2.3-5.3,4.9-7.2,8.4-1.1,1.5-1.5,3.4-1.9,5.3,0,1.9,0,3.8.4,5.7h0c-1.1-1.5-1.9-3.8-1.9-5.7s.4-4.2,1.5-5.7v-.4Z" fill="#000" isolation="isolate" opacity=".1" stroke-width="0"/>
  <path d="M312.4,1581.1l51.7,49c5.7-18.6,11-39.1,13.3-45.2,4.6-11.8,19-69.6,15.2-77.5-9.9-21.7-81.7,6.1-83.6,17.5-.8,5.3,1.1,30.8,3.4,56.3Z" fill="#000" isolation="isolate" opacity=".1" stroke-width="0"/>
  <path d="M588,1564.8c2.3,1.9,22.4-17.1,25.5-26.2,3-9.1-9.9-34.6-7.6-38.8,2.3-4.2,13.3-7.6,19.4-1.1,5.7,6.8,20.5,42.9,17.5,58.5-3,15.6-34.2,50.2-37.6,50.2s-17.1-42.9-17.1-42.9v.4Z" fill="#4361ee" stroke-width="0"/>
  <path d="M588,1564.8s13.7,42.6,17.1,42.6,19.8-18.6,30.4-34.6l-28.5-23.9c-7.2,8.4-17.1,17.1-18.6,15.6l-.4.4Z" fill="#000" isolation="isolate" opacity=".1" stroke-width="0"/>
  <path d="M473.2,1389.2h-168.8s-12.5,111-11,125.8c1.5,14.8,75.6,123.5,98.4,137.6,23.2,14.1,155.1,14.8,187.4,7.6,25.1-5.7,46-37.6,35.3-86.7-4.6-21.7-63.1-72.6-71.5-82.5-8-9.9-69.9-102.2-69.9-102.2v.4Z" fill="#c7c7c7" stroke-width="0"/>
  <path d="M293,1515c1.5,14.8,75.6,123.5,98.4,137.6,22.8,14.1,155.1,14.8,187.4,7.6,25.1-5.7,46-37.6,35.3-86.7-4.6-21.3-63.1-72.6-71.5-82.5-4.9-6.1-30-42.9-49-70.7-11.8-17.5-21.3-31.5-21.3-31.5h-168.8s-3,27.7-6.1,57.4c-3,29.6-5.7,61.2-4.9,68.4l.4.4Z" fill="#4361ee" stroke-width="0"/>
  <path d="M298.4,1446.6c90.8,28.1,171.4-11.8,196.1-26.2-11.8-17.5-21.3-31.5-21.3-31.5h-168.8s-3,27.7-6.1,57.4v.4Z" fill="#000" isolation="isolate" opacity=".1" stroke-width="0"/>
  <path d="M582.3,1568.2s-46.4-29.3-79.1-23.9c-32.7,5.3-44.1,72.2-28.5,109.8,0,0-29.6,8.7-29.6,23.2s17.1,10.6,41.4,10.3c24.3-.4,73.4-1.1,74.1-7.2,0-4.9-.8-10.3-3-14.8,0,0,44.1-4.9,52.5-34.2,8.7-29.3-20.5-58.2-27.7-63.1h0Z" fill="#4361ee" stroke-width="0"/>
  <path d="M518.8,1657.5c12.5,4.9,25.8,8,39.1,8.7v.4c-13.7,1.5-27.4-1.9-39.1-8.7,0,0,0-.4,0,0v-.4Z" fill="#000" isolation="isolate" opacity=".1" stroke-width="0"/>
  <path d="M464.1,1687.9c1.5-5.3,5.3-10.3,10.3-12.9,2.7-1.9,5.7-3.4,8.7-4.2,3.4-1.1,7.2-1.9,10.6-3,0,0,.4,0,0,.4-3,1.1-6.1,2.3-8.7,4.2-2.7,1.5-5.7,3-8.4,4.9-4.6,3-8.4,6.8-11.4,11.4,0,.4-1.1,0-.8-.4l-.4-.4Z" fill="#000" isolation="isolate" opacity=".1" stroke-width="0"/>
  <path d="M470.2,1664.7h0c-9.1,3.8-16.3,11-20.1,19.8,0,.4-.8.4-.8,0,.8-5.3,3-9.9,6.8-13.7,3.8-3.8,8.7-6.1,13.7-6.5l.4.4Z" fill="#000" isolation="isolate" opacity=".1" stroke-width="0"/>
  <path d="M455.7,1662.8h0c5.7-3.4,11.8-6.1,18.2-8.4.8,1.5,1.5,2.7,2.3,3.8,0,0,.8,0,.4,0-5.7-11.8-8.4-24.7-8-37.6,0-6.8.4-13.7,1.1-20.5,1.5-11.8,5.3-23.6,11-34.2,3-6.8,8-12.5,14.4-16.3,6.8-3.4,14.1-4.6,21.3-3.8,7.6.4,15.2,1.9,22.4,4.2,7.2,1.9,14.8,4.6,21.7,7.6-13.7-7.6-28.5-12.5-44.1-14.8-8-1.1-16.3,0-23.6,3.8-6.8,4.2-12.2,10.3-16,17.5-7.2,14.1-11,29.3-11.8,45.2v12.5c0,11.4,2.7,22.4,8,32.3-6.8,1.1-13.3,4.2-18.2,8.7h.8Z" fill="#000" isolation="isolate" opacity=".1" stroke-width="0"/>
  <path d="M447.4,1521.5c3.8,8-10.6,65.8-15.2,77.5-4.6,11.8-20.5,77.9-28.1,81-7.6,3-45.2,1.9-50.6,0-5.3-1.9,0-13.3,6.1-17.1,6.1-3.8,13.3-9.9,13.3-9.9,0,0-11-102.2-8.7-113.6,1.9-11.4,73.7-39.1,83.6-17.5l-.4-.4Z" fill="#4361ee" stroke-width="0"/>
  <path d="M422.3,1630.9c3.4-10.3,8-20.5,11.4-30.8,0-.4.8,0,.8,0-2.7,8.4-4.6,17.1-7.2,25.5,0-.4.8-1.1,1.1-1.9,2.7-3,4.6-6.8,6.1-10.6h0c-.4,1.9-1.1,3.4-2.3,4.9-1.1,1.9-1.9,3.8-3,5.7-1.1,1.9-2.7,4.9-4.2,7.2h0c-3,11-7.2,21.3-11.4,31.5h0c2.7-10.6,5.7-21.3,9.1-31.5h-.4Z" fill="#000" isolation="isolate" opacity=".1" stroke-width="0"/>
  <path d="M362.6,1555.3h.4c1.1,7.6,1.5,15.6,2.3,23.2.8,7.6,1.9,16,2.7,24.3,1.9,16,4.6,31.9,5.7,48.3,0,.8-1.1.8-1.5,0-3.8-15.6-6.5-31.2-8-47.1-.8-8-1.1-16-1.5-23.6-.8-8.4-.8-16.7,0-25.1Z" fill="#000" isolation="isolate" opacity=".1" stroke-width="0"/>
  <path d="M367.2,1674.6c.4-1.9,1.1-3.8,2.3-5.7,1.1-1.5,2.7-3,4.2-4.2,1.5-1.1,3.4-2.3,5.3-2.7h0c-.8.8-1.5,1.1-1.9,1.9l-1.9,1.9c-1.1,1.5-2.3,2.7-3,4.6-.8,1.5-1.9,3-2.7,4.9-.8,1.5-1.1,3.4-1.9,5.3h0c-.4-1.9,0-4.2,0-6.1h-.4Z" fill="#000" isolation="isolate" opacity=".1" stroke-width="0"/>
  <path d="M356.1,1668.6c2.3-3.8,5.3-6.5,9.1-8,0,0,.4,0,0,0-3,2.3-5.3,4.9-7.2,8.4-1.1,1.5-1.5,3.4-1.9,5.3,0,1.9,0,3.8.4,5.7h0c-1.1-1.5-1.9-3.8-1.9-5.7s0-4.2,1.5-5.7Z" fill="#000" isolation="isolate" opacity=".1" stroke-width="0"/>
  <path d="M369.1,1234.5c1.9-6.8-14.8-30.4-21.3-38-6.5-8-41.4-19.8-52.5-13.7-4.6,2.3-12.5,19.4-23.6,33.8-17.1,22.4-36.9,46.4-29.6,52.5,17.5,15.6,57.4-9.1,70.3-17.1,12.9-8,24.7-18.2,28.1-17.9,4.2.4,12.9,7.2,16.3,7.6,2.7,0,4.9-.4,7.2-1.5,2.3-1.1,3.8-3,4.9-5.3v-.4Z" fill="#4361ee" stroke-width="0"/>
  <path d="M369.1,1234.5c1.9-6.8-14.8-30.4-21.3-38-6.5-8-41.4-19.8-52.5-13.7-4.6,2.3-12.5,19.4-23.6,33.8-17.1,22.4-36.9,46.4-29.6,52.5,17.5,15.6,57.4-9.1,70.3-17.1,12.9-8,24.7-18.2,28.1-17.9,4.2.4,12.9,7.2,16.3,7.6,2.7,0,4.9-.4,7.2-1.5,2.3-1.1,3.8-3,4.9-5.3v-.4Z" fill="#000" isolation="isolate" opacity=".1" stroke-width="0"/>
  <path d="M449.6,1210.9c40.7,24.3,58.9,89.3,60.1,99.6.8,8.4,20.5,38.4,16.7,70.7-2.3,20.5-39.5,48.3-69.6,47.9-5.7,0-52.8,17.1-92.4,14.4-39.9-2.7-69.9-31.2-71.1-33.4-1.1-2.3-33.8-7.2-35.7-40.3-3-53.2,50.9-143.7,66.5-155.8,25.8-20.5,97.7-19.4,125.4-3h0Z" fill="#4361ee" stroke-width="0"/>
  <path d="M430.3,1239.1c-.8-7.2,20.5-28.9,28.5-36.1,8-7.2,46-13.7,56.6-5.7,4.2,3.4,9.9,22,18.6,38.8,13.7,26.2,30.4,54,22,59.7-20.9,13.3-58.2-18.6-70.3-29.6-12.2-10.6-22.8-22.8-26.2-23.2-4.6,0-14.4,5.3-18.2,4.9-2.7,0-4.9-1.1-7.2-3-1.9-1.5-3.4-3.8-4.2-6.5l.4.8Z" fill="#4361ee" stroke-width="0"/>
  <path d="M430.3,1239.1c-.8-7.2,20.5-28.9,28.5-36.1,8-7.2,46-13.7,56.6-5.7,4.2,3.4,9.9,22,18.6,38.8,13.7,26.2,30.4,54,22,59.7-20.9,13.3-58.2-18.6-70.3-29.6-12.2-10.6-22.8-22.8-26.2-23.2-4.6,0-14.4,5.3-18.2,4.9-2.7,0-4.9-1.1-7.2-3-1.9-1.5-3.4-3.8-4.2-6.5l.4.8Z" fill="#000" isolation="isolate" opacity=".1" stroke-width="0"/>
  <path d="M355.8,1329.9c25.1,0,36.5,27,39.5,33.8,3,6.8,18.6,22.8,19,39.5.4,16.7-31.2,35.3-64.6,29.6-33.4-5.7-50.9-24.7-50.6-41.4,0-13.7,12.9-25.5,14.4-28.9,1.5-3.4,19.8-32.7,42.6-32.3l-.4-.4Z" fill="#000" isolation="isolate" opacity=".1" stroke-width="0"/>
  <path d="M417.3,1377c3.4,3.8,6.1,8,8.4,12.5,2.3,4.6,3.8,9.5,4.9,14.4,1.1,5.3.4,10.6-1.5,15.6-1.1,2.3-2.7,4.6-4.9,6.1-1.9,1.5-4.2,2.7-6.8,3.4,4.2-2.7,7.2-6.5,9.1-11,1.5-4.6,1.5-9.1.8-13.7-.8-4.9-2.3-9.5-3.8-14.1-1.9-4.6-3.8-9.1-5.7-13.7l-.4.4Z" fill="#000" isolation="isolate" opacity=".1" stroke-width="0"/>
  <path d="M302.5,1367.1c-2.3,2.7-4.2,5.3-6.1,8-1.9,2.7-3.4,5.3-4.9,8.4-1.1,2.7-1.9,5.7-2.3,9.1,0,3.4.8,6.5,1.9,9.5-2.7-2.7-4.2-5.7-4.6-9.5,0-3.8,0-7.2,1.9-10.6,3-6.5,8-11.4,14.4-14.8h-.4Z" fill="#000" isolation="isolate" opacity=".1" stroke-width="0"/>
  <path d="M693.3,1725.2c-41,0-86.3-.8-131.5-1.5-23.6-.4-41.8-.8-53.6-.8-58.9,0-76-76-92.4-149.4-2.3-10.3-4.6-20.5-6.8-30.4-4.6-19.8-8.4-39.5-12.2-58.5-11.4-59.3-21.7-110.6-47.9-113.3-34.6-3.8-65.4,47.9-76.4,128.5l-7.6-1.1c11.8-85.1,46-139.5,84.8-134.9,31.5,3.4,42.2,57,54.4,119.3,3.8,19,7.6,38.8,12.2,58.2,2.3,10.3,4.6,20.5,6.8,30.8,16.3,73.7,31.9,143.3,85.1,143.3s30,0,53.6.8c51.3,1.1,121.6,2.3,181.3,1.1,96.5-1.9,107.9-9.5,109.1-11.8,0-16-101.9-35-140.2-41.8-38.4-7.2-40.3-7.6-39.9-12.2s5.3-4.2,12.2-4.2h159.3c49.8,0,66.1-71.8,75.6-114.8,1.5-9.1,4.2-18.2,7.2-27,11-23.2,39.5-19.8,40.7-19.8l-1.1,7.6c-1.1,0-23.9-2.7-32.7,15.6-3,8.4-5.3,16.7-6.8,25.5-10.3,45.2-27,120.9-83.2,120.9h-138.3l8,1.5c92.7,17.5,146.7,31.2,146.7,49.8s0,1.9-.8,3c-.4.8-1.1,1.9-1.9,2.3-11.4,11-78.3,14.1-164.2,14.1l.8-.8Z" fill="#263238" stroke-width="0"/>
  <path d="M293,1494.1l-46.7-2.7-1.5,28.1,46.7,2.7,1.5-28.1Z" fill="#455a64" stroke-width="0"/>
  <path d="M284.7,1484.6l-28.9-1.9v8.7c-.4,0,28.5,1.9,28.5,1.9v-8.7h.4Z" fill="#37474f" stroke-width="0"/>
  <path d="M260,1520.3h-5.3l-1.1,20.9h5.3l1.1-20.9Z" fill="#4361ee" stroke-width="0"/>
  <path d="M281.3,1521.5h-5.3l-1.1,20.9h5.3l1.1-20.9Z" fill="#4361ee" stroke-width="0"/>
  <path d="M981.7,1465.2v46.7h20.5v-46.7h-20.5Z" fill="#455a64" stroke-width="0"/>
  <path d="M965.4,1473.9v29.3h16.3v-29.3h-16.3Z" fill="#37474f" stroke-width="0"/>
  <path d="M324.2,1370.6s9.9,11.4,13.7,9.1c3.8-2.3,13.3-25.1,13.3-25.1,0,0,2.3,28.9,9.9,29.6,7.2.8,20.1-10.6,20.1-10.6l-30-20.9-27,17.9Z" fill="#4361ee" stroke-width="0"/>
  <path d="M324.2,1370.6s9.9,11.4,13.7,9.1c3.8-2.3,13.3-25.1,13.3-25.1,0,0,2.3,28.9,9.9,29.6,7.2.8,20.1-10.6,20.1-10.6l-30-20.9-27,17.9Z" fill="#000" isolation="isolate" opacity=".1" stroke-width="0"/>
  <path d="M470.9,1334.8c3-9.1,3.8-19,3-28.5-.4-4.9-1.5-9.9-3.4-14.4-1.1-2.3-2.3-4.6-3.8-6.8-1.5-2.3-3-4.2-4.9-6.1q-1.9-1.9-3-2.3c-1.1-.8-2.3-1.5-3.4-1.9l-1.5-.8-1.9-.8c-1.1-.4-2.7-1.1-3.8-1.5-4.9-1.5-10.3-1.9-15.2-1.5-9.9.8-19,4.6-27,10.6,8.7-3.4,17.9-4.9,27-4.9s8.7.8,12.9,2.3c1.1,0,1.9.8,3,1.1l1.5.8,1.5.8c.8.4,1.9,1.1,2.7,1.5.8.8,1.5,1.1,2.3,1.9,3,3,5.7,6.5,7.2,10.3,1.9,4.2,3.4,8.4,4.2,12.5,1.9,9.1,3,18.6,3,27.7h-.4Z" fill="#000" isolation="isolate" opacity=".1" stroke-width="0"/>
  <path d="M285.8,1315.5c.4-8,1.5-15.6,3.8-23.2,1.9-7.2,5.7-13.3,11.4-18.2,1.5-1.1,3-1.9,4.6-2.7,1.5-.8,3-1.1,4.9-1.5,3.8-.4,7.2,0,11,0,8,1.5,15.6,3.4,23.2,6.1-3-2.7-6.5-4.9-10.3-6.8-1.9-.8-3.8-1.9-5.7-2.7-1.9-.8-3.8-1.5-6.1-1.9-4.2-1.1-8.7-1.9-12.9-1.5-2.3,0-4.6.8-6.8,1.5-2.3.8-4.2,1.9-6.1,3.4-3.4,2.7-6.5,6.1-8.7,10.3-1.9,3.8-3,8-3.8,12.2-1.5,8.4-.8,16.7,1.5,24.7v.4Z" fill="#000" isolation="isolate" opacity=".1" stroke-width="0"/>
  <path d="M409.3,1323.1c0-.4,1.1.4.8,1.1-.8,11.4,0,24.7,11.4,28.9v.8c-14.1-2.3-15.2-20.1-12.2-30.8Z" fill="#263238" stroke-width="0"/>
  <path d="M421.1,1311.3c20.1-.4,20.1,36.5,1.5,36.9s-18.2-36.5-1.5-36.9Z" fill="#263238" stroke-width="0"/>
  <path d="M330.7,1313.9c0-.4-1.1.4-1.1.8-.8,11.4-3.8,24.3-15.2,27v.8c14.1-.4,17.5-17.9,16.3-28.9v.4Z" fill="#263238" stroke-width="0"/>
  <path d="M320.8,1301c-20.1-3.4-25.1,33.4-6.5,36.5,18.6,3,23.6-33.8,6.5-36.5Z" fill="#263238" stroke-width="0"/>
  <path d="M350.4,1353.5c3.8,1.1,28.5-6.8,26.6-14.4-2.3-8.4-37.2-10.3-41.8-4.9-4.6,5.3,11.4,17.9,15.2,19v.4Z" fill="#263238" stroke-width="0"/>
  <path d="M381.6,1373.2c-4.2,3-8.4,5.7-12.5,8-2.3,1.1-4.6,1.9-6.8,1.9s-2.7-1.5-3.4-3.4c-1.5-3.8-2.7-8-3-12.2-.8-4.2-1.1-8.4-1.5-12.5l-1.1-11.4-3.4,11c-1.1,3.4-2.3,6.8-3.4,10.3-1.1,3.4-2.7,6.8-4.6,9.9-.4.8-.8,1.5-1.5,2.3-.4.8-1.1,1.5-1.9,1.9-.8,0-1.5.4-1.9,0-1.1,0-1.9-.8-2.7-1.1-3.4-2.3-6.5-4.9-9.1-8,1.9,3.8,4.6,6.8,7.6,9.5,1.1.8,2.3,1.5,3.4,1.9h2.3c.8,0,1.5,0,2.3-.8,1.1-.8,1.9-1.5,2.7-2.3.8-.8,1.1-1.5,1.9-2.7,2.3-3.4,3.8-6.8,5.3-10.3,1.5-3.4,2.7-6.8,3.8-10.6h-4.6c0,3.8.8,8.4,1.9,12.5.4,2.3,1.1,4.2,1.5,6.5.8,2.3,1.5,4.2,2.7,6.5.8,1.1,1.5,2.3,2.3,3,.8.8,1.1,1.1,1.9,1.5.4,0,1.1.4,1.5.4h1.5c3,0,5.7-1.1,8.4-3,4.2-2.7,8-6.1,11.4-9.5l-.8.8Z" fill="#263238" stroke-width="0"/>
  <path d="M190.8,1504.7c15.2-.8,30.4,0,45.2,3-15.2.8-30.4,0-45.2-3Z" fill="#263238" stroke-width="0"/>
  <path d="M300.3,1528.7c7.2,2.7,14.1,5.3,20.9,8.7,6.8,3.4,13.3,7.2,19.4,11.4-14.1-4.9-27.7-11.8-40.3-20.5h0v.4Z" fill="#263238" stroke-width="0"/>
  <path d="M214.7,1581.1c7.6-13.3,16.7-25.1,27-36.1-3.8,6.5-8,12.9-12.5,19-4.6,6.1-9.5,11.8-14.8,17.1h.4Z" fill="#263238" stroke-width="0"/>
  <path d="M172.2,1459.9c6.1,1.9,11.8,3.8,17.5,6.1,5.7,2.3,11.4,4.6,17.1,6.8,5.7,2.3,11.4,4.9,16.7,7.6,5.3,2.7,11,5.3,16.3,8.4-6.1-1.9-11.8-4.2-17.5-6.1-5.7-2.3-11.4-4.6-17.1-6.8-5.7-2.3-11.4-4.9-16.7-7.6-5.3-2.7-11-5.3-16.3-8.4Z" fill="#263238" stroke-width="0"/>
  <path d="M305.6,1493.3c5.3-2.7,10.6-4.9,16.3-6.5,5.7-1.9,11.4-3,17.1-3.8-10.6,5.3-22,8.7-33.8,10.3h.4Z" fill="#263238" stroke-width="0"/>
  <path d="M251.2,1474.3c-3-4.9-6.1-9.9-8.7-15.2-2.7-5.3-5.3-10.3-8-15.6-2.7-5.3-4.9-10.3-7.6-15.6-2.3-5.3-4.6-10.6-6.8-16,3,4.9,6.1,9.9,8.7,15.2,2.7,5.3,5.3,10.3,8,15.6,2.7,5.3,4.9,10.3,7.6,15.6,2.7,5.3,4.6,10.6,6.8,16Z" fill="#263238" stroke-width="0"/>
  <path d="M328,1594.4c-3.4-3.8-6.5-8-9.5-12.2-3-4.2-6.1-8.4-9.1-12.5-3-4.2-5.7-8.4-8.4-12.9-2.7-4.6-5.3-8.7-8-13.3,3.4,3.8,6.5,8,9.5,12.2,3,4.2,6.1,8.4,9.1,12.5,3,4.2,5.7,8.4,8.4,12.9,2.7,4.2,5.3,8.7,8,13.3Z" fill="#263238" stroke-width="0"/>
  <path d="M1350,642h-314.3l-24.3-213.2h314.3l24.3,213.2Z" fill="#a6a6a6" stroke-width="0"/>
  <path d="M1332.9,627.5h-283.2l-20.9-184.7h283.2l20.9,184.7Z" fill="#fff" stroke-width="0"/>
  <path d="M1158.1,540.1l-4.6,5.3-44.5-38.4,4.6-5.3,44.5,38.4Z" fill="#4361ee" stroke-width="0"/>
  <path d="M1146.7,501.3l6.1,5.3-32.3,38.4-6.1-5.3,32.3-38.4Z" fill="#4361ee" stroke-width="0"/>
  <path d="M1253.5,540.1l-4.6,5.3-44.5-38.4,4.6-5.3,44.5,38.4Z" fill="#4361ee" stroke-width="0"/>
  <path d="M1242.1,501.3l6.1,5.3-32.3,38.4-6.1-5.3,32.3-38.4Z" fill="#4361ee" stroke-width="0"/>
  <path d="M1103.4,577l-1.1-7.6h172.6l1.1,7.6h-172.6Z" fill="#4361ee" stroke-width="0"/>
  <path d="M1442.4,627.5h-404v14.4h404v-14.4Z" fill="#a6a6a6" stroke-width="0"/>
  <path d="M1476.6,627.5h-350.4v14.4h350.4v-14.4Z" fill="#c7c7c7" stroke-width="0"/>
  <path d="M1313.2,451.5l-1.1-9.1h-283.2l1.1,9.1h283.2Z" fill="#263238" stroke-width="0"/>
  <path d="M1052.8,447.4c0,.8,0,1.1.8,1.5.4.4,1.1.8,1.5.8h.8s.4,0,.8-.4v-1.5c0-.8,0-1.1-.8-1.5-.4-.4-1.1-.8-1.5-.8h-.8s-.4,0-.8.4v1.5Z" fill="#c7c7c7" stroke-width="0"/>
  <path d="M1044.5,447.4c0,.8,0,1.1.8,1.5.4.4,1.1.8,1.5.8h.8s.4,0,.8-.4v-1.5c0-.8,0-1.1-.8-1.5-.4-.4-1.1-.8-1.5-.8h-.8s-.4,0-.8.4v1.5Z" fill="#fff" stroke-width="0"/>
  <path d="M1036.5,447.4c0,.8,0,1.1.8,1.5.4.4,1.1.8,1.5.8h.8s.4,0,.8-.4v-1.5c0-.8,0-1.1-.8-1.5-.4-.4-1.1-.8-1.5-.8h-.8s-.4,0-.8.4v1.5Z" fill="#4361ee" stroke-width="0"/>
  <g>
    <path d="M217.8,886.7h-62.7v-62.3H0v-70.7l140.2-180.5h77.5v193.1h44.8v58.2h-44.8v62.3ZM62.7,766.2h92v-118.2l-92,118.2Z" fill="#263238" stroke-width="0"/>
    <path d="M332.2,618c21.7-30,57.8-49.4,101.9-49.4s91.6,28.1,112.1,68c15.2,27,21.7,58.5,21.7,91.6,0,50.2-16.3,98.1-48.3,129.2-20.9,20.5-51.7,33.4-87,33.4-54.4,0-92.4-28.1-112.9-68.4-14.4-27.4-20.9-58.9-20.9-92.4s11.8-81.3,33.1-111.7l.4-.4ZM374.8,781.8c9.5,26.2,29.3,46.4,58.9,46.7,49.4,0,68.4-58.2,68.4-99.2s-5.3-44.8-15.6-65c-10.3-20.1-29.3-33.8-52.8-33.8s-35.7,9.5-46,22.8c-10.3,13.3-17.5,31.9-20.5,49.8-4.6,25.8-3,52.5,7.6,78.7Z" fill="#263238" stroke-width="0"/>
    <path d="M683.8,886.7v-236l-66.1,38-28.9-52.8,106.4-62.3h53.2v313.6h-64.6v-.4Z" fill="#263238" stroke-width="0"/>
  </g>
</svg>