<?xml version="1.0" encoding="UTF-8"?>
<svg id="katman_1" data-name="katman 1" xmlns="http://www.w3.org/2000/svg" version="1.1" viewBox="0 0 1666.6 1751.1">
  <path d="M1492.5,273.8h100.8v-42.6h-100.8v42.6Z" fill="none" stroke="#888ea8" stroke-miterlimit="10" stroke-width=".8"/>
  <path d="M1548.7,220.2h100.8v-42.6h-100.8v42.6Z" fill="none" stroke="#888ea8" stroke-miterlimit="10" stroke-width=".8"/>
  <path d="M855.8,693h100.8v-42.6h-100.8v42.6Z" fill="none" stroke="#888ea8" stroke-miterlimit="10" stroke-width=".8"/>
  <path d="M912.1,639.4h100.8v-42.6h-100.8v42.6Z" fill="none" stroke="#888ea8" stroke-miterlimit="10" stroke-width=".8"/>
  <path d="M968,693h100.8v-42.6h-100.8v42.6Z" fill="none" stroke="#888ea8" stroke-miterlimit="10" stroke-width=".8"/>
  <path d="M62,220.2h100.8v-42.6H62s0,42.6,0,42.6Z" fill="none" stroke="#888ea8" stroke-miterlimit="10" stroke-width=".8"/>
  <path d="M118.3,1220.9h100.8v-42.6h-100.8v42.6Z" fill="none" stroke="#888ea8" stroke-miterlimit="10" stroke-width=".8"/>
  <path d="M62,1167.3h100.8v-42.6H62s0,42.6,0,42.6Z" fill="none" stroke="#888ea8" stroke-miterlimit="10" stroke-width=".8"/>
  <path d="M1492.5,1220.9h100.8v-42.6h-100.8v42.6Z" fill="none" stroke="#888ea8" stroke-miterlimit="10" stroke-width=".8"/>
  <path d="M699.1,1603.1v-478.1l101.6-138.8v-259.8" fill="none" stroke="#888ea8" stroke-miterlimit="10"/>
  <path d="M791.9,717.7c0,1.9.4,3.4,1.5,4.9,1.1,1.5,2.3,2.7,4.2,3.4,1.5.8,3.4.8,5.3.4,1.9,0,3.4-1.1,4.6-2.7,1.1-1.1,2.3-3,2.3-4.6s0-3.4-.4-5.3c-.8-1.5-1.9-3-3.4-4.2-1.5-1.1-3.4-1.5-4.9-1.5s-2.3,0-3.4.8c-1.1.4-2.3,1.1-3,1.9-.8.8-1.5,1.9-1.9,3s-.8,2.3-.8,3.4v.4Z" fill="none" stroke="#888ea8" stroke-miterlimit="10"/>
  <path d="M725.3,1603.1v-461l101.6-138.8v-181.4" fill="none" stroke="#888ea8" stroke-miterlimit="10"/>
  <path d="M818.1,812.8c0,1.9.4,3.4,1.5,4.9,1.1,1.5,2.3,2.7,4.2,3.4,1.5.8,3.4.8,5.3.4,1.9,0,3.4-1.1,4.6-2.3,1.1-1.1,2.3-3,2.7-4.6,0-1.9,0-3.4-.4-5.3-.8-1.5-1.9-3-3.4-4.2-1.5-1.1-3.4-1.5-4.9-1.5s-4.6.8-6.5,2.7c-1.5,1.5-2.7,3.8-2.7,6.5h-.4Z" fill="none" stroke="#888ea8" stroke-miterlimit="10"/>
  <path d="M674,1603.1v-632.9" fill="none" stroke="#888ea8" stroke-miterlimit="10"/>
  <path d="M664.8,961.5c0,1.9.4,3.4,1.5,4.9,1.1,1.5,2.3,2.7,4.2,3.4,1.5.8,3.4.8,5.3.4,1.9,0,3.4-1.1,4.6-2.3,1.1-1.1,2.3-3,2.7-4.6,0-1.9,0-3.4-.4-5.3-.8-1.5-1.9-3-3.4-4.2-1.5-1.1-3.4-1.5-4.9-1.5s-4.6.8-6.5,2.7c-1.5,1.5-2.7,3.8-2.7,6.5h-.4Z" fill="none" stroke="#888ea8" stroke-miterlimit="10"/>
  <path d="M649.6,1603.1v-321.8l-68.8-130.1v-233.5" fill="none" stroke="#888ea8" stroke-miterlimit="10"/>
  <path d="M571.7,909c0,1.9.4,3.4,1.5,4.9,1.1,1.5,2.3,2.7,4.2,3.4,1.5.8,3.4.8,5.3.4,1.9,0,3.4-1.1,4.6-2.7,1.1-1.5,2.3-3,2.7-4.6,0-1.9,0-3.4-.4-5.3-.8-1.5-1.9-3-3.4-4.2-1.5-1.1-3.4-1.5-4.9-1.5s-2.3,0-3.4.8c-1.1.4-2.3,1.1-3,1.9-.8.8-1.5,1.9-1.9,3-.4,1.1-.8,2.3-.8,3.4l-.4.4Z" fill="none" stroke="#888ea8" stroke-miterlimit="10"/>
  <path d="M625.3,1603.1v-307.7l-81.4-143.8v-153.7" fill="none" stroke="#888ea8" stroke-miterlimit="10"/>
  <path d="M535.1,988.9c0,1.9.4,3.4,1.5,4.9,1.1,1.5,2.3,2.7,4.2,3.4,1.5.8,3.4.8,5.3.4,1.9,0,3.4-1.1,4.6-2.3,1.1-1.1,2.3-3,2.7-4.6,0-1.9,0-3.4-.4-5.3-.8-1.5-1.9-3-3.4-4.2-1.5-1.1-3.4-1.5-4.9-1.5-2.3,0-4.6,1.1-6.5,2.7-1.5,1.5-2.7,3.8-2.7,6.5h-.4Z" fill="none" stroke="#888ea8" stroke-miterlimit="10"/>
  <path d="M326,143V0" fill="none" stroke="#3b3f5c" stroke-miterlimit="10"/>
  <path d="M414.2,227.8l-7.2,15.6h-162.4l-7.2-15.6,69.2-47.9h38.4l69.2,47.9h0Z" fill="#888ea8" stroke-width="0"/>
  <path d="M349.9,133.9l-4.9,46h-38.4l-4.9-46h48.3Z" fill="#6b7280" stroke-width="0"/>
  <path d="M414.2,227.8l-7.2,15.6h-162.4l-7.2-15.6h176.9Z" fill="#6b7280" stroke-width="0"/>
  <path d="M679.3,143V0" fill="none" stroke="#3b3f5c" stroke-miterlimit="10"/>
  <path d="M767.5,227.8l-7.2,15.6h-162.4l-7.2-15.6,69.2-47.9h38.4l69.2,47.9h0Z" fill="#888ea8" stroke-width="0"/>
  <path d="M703.2,133.9l-4.9,46h-38.4l-4.9-46h48.3Z" fill="#6b7280" stroke-width="0"/>
  <path d="M767.5,227.8l-7.2,15.6h-162.4l-7.2-15.6h176.9Z" fill="#6b7280" stroke-width="0"/>
  <path d="M1032.2,143V0" fill="none" stroke="#3b3f5c" stroke-miterlimit="10"/>
  <path d="M1120.5,227.8l-7.2,15.6h-162.4l-7.2-15.6,69.2-47.9h38.4l69.2,47.9h0Z" fill="#888ea8" stroke-width="0"/>
  <path d="M1056.2,133.9l-4.9,46h-38.4l-4.9-46h48.3Z" fill="#6b7280" stroke-width="0"/>
  <path d="M1120.5,227.8l-7.2,15.6h-162.4l-7.2-15.6h176.9Z" fill="#6b7280" stroke-width="0"/>
  <path d="M1385.6,143V0" fill="none" stroke="#3b3f5c" stroke-miterlimit="10"/>
  <path d="M1473.8,227.8l-7.2,15.6h-162.4l-7.2-15.6,69.2-47.9h38.4l69.2,47.9h0Z" fill="#888ea8" stroke-width="0"/>
  <path d="M1409.5,133.9l-4.9,46h-38.4l-4.9-46h48.3Z" fill="#6b7280" stroke-width="0"/>
  <path d="M1473.8,227.8l-7.2,15.6h-162.4l-7.2-15.6h176.9Z" fill="#6b7280" stroke-width="0"/>
  <path d="M607.8,1751.1c223.6,0,404.7-28.9,404.7-64.7s-181-64.7-404.7-64.7-404.7,28.9-404.7,64.7,181,64.7,404.7,64.7h0Z" fill="#506690" isolation="isolate" opacity=".2" stroke-width="0"/>
  <path d="M1169.2,670.9h-247.2v932.6h247.2v-932.6h0Z" fill="#3b3f5c" stroke-width="0"/>
  <path d="M1624.1,670.9h-455.3v932.6h455.3v-932.6h0Z" fill="#1b2e4b" stroke-width="0"/>
  <path d="M1595.9,1482.6h-392.5v90.5h392.5v-90.5h0Z" fill="#3b3f5c" stroke-width="0"/>
  <path d="M1443.4,1497.4h-223.6v7.6h223.6v-7.6Z" fill="#1b2e4b" stroke-width="0"/>
  <path d="M1443.4,1510.7h-223.6v7.6h223.6v-7.6Z" fill="#1b2e4b" stroke-width="0"/>
  <path d="M1443.4,1524h-223.6v7.6h223.6v-7.6Z" fill="#1b2e4b" stroke-width="0"/>
  <path d="M1443.4,1537.3h-223.6v7.6h223.6v-7.6Z" fill="#1b2e4b" stroke-width="0"/>
  <path d="M1443.4,1550.6h-223.6v7.6h223.6v-7.6Z" fill="#1b2e4b" stroke-width="0"/>
  <path d="M1484.1,1505c0,1.5-.4,3-1.1,4.2-.8,1.1-1.9,2.3-3.4,2.7-1.5.8-3,.8-4.6.4-1.5,0-2.7-1.1-3.8-1.9-1.1-.8-1.9-2.3-1.9-3.8s0-3,.4-4.6c.8-1.5,1.5-2.7,2.7-3.4,1.1-.8,2.7-1.1,4.2-1.1s3.8.8,5.3,2.3c1.5,1.5,2.3,3.4,2.3,5.3h0Z" fill="#fff" stroke-width="0"/>
  <path d="M1509.2,1505c0,1.5-.4,3-1.1,4.2-.8,1.1-1.9,2.3-3.4,2.7-1.5.8-3,.8-4.6.4-1.5,0-2.7-1.1-3.8-1.9-1.1-1.1-1.9-2.3-1.9-3.8s0-3,.4-4.6c.8-1.5,1.5-2.7,2.7-3.4,1.1-.8,2.7-1.1,4.2-1.1s3.8.8,5.3,2.3c1.5,1.5,2.3,3.4,2.3,5.3h0Z" fill="#fff" stroke-width="0"/>
  <path d="M1533.9,1505c0,1.5-.4,3-1.1,4.2-.8,1.1-1.9,2.3-3.4,2.7-1.5.8-3,.8-4.6.4-1.5,0-2.7-1.1-3.8-1.9-1.1-1.1-1.9-2.3-1.9-3.8s0-3,.4-4.6c.8-1.5,1.5-2.7,2.7-3.4,1.1-.8,2.7-1.1,4.2-1.1s3.8.8,5.3,2.3c1.5,1.5,2.3,3.4,2.3,5.3h0Z" fill="#fff" stroke-width="0"/>
  <path d="M1559,1505c0,1.5-.4,3-1.1,4.2-.8,1.1-1.9,2.3-3.4,2.7-1.5.8-3,.8-4.6.4-1.5,0-2.7-1.1-3.8-1.9-1.1-.8-1.9-2.3-1.9-3.8s0-3,.4-4.6c.8-1.5,1.5-2.7,2.7-3.4,1.1-.8,2.7-1.1,4.2-1.1s3.8.8,5.3,2.3,2.3,3.4,2.3,5.3h0Z" fill="#fff" stroke-width="0"/>
  <path d="M1584.1,1505c0,1.5-.4,3-1.1,4.2-.8,1.1-1.9,2.3-3.4,2.7-1.5.8-3,.8-4.6.4-1.5,0-2.7-1.1-3.8-1.9-1.1-1.1-1.9-2.3-1.9-3.8s0-3,.4-4.6c.8-1.5,1.5-2.7,2.7-3.4,1.1-.8,2.7-1.1,4.2-1.1s3.8.8,5.3,2.3c1.5,1.5,2.3,3.4,2.3,5.3h0Z" fill="#fff" stroke-width="0"/>
  <path d="M1484.1,1527.8c0,1.5-.4,3-1.1,4.2-.8,1.1-1.9,2.3-3.4,2.7-1.5.8-3,.8-4.6.4-1.5,0-2.7-1.1-3.8-1.9-1.1-.8-1.9-2.3-1.9-3.8s0-3,.4-4.6c.8-1.5,1.5-2.7,2.7-3.4,1.1-.8,2.7-1.1,4.2-1.1s3.8.8,5.3,2.3c1.5,1.5,2.3,3.4,2.3,5.3h0Z" fill="#fff" stroke-width="0"/>
  <path d="M1509.2,1527.8c0,1.5-.4,3-1.1,4.2-.8,1.1-1.9,2.3-3.4,2.7-1.5.8-3,.8-4.6.4-1.5,0-2.7-1.1-3.8-1.9-1.1-1.1-1.9-2.3-1.9-3.8s0-3,.4-4.6c.8-1.5,1.5-2.7,2.7-3.4,1.1-.8,2.7-1.1,4.2-1.1s3.8.8,5.3,2.3c1.5,1.5,2.3,3.4,2.3,5.3h0Z" fill="#fff" stroke-width="0"/>
  <path d="M1533.9,1527.8c0,1.5-.4,3-1.1,4.2-.8,1.1-1.9,2.3-3.4,2.7-1.5.8-3,.8-4.6.4-1.5,0-2.7-1.1-3.8-1.9-1.1-1.1-1.9-2.3-1.9-3.8s0-3,.4-4.6c.8-1.5,1.5-2.7,2.7-3.4,1.1-.8,2.7-1.1,4.2-1.1s3.8.8,5.3,2.3c1.5,1.5,2.3,3.4,2.3,5.3h0Z" fill="#fff" stroke-width="0"/>
  <path d="M1559,1527.8c0,1.5-.4,3-1.1,4.2-.8,1.1-1.9,2.3-3.4,2.7-1.5.8-3,.8-4.6.4-1.5,0-2.7-1.1-3.8-1.9-1.1-.8-1.9-2.3-1.9-3.8s0-3,.4-4.6c.8-1.5,1.5-2.7,2.7-3.4,1.1-.8,2.7-1.1,4.2-1.1s3.8.8,5.3,2.3,2.3,3.4,2.3,5.3h0Z" fill="#fff" stroke-width="0"/>
  <path d="M1584.1,1527.8c0,1.5-.4,3-1.1,4.2-.8,1.1-1.9,2.3-3.4,2.7-1.5.8-3,.8-4.6.4-1.5,0-2.7-1.1-3.8-1.9-1.1-1.1-1.9-2.3-1.9-3.8s0-3,.4-4.6c.8-1.5,1.5-2.7,2.7-3.4,1.1-.8,2.7-1.1,4.2-1.1s3.8.8,5.3,2.3c1.5,1.5,2.3,3.4,2.3,5.3h0Z" fill="#fff" stroke-width="0"/>
  <path d="M1476.5,1558.3c4.2,0,7.6-3.4,7.6-7.6s-3.4-7.6-7.6-7.6-7.6,3.4-7.6,7.6,3.4,7.6,7.6,7.6Z" fill="#fff" stroke-width="0"/>
  <path d="M1509.2,1550.6c0,1.5-.4,3-1.1,4.2-.8,1.1-1.9,2.3-3.4,2.7-1.5.8-3,.8-4.6.4-1.5-.4-2.7-1.1-3.8-1.9-1.1-1.1-1.9-2.3-1.9-3.8s0-3,.4-4.6c.8-1.5,1.5-2.7,2.7-3.4,1.1-.8,2.7-1.1,4.2-1.1s3.8.8,5.3,2.3c1.5,1.5,2.3,3.4,2.3,5.3h0Z" fill="#fff" stroke-width="0"/>
  <path d="M1526.3,1558.3c4.2,0,7.6-3.4,7.6-7.6s-3.4-7.6-7.6-7.6-7.6,3.4-7.6,7.6,3.4,7.6,7.6,7.6Z" fill="#fff" stroke-width="0"/>
  <path d="M1559,1550.6c0,1.5-.4,3-1.1,4.2-.8,1.1-1.9,2.3-3.4,2.7-1.5.8-3,.8-4.6.4-1.5-.4-2.7-1.1-3.8-1.9-1.1-.8-1.9-2.3-1.9-3.8s0-3,.4-4.6c.8-1.5,1.5-2.7,2.7-3.4,1.1-.8,2.7-1.1,4.2-1.1s3.8.8,5.3,2.3,2.3,3.4,2.3,5.3h0Z" fill="#fff" stroke-width="0"/>
  <path d="M1584.1,1550.6c0,1.5-.4,3-1.1,4.2-.8,1.1-1.9,2.3-3.4,2.7-1.5.8-3,.8-4.6.4-1.5-.4-2.7-1.1-3.8-1.9-1.1-1.1-1.9-2.3-1.9-3.8s0-3,.4-4.6c.8-1.5,1.5-2.7,2.7-3.4,1.1-.8,2.7-1.1,4.2-1.1s3.8.8,5.3,2.3c1.5,1.5,2.3,3.4,2.3,5.3h0Z" fill="#fff" stroke-width="0"/>
  <path d="M1458.6,1497.4h-4.2v60.9h4.2v-60.9Z" fill="#506690" stroke-width="0"/>
  <path d="M1595.9,1373.4h-392.5v90.5h392.5v-90.5h0Z" fill="#3b3f5c" stroke-width="0"/>
  <path d="M1443.4,1388.2h-223.6v7.6h223.6v-7.6Z" fill="#1b2e4b" stroke-width="0"/>
  <path d="M1443.4,1401.6h-223.6v7.6h223.6v-7.6Z" fill="#1b2e4b" stroke-width="0"/>
  <path d="M1443.4,1414.9h-223.6v7.6h223.6v-7.6Z" fill="#1b2e4b" stroke-width="0"/>
  <path d="M1443.4,1428.2h-223.6v7.6h223.6v-7.6Z" fill="#1b2e4b" stroke-width="0"/>
  <path d="M1443.4,1441.5h-223.6v7.6h223.6v-7.6Z" fill="#1b2e4b" stroke-width="0"/>
  <path d="M1484.1,1395.8c0,1.5-.4,3-1.1,4.2-.8,1.1-1.9,2.3-3.4,2.7-1.5.8-3,.8-4.6.4-1.5,0-2.7-1.1-3.8-1.9-1.1-1.1-1.9-2.3-1.9-3.8s0-3,.4-4.6c.8-1.5,1.5-2.7,2.7-3.4,1.1-.8,2.7-1.1,4.2-1.1s3.8.8,5.3,2.3,2.3,3.4,2.3,5.3h0Z" fill="#fff" stroke-width="0"/>
  <path d="M1509.2,1395.8c0,1.5-.4,3-1.1,4.2-.8,1.1-1.9,2.3-3.4,2.7-1.5.8-3,.8-4.6.4-1.5,0-2.7-1.1-3.8-1.9-1.1-1.1-1.9-2.3-1.9-3.8s0-3,.4-4.6c.8-1.5,1.5-2.7,2.7-3.4,1.1-.8,2.7-1.1,4.2-1.1s3.8.8,5.3,2.3c1.5,1.5,2.3,3.4,2.3,5.3h0Z" fill="#fff" stroke-width="0"/>
  <path d="M1533.9,1395.8c0,1.5-.4,3-1.1,4.2-.8,1.1-1.9,2.3-3.4,2.7-1.5.8-3,.8-4.6.4-1.5,0-2.7-1.1-3.8-1.9-1.1-1.1-1.9-2.3-1.9-3.8s0-3,.4-4.6c.8-1.5,1.5-2.7,2.7-3.4,1.1-.8,2.7-1.1,4.2-1.1s3.8.8,5.3,2.3c1.5,1.5,2.3,3.4,2.3,5.3h0Z" fill="#fff" stroke-width="0"/>
  <path d="M1559,1395.8c0,1.5-.4,3-1.1,4.2-.8,1.1-1.9,2.3-3.4,2.7-1.5.8-3,.8-4.6.4-1.5,0-2.7-1.1-3.8-1.9-1.1-1.1-1.9-2.3-1.9-3.8s0-3,.4-4.6c.8-1.5,1.5-2.7,2.7-3.4,1.1-.8,2.7-1.1,4.2-1.1s3.8.8,5.3,2.3c1.5,1.5,2.3,3.4,2.3,5.3h0Z" fill="#fff" stroke-width="0"/>
  <path d="M1584.1,1395.8c0,1.5-.4,3-1.1,4.2-.8,1.1-1.9,2.3-3.4,2.7-1.5.8-3,.8-4.6.4-1.5,0-2.7-1.1-3.8-1.9-1.1-1.1-1.9-2.3-1.9-3.8s0-3,.4-4.6c.8-1.5,1.5-2.7,2.7-3.4,1.1-.8,2.7-1.1,4.2-1.1s3.8.8,5.3,2.3,2.3,3.4,2.3,5.3h0Z" fill="#fff" stroke-width="0"/>
  <path d="M1484.1,1418.7c0,1.5-.4,3-1.1,4.2-.8,1.1-1.9,2.3-3.4,2.7-1.5.8-3,.8-4.6.4-1.5,0-2.7-1.1-3.8-1.9-1.1-1.1-1.9-2.3-1.9-3.8s0-3,.4-4.6c.8-1.5,1.5-2.7,2.7-3.4,1.1-.8,2.7-1.1,4.2-1.1s3.8.8,5.3,2.3c1.5,1.5,2.3,3.4,2.3,5.3h0Z" fill="#fff" stroke-width="0"/>
  <path d="M1509.2,1418.7c0,1.5-.4,3-1.1,4.2-.8,1.1-1.9,2.3-3.4,2.7-1.5.8-3,.8-4.6.4-1.5,0-2.7-1.1-3.8-1.9-1.1-1.1-1.9-2.3-1.9-3.8s0-3,.4-4.6c.8-1.5,1.5-2.7,2.7-3.4,1.1-.8,2.7-1.1,4.2-1.1s3.8.8,5.3,2.3c1.5,1.5,2.3,3.4,2.3,5.3h0Z" fill="#fff" stroke-width="0"/>
  <path d="M1533.9,1418.7c0,1.5-.4,3-1.1,4.2-.8,1.1-1.9,2.3-3.4,2.7-1.5.8-3,.8-4.6.4-1.5,0-2.7-1.1-3.8-1.9-1.1-1.1-1.9-2.3-1.9-3.8s0-3,.4-4.6c.8-1.5,1.5-2.7,2.7-3.4,1.1-.8,2.7-1.1,4.2-1.1s3.8.8,5.3,2.3c1.5,1.5,2.3,3.4,2.3,5.3h0Z" fill="#fff" stroke-width="0"/>
  <path d="M1559,1418.7c0,1.5-.4,3-1.1,4.2-.8,1.1-1.9,2.3-3.4,2.7-1.5.8-3,.8-4.6.4-1.5,0-2.7-1.1-3.8-1.9-1.1-1.1-1.9-2.3-1.9-3.8s0-3,.4-4.6c.8-1.5,1.5-2.7,2.7-3.4,1.1-.8,2.7-1.1,4.2-1.1s3.8.8,5.3,2.3c1.5,1.5,2.3,3.4,2.3,5.3h0Z" fill="#fff" stroke-width="0"/>
  <path d="M1584.1,1418.7c0,1.5-.4,3-1.1,4.2-.8,1.1-1.9,2.3-3.4,2.7-1.5.8-3,.8-4.6.4-1.5,0-2.7-1.1-3.8-1.9-1.1-1.1-1.9-2.3-1.9-3.8s0-3,.4-4.6c.8-1.5,1.5-2.7,2.7-3.4,1.1-.8,2.7-1.1,4.2-1.1s3.8.8,5.3,2.3c1.5,1.5,2.3,3.4,2.3,5.3h0Z" fill="#fff" stroke-width="0"/>
  <path d="M1484.1,1441.5c0,1.5-.4,3-1.1,4.2-.8,1.1-1.9,2.3-3.4,2.7-1.5.8-3,.8-4.6.4-1.5,0-2.7-1.1-3.8-1.9-1.1-1.1-1.9-2.3-1.9-3.8s0-3,.4-4.6c.8-1.5,1.5-2.7,2.7-3.4,1.1-.8,2.7-1.1,4.2-1.1s3.8.8,5.3,2.3c1.5,1.5,2.3,3.4,2.3,5.3h0Z" fill="#fff" stroke-width="0"/>
  <path d="M1509.2,1441.5c0,1.5-.4,3-1.1,4.2-.8,1.1-1.9,2.3-3.4,2.7-1.5.8-3,.8-4.6.4-1.5,0-2.7-1.1-3.8-1.9-1.1-1.1-1.9-2.3-1.9-3.8s0-3,.4-4.6c.8-1.5,1.5-2.7,2.7-3.4,1.1-.8,2.7-1.1,4.2-1.1s3.8.8,5.3,2.3c1.5,1.5,2.3,3.4,2.3,5.3h0Z" fill="#fff" stroke-width="0"/>
  <path d="M1533.9,1441.5c0,1.5-.4,3-1.1,4.2-.8,1.1-1.9,2.3-3.4,2.7-1.5.8-3,.8-4.6.4-1.5,0-2.7-1.1-3.8-1.9-1.1-1.1-1.9-2.3-1.9-3.8s0-3,.4-4.6c.8-1.5,1.5-2.7,2.7-3.4,1.1-.8,2.7-1.1,4.2-1.1s3.8.8,5.3,2.3c1.5,1.5,2.3,3.4,2.3,5.3h0Z" fill="#fff" stroke-width="0"/>
  <path d="M1559,1441.5c0,1.5-.4,3-1.1,4.2-.8,1.1-1.9,2.3-3.4,2.7-1.5.8-3,.8-4.6.4-1.5,0-2.7-1.1-3.8-1.9-1.1-1.1-1.9-2.3-1.9-3.8s0-3,.4-4.6c.8-1.5,1.5-2.7,2.7-3.4,1.1-.8,2.7-1.1,4.2-1.1s3.8.8,5.3,2.3c1.5,1.5,2.3,3.4,2.3,5.3h0Z" fill="#fff" stroke-width="0"/>
  <path d="M1584.1,1441.5c0,1.5-.4,3-1.1,4.2-.8,1.1-1.9,2.3-3.4,2.7-1.5.8-3,.8-4.6.4-1.5,0-2.7-1.1-3.8-1.9-1.1-1.1-1.9-2.3-1.9-3.8s0-3,.4-4.6c.8-1.5,1.5-2.7,2.7-3.4,1.1-.8,2.7-1.1,4.2-1.1s3.8.8,5.3,2.3c1.5,1.5,2.3,3.4,2.3,5.3h0Z" fill="#fff" stroke-width="0"/>
  <path d="M1458.6,1388.2h-4.2v60.9h4.2v-60.9Z" fill="#506690" stroke-width="0"/>
  <path d="M1595.9,1263.9h-392.5v90.5h392.5v-90.5h0Z" fill="#3b3f5c" stroke-width="0"/>
  <path d="M1443.4,1279.1h-223.6v7.6h223.6v-7.6Z" fill="#1b2e4b" stroke-width="0"/>
  <path d="M1443.4,1292.4h-223.6v7.6h223.6v-7.6Z" fill="#1b2e4b" stroke-width="0"/>
  <path d="M1443.4,1305.7h-223.6v7.6h223.6v-7.6Z" fill="#1b2e4b" stroke-width="0"/>
  <path d="M1443.4,1318.6h-223.6v7.6h223.6v-7.6Z" fill="#1b2e4b" stroke-width="0"/>
  <path d="M1443.4,1332h-223.6v7.6h223.6v-7.6Z" fill="#1b2e4b" stroke-width="0"/>
  <path d="M1476.5,1294.3c4.2,0,7.6-3.4,7.6-7.6s-3.4-7.6-7.6-7.6-7.6,3.4-7.6,7.6,3.4,7.6,7.6,7.6Z" fill="#fff" stroke-width="0"/>
  <path d="M1509.2,1286.7c0,1.5-.4,3-1.1,4.2-.8,1.1-1.9,2.3-3.4,2.7-1.5.8-3,.8-4.6.4-1.5,0-2.7-1.1-3.8-1.9-1.1-1.1-1.9-2.3-1.9-3.8s0-3,.4-4.6c.8-1.5,1.5-2.7,2.7-3.4,1.1-.8,2.7-1.1,4.2-1.1s3.8.8,5.3,2.3c1.5,1.5,2.3,3.4,2.3,5.3h0Z" fill="#fff" stroke-width="0"/>
  <path d="M1526.3,1294.3c4.2,0,7.6-3.4,7.6-7.6s-3.4-7.6-7.6-7.6-7.6,3.4-7.6,7.6,3.4,7.6,7.6,7.6Z" fill="#fff" stroke-width="0"/>
  <path d="M1559,1286.7c0,1.5-.4,3-1.1,4.2-.8,1.1-1.9,2.3-3.4,2.7-1.5.8-3,.8-4.6.4-1.5,0-2.7-1.1-3.8-1.9-1.1-1.1-1.9-2.3-1.9-3.8s0-3,.4-4.6c.8-1.5,1.5-2.7,2.7-3.4,1.1-.8,2.7-1.1,4.2-1.1s3.8.8,5.3,2.3c1.5,1.5,2.3,3.4,2.3,5.3h0Z" fill="#fff" stroke-width="0"/>
  <path d="M1584.1,1286.7c0,1.5-.4,3-1.1,4.2-.8,1.1-1.9,2.3-3.4,2.7-1.5.8-3,.8-4.6.4-1.5,0-2.7-1.1-3.8-1.9-1.1-1.1-1.9-2.3-1.9-3.8s0-3,.4-4.6c.8-1.5,1.5-2.7,2.7-3.4,1.1-.8,2.7-1.1,4.2-1.1s3.8.8,5.3,2.3c1.5,1.5,2.3,3.4,2.3,5.3h0Z" fill="#fff" stroke-width="0"/>
  <path d="M1484.1,1309.5c0,1.5-.4,3-1.1,4.2-.8,1.1-1.9,2.3-3.4,2.7-1.5.8-3,.8-4.6.4-1.5-.4-2.7-1.1-3.8-1.9-1.1-.8-1.9-2.3-1.9-3.8s0-3,.4-4.6c.8-1.5,1.5-2.7,2.7-3.4,1.1-.8,2.7-1.1,4.2-1.1s3.8.8,5.3,2.3c1.5,1.5,2.3,3.4,2.3,5.3h0Z" fill="#fff" stroke-width="0"/>
  <path d="M1509.2,1309.5c0,1.5-.4,3-1.1,4.2-.8,1.1-1.9,2.3-3.4,2.7-1.5.8-3,.8-4.6.4-1.5-.4-2.7-1.1-3.8-1.9-1.1-1.1-1.9-2.3-1.9-3.8s0-3,.4-4.6c.8-1.5,1.5-2.7,2.7-3.4,1.1-.8,2.7-1.1,4.2-1.1s3.8.8,5.3,2.3,2.3,3.4,2.3,5.3h0Z" fill="#fff" stroke-width="0"/>
  <path d="M1533.9,1309.5c0,1.5-.4,3-1.1,4.2-.8,1.1-1.9,2.3-3.4,2.7-1.5.8-3,.8-4.6.4-1.5-.4-2.7-1.1-3.8-1.9-1.1-1.1-1.9-2.3-1.9-3.8s0-3,.4-4.6c.8-1.5,1.5-2.7,2.7-3.4,1.1-.8,2.7-1.1,4.2-1.1s3.8.8,5.3,2.3c1.5,1.5,2.3,3.4,2.3,5.3h0Z" fill="#fff" stroke-width="0"/>
  <path d="M1559,1309.5c0,1.5-.4,3-1.1,4.2-.8,1.1-1.9,2.3-3.4,2.7-1.5.8-3,.8-4.6.4-1.5-.4-2.7-1.1-3.8-1.9-1.1-.8-1.9-2.3-1.9-3.8s0-3,.4-4.6c.8-1.5,1.5-2.7,2.7-3.4,1.1-.8,2.7-1.1,4.2-1.1s3.8.8,5.3,2.3c1.5,1.5,2.3,3.4,2.3,5.3h0Z" fill="#fff" stroke-width="0"/>
  <path d="M1584.1,1309.5c0,1.5-.4,3-1.1,4.2-.8,1.1-1.9,2.3-3.4,2.7-1.5.8-3,.8-4.6.4s-2.7-1.1-3.8-1.9c-1.1-1.1-1.9-2.3-1.9-3.8s0-3,.4-4.6c.8-1.5,1.5-2.7,2.7-3.4,1.1-.8,2.7-1.1,4.2-1.1s3.8.8,5.3,2.3c1.5,1.5,2.3,3.4,2.3,5.3h0Z" fill="#fff" stroke-width="0"/>
  <path d="M1484.1,1332c0,1.5-.4,3-1.1,4.2-.8,1.1-1.9,2.3-3.4,2.7-1.5.8-3,.8-4.6.4-1.5,0-2.7-1.1-3.8-1.9-1.1-.8-1.9-2.3-1.9-3.8s0-3,.4-4.6c.8-1.5,1.5-2.7,2.7-3.4,1.1-.8,2.7-1.1,4.2-1.1s3.8.8,5.3,2.3c1.5,1.5,2.3,3.4,2.3,5.3h0Z" fill="#fff" stroke-width="0"/>
  <path d="M1509.2,1332c0,1.5-.4,3-1.1,4.2-.8,1.1-1.9,2.3-3.4,2.7-1.5.8-3,.8-4.6.4-1.5,0-2.7-1.1-3.8-1.9-1.1-1.1-1.9-2.3-1.9-3.8s0-3,.4-4.6c.8-1.5,1.5-2.7,2.7-3.4,1.1-.8,2.7-1.1,4.2-1.1s3.8.8,5.3,2.3c1.5,1.5,2.3,3.4,2.3,5.3h0Z" fill="#fff" stroke-width="0"/>
  <path d="M1533.9,1332c0,1.5-.4,3-1.1,4.2-.8,1.1-1.9,2.3-3.4,2.7-1.5.8-3,.8-4.6.4-1.5,0-2.7-1.1-3.8-1.9-1.1-1.1-1.9-2.3-1.9-3.8s0-3,.4-4.6c.8-1.5,1.5-2.7,2.7-3.4,1.1-.8,2.7-1.1,4.2-1.1s3.8.8,5.3,2.3c1.5,1.5,2.3,3.4,2.3,5.3h0Z" fill="#fff" stroke-width="0"/>
  <path d="M1559,1332c0,1.5-.4,3-1.1,4.2-.8,1.1-1.9,2.3-3.4,2.7-1.5.8-3,.8-4.6.4-1.5,0-2.7-1.1-3.8-1.9-1.1-.8-1.9-2.3-1.9-3.8s0-3,.4-4.6c.8-1.5,1.5-2.7,2.7-3.4,1.1-.8,2.7-1.1,4.2-1.1s3.8.8,5.3,2.3,2.3,3.4,2.3,5.3h0Z" fill="#fff" stroke-width="0"/>
  <path d="M1584.1,1332c0,1.5-.4,3-1.1,4.2-.8,1.1-1.9,2.3-3.4,2.7-1.5.8-3,.8-4.6.4-1.5,0-2.7-1.1-3.8-1.9-1.1-1.1-1.9-2.3-1.9-3.8s0-3,.4-4.6c.8-1.5,1.5-2.7,2.7-3.4,1.1-.8,2.7-1.1,4.2-1.1s3.8.8,5.3,2.3c1.5,1.5,2.3,3.4,2.3,5.3h0Z" fill="#fff" stroke-width="0"/>
  <path d="M1458.6,1279.1h-4.2v60.9h4.2v-60.9Z" fill="#506690" stroke-width="0"/>
  <path d="M1595.9,1154.7h-392.5v90.5h392.5v-90.5h0Z" fill="#3b3f5c" stroke-width="0"/>
  <path d="M1443.4,1169.5h-223.6v7.6h223.6v-7.6Z" fill="#1b2e4b" stroke-width="0"/>
  <path d="M1443.4,1182.9h-223.6v7.6h223.6v-7.6Z" fill="#1b2e4b" stroke-width="0"/>
  <path d="M1443.4,1196.2h-223.6v7.6h223.6v-7.6Z" fill="#1b2e4b" stroke-width="0"/>
  <path d="M1443.4,1209.5h-223.6v7.6h223.6v-7.6Z" fill="#1b2e4b" stroke-width="0"/>
  <path d="M1443.4,1222.8h-223.6v7.6h223.6v-7.6Z" fill="#1b2e4b" stroke-width="0"/>
  <path d="M1484.1,1177.2c0,1.5-.4,3-1.1,4.2-.8,1.1-1.9,2.3-3.4,2.7-1.5.8-3,.8-4.6.4-1.5,0-2.7-1.1-3.8-1.9-1.1-1.1-1.9-2.3-1.9-3.8s0-3,.4-4.6c.8-1.5,1.5-2.7,2.7-3.4,1.1-.8,2.7-1.1,4.2-1.1s3.8.8,5.3,2.3c1.5,1.5,2.3,3.4,2.3,5.3h0Z" fill="#fff" stroke-width="0"/>
  <path d="M1509.2,1177.2c0,1.5-.4,3-1.1,4.2-.8,1.1-1.9,2.3-3.4,2.7-1.5.8-3,.8-4.6.4-1.5,0-2.7-1.1-3.8-1.9-1.1-1.1-1.9-2.3-1.9-3.8s0-3,.4-4.6c.8-1.5,1.5-2.7,2.7-3.4,1.1-.8,2.7-1.1,4.2-1.1s3.8.8,5.3,2.3c1.5,1.5,2.3,3.4,2.3,5.3h0Z" fill="#fff" stroke-width="0"/>
  <path d="M1533.9,1177.2c0,1.5-.4,3-1.1,4.2-.8,1.1-1.9,2.3-3.4,2.7-1.5.8-3,.8-4.6.4-1.5,0-2.7-1.1-3.8-1.9-1.1-1.1-1.9-2.3-1.9-3.8s0-3,.4-4.6c.8-1.5,1.5-2.7,2.7-3.4,1.1-.8,2.7-1.1,4.2-1.1s3.8.8,5.3,2.3c1.5,1.5,2.3,3.4,2.3,5.3h0Z" fill="#fff" stroke-width="0"/>
  <path d="M1559,1177.2c0,1.5-.4,3-1.1,4.2-.8,1.1-1.9,2.3-3.4,2.7-1.5.8-3,.8-4.6.4-1.5,0-2.7-1.1-3.8-1.9-1.1-1.1-1.9-2.3-1.9-3.8s0-3,.4-4.6c.8-1.5,1.5-2.7,2.7-3.4,1.1-.8,2.7-1.1,4.2-1.1s3.8.8,5.3,2.3c1.5,1.5,2.3,3.4,2.3,5.3h0Z" fill="#fff" stroke-width="0"/>
  <path d="M1584.1,1177.2c0,1.5-.4,3-1.1,4.2-.8,1.1-1.9,2.3-3.4,2.7-1.5.8-3,.8-4.6.4-1.5,0-2.7-1.1-3.8-1.9-1.1-1.1-1.9-2.3-1.9-3.8s0-3,.4-4.6c.8-1.5,1.5-2.7,2.7-3.4,1.1-.8,2.7-1.1,4.2-1.1s3.8.8,5.3,2.3c1.5,1.5,2.3,3.4,2.3,5.3h0Z" fill="#fff" stroke-width="0"/>
  <path d="M1476.5,1207.6c4.2,0,7.6-3.4,7.6-7.6s-3.4-7.6-7.6-7.6-7.6,3.4-7.6,7.6,3.4,7.6,7.6,7.6Z" fill="#fff" stroke-width="0"/>
  <path d="M1509.2,1200c0,1.5-.4,3-1.1,4.2-.8,1.1-1.9,2.3-3.4,2.7-1.5.8-3,.8-4.6.4-1.5,0-2.7-1.1-3.8-1.9-1.1-1.1-1.9-2.3-1.9-3.8s0-3,.4-4.6c.8-1.5,1.5-2.7,2.7-3.4,1.1-.8,2.7-1.1,4.2-1.1s3.8.8,5.3,2.3c1.5,1.5,2.3,3.4,2.3,5.3h0Z" fill="#fff" stroke-width="0"/>
  <path d="M1526.3,1207.6c4.2,0,7.6-3.4,7.6-7.6s-3.4-7.6-7.6-7.6-7.6,3.4-7.6,7.6,3.4,7.6,7.6,7.6Z" fill="#fff" stroke-width="0"/>
  <path d="M1559,1200c0,1.5-.4,3-1.1,4.2-.8,1.1-1.9,2.3-3.4,2.7-1.5.8-3,.8-4.6.4-1.5,0-2.7-1.1-3.8-1.9-1.1-.8-1.9-2.3-1.9-3.8s0-3,.4-4.6c.8-1.5,1.5-2.7,2.7-3.4,1.1-.8,2.7-1.1,4.2-1.1s3.8.8,5.3,2.3c1.5,1.5,2.3,3.4,2.3,5.3h0Z" fill="#fff" stroke-width="0"/>
  <path d="M1584.1,1200c0,1.5-.4,3-1.1,4.2-.8,1.1-1.9,2.3-3.4,2.7-1.5.8-3,.8-4.6.4-1.5,0-2.7-1.1-3.8-1.9-1.1-1.1-1.9-2.3-1.9-3.8s0-3,.4-4.6c.8-1.5,1.5-2.7,2.7-3.4,1.1-.8,2.7-1.1,4.2-1.1s3.8.8,5.3,2.3c1.5,1.5,2.3,3.4,2.3,5.3h0Z" fill="#fff" stroke-width="0"/>
  <path d="M1476.5,1230.4c4.2,0,7.6-3.4,7.6-7.6s-3.4-7.6-7.6-7.6-7.6,3.4-7.6,7.6,3.4,7.6,7.6,7.6Z" fill="#fff" stroke-width="0"/>
  <path d="M1509.2,1222.8c0,1.5-.4,3-1.1,4.2-.8,1.1-1.9,2.3-3.4,2.7-1.5.8-3,.8-4.6.4-1.5-.4-2.7-1.1-3.8-1.9-1.1-1.1-1.9-2.3-1.9-3.8s0-3,.4-4.6c.8-1.5,1.5-2.7,2.7-3.4,1.1-.8,2.7-1.1,4.2-1.1s3.8.8,5.3,2.3c1.5,1.5,2.3,3.4,2.3,5.3h0Z" fill="#fff" stroke-width="0"/>
  <path d="M1526.3,1230.4c4.2,0,7.6-3.4,7.6-7.6s-3.4-7.6-7.6-7.6-7.6,3.4-7.6,7.6,3.4,7.6,7.6,7.6Z" fill="#fff" stroke-width="0"/>
  <path d="M1559,1222.8c0,1.5-.4,3-1.1,4.2-.8,1.1-1.9,2.3-3.4,2.7-1.5.8-3,.8-4.6.4-1.5-.4-2.7-1.1-3.8-1.9-1.1-.8-1.9-2.3-1.9-3.8s0-3,.4-4.6c.8-1.5,1.5-2.7,2.7-3.4,1.1-.8,2.7-1.1,4.2-1.1s3.8.8,5.3,2.3c1.5,1.5,2.3,3.4,2.3,5.3h0Z" fill="#fff" stroke-width="0"/>
  <path d="M1584.1,1222.8c0,1.5-.4,3-1.1,4.2-.8,1.1-1.9,2.3-3.4,2.7-1.5.8-3,.8-4.6.4s-2.7-1.1-3.8-1.9c-1.1-1.1-1.9-2.3-1.9-3.8s0-3,.4-4.6c.8-1.5,1.5-2.7,2.7-3.4,1.1-.8,2.7-1.1,4.2-1.1s3.8.8,5.3,2.3c1.5,1.5,2.3,3.4,2.3,5.3h0Z" fill="#fff" stroke-width="0"/>
  <path d="M1458.6,1169.5h-4.2v60.9h4.2v-60.9Z" fill="#506690" stroke-width="0"/>
  <path d="M1595.9,1045.6h-392.5v90.5h392.5v-90.5h0Z" fill="#3b3f5c" stroke-width="0"/>
  <path d="M1443.4,1060.4h-223.6v7.6h223.6v-7.6Z" fill="#1b2e4b" stroke-width="0"/>
  <path d="M1443.4,1073.7h-223.6v7.6h223.6v-7.6Z" fill="#1b2e4b" stroke-width="0"/>
  <path d="M1443.4,1087h-223.6v7.6h223.6v-7.6Z" fill="#1b2e4b" stroke-width="0"/>
  <path d="M1443.4,1100.3h-223.6v7.6h223.6v-7.6Z" fill="#1b2e4b" stroke-width="0"/>
  <path d="M1443.4,1113.6h-223.6v7.6h223.6v-7.6Z" fill="#1b2e4b" stroke-width="0"/>
  <path d="M1476.5,1075.6c4.2,0,7.6-3.4,7.6-7.6s-3.4-7.6-7.6-7.6-7.6,3.4-7.6,7.6,3.4,7.6,7.6,7.6Z" fill="#fff" stroke-width="0"/>
  <path d="M1509.2,1068c0,1.5-.4,3-1.1,4.2-.8,1.1-1.9,2.3-3.4,2.7-1.5.8-3,.8-4.6.4-1.5,0-2.7-1.1-3.8-1.9-1.1-1.1-1.9-2.3-1.9-3.8s0-3,.4-4.6c.8-1.5,1.5-2.7,2.7-3.4,1.1-.8,2.7-1.1,4.2-1.1s3.8.8,5.3,2.3,2.3,3.4,2.3,5.3h0Z" fill="#fff" stroke-width="0"/>
  <path d="M1526.3,1075.6c4.2,0,7.6-3.4,7.6-7.6s-3.4-7.6-7.6-7.6-7.6,3.4-7.6,7.6,3.4,7.6,7.6,7.6Z" fill="#fff" stroke-width="0"/>
  <path d="M1559,1068c0,1.5-.4,3-1.1,4.2-.8,1.1-1.9,2.3-3.4,2.7-1.5.8-3,.8-4.6.4-1.5,0-2.7-1.1-3.8-1.9-1.1-.8-1.9-2.3-1.9-3.8s0-3,.4-4.6c.8-1.5,1.5-2.7,2.7-3.4,1.1-.8,2.7-1.1,4.2-1.1s3.8.8,5.3,2.3c1.5,1.5,2.3,3.4,2.3,5.3h0Z" fill="#fff" stroke-width="0"/>
  <path d="M1584.1,1068c0,1.5-.4,3-1.1,4.2-.8,1.1-1.9,2.3-3.4,2.7-1.5.8-3,.8-4.6.4-1.5,0-2.7-1.1-3.8-1.9-1.1-1.1-1.9-2.3-1.9-3.8s0-3,.4-4.6c.8-1.5,1.5-2.7,2.7-3.4,1.1-.8,2.7-1.1,4.2-1.1s3.8.8,5.3,2.3c1.5,1.5,2.3,3.4,2.3,5.3h0Z" fill="#fff" stroke-width="0"/>
  <path d="M1476.5,1098.4c4.2,0,7.6-3.4,7.6-7.6s-3.4-7.6-7.6-7.6-7.6,3.4-7.6,7.6,3.4,7.6,7.6,7.6Z" fill="#fff" stroke-width="0"/>
  <path d="M1509.2,1090.8c0,1.5-.4,3-1.1,4.2-.8,1.1-1.9,2.3-3.4,2.7-1.5.8-3,.8-4.6.4-1.5,0-2.7-1.1-3.8-1.9-1.1-1.1-1.9-2.3-1.9-3.8s0-3,.4-4.6c.8-1.5,1.5-2.7,2.7-3.4,1.1-.8,2.7-1.1,4.2-1.1s3.8.8,5.3,2.3,2.3,3.4,2.3,5.3h0Z" fill="#fff" stroke-width="0"/>
  <path d="M1526.3,1098.4c4.2,0,7.6-3.4,7.6-7.6s-3.4-7.6-7.6-7.6-7.6,3.4-7.6,7.6,3.4,7.6,7.6,7.6Z" fill="#fff" stroke-width="0"/>
  <path d="M1559,1090.8c0,1.5-.4,3-1.1,4.2-.8,1.1-1.9,2.3-3.4,2.7-1.5.8-3,.8-4.6.4-1.5,0-2.7-1.1-3.8-1.9-1.1-.8-1.9-2.3-1.9-3.8s0-3,.4-4.6c.8-1.5,1.5-2.7,2.7-3.4,1.1-.8,2.7-1.1,4.2-1.1s3.8.8,5.3,2.3c1.5,1.5,2.3,3.4,2.3,5.3h0Z" fill="#fff" stroke-width="0"/>
  <path d="M1584.1,1090.8c0,1.5-.4,3-1.1,4.2-.8,1.1-1.9,2.3-3.4,2.7-1.5.8-3,.8-4.6.4-1.5,0-2.7-1.1-3.8-1.9-1.1-1.1-1.9-2.3-1.9-3.8s0-3,.4-4.6c.8-1.5,1.5-2.7,2.7-3.4,1.1-.8,2.7-1.1,4.2-1.1s3.8.8,5.3,2.3c1.5,1.5,2.3,3.4,2.3,5.3h0Z" fill="#fff" stroke-width="0"/>
  <path d="M1484.1,1113.6c0,1.5-.4,3-1.1,4.2-.8,1.1-1.9,2.3-3.4,2.7-1.5.8-3,.8-4.6.4-1.5,0-2.7-1.1-3.8-1.9-1.1-1.1-1.9-2.3-1.9-3.8s0-3,.4-4.6c.8-1.5,1.5-2.7,2.7-3.4,1.1-.8,2.7-1.1,4.2-1.1s3.8.8,5.3,2.3c1.5,1.5,2.3,3.4,2.3,5.3h0Z" fill="#fff" stroke-width="0"/>
  <path d="M1509.2,1113.6c0,1.5-.4,3-1.1,4.2-.8,1.1-1.9,2.3-3.4,2.7-1.5.8-3,.8-4.6.4-1.5,0-2.7-1.1-3.8-1.9-1.1-1.1-1.9-2.3-1.9-3.8s0-3,.4-4.6c.8-1.5,1.5-2.7,2.7-3.4,1.1-.8,2.7-1.1,4.2-1.1s3.8.8,5.3,2.3c1.5,1.5,2.3,3.4,2.3,5.3h0Z" fill="#fff" stroke-width="0"/>
  <path d="M1533.9,1113.6c0,1.5-.4,3-1.1,4.2-.8,1.1-1.9,2.3-3.4,2.7-1.5.8-3,.8-4.6.4-1.5,0-2.7-1.1-3.8-1.9-1.1-1.1-1.9-2.3-1.9-3.8s0-3,.4-4.6c.8-1.5,1.5-2.7,2.7-3.4,1.1-.8,2.7-1.1,4.2-1.1s3.8.8,5.3,2.3c1.5,1.5,2.3,3.4,2.3,5.3h0Z" fill="#fff" stroke-width="0"/>
  <path d="M1559,1113.6c0,1.5-.4,3-1.1,4.2-.8,1.1-1.9,2.3-3.4,2.7-1.5.8-3,.8-4.6.4-1.5,0-2.7-1.1-3.8-1.9-1.1-1.1-1.9-2.3-1.9-3.8s0-3,.4-4.6c.8-1.5,1.5-2.7,2.7-3.4,1.1-.8,2.7-1.1,4.2-1.1s3.8.8,5.3,2.3c1.5,1.5,2.3,3.4,2.3,5.3h0Z" fill="#fff" stroke-width="0"/>
  <path d="M1584.1,1113.6c0,1.5-.4,3-1.1,4.2-.8,1.1-1.9,2.3-3.4,2.7-1.5.8-3,.8-4.6.4-1.5,0-2.7-1.1-3.8-1.9-1.1-1.1-1.9-2.3-1.9-3.8s0-3,.4-4.6c.8-1.5,1.5-2.7,2.7-3.4,1.1-.8,2.7-1.1,4.2-1.1s3.8.8,5.3,2.3c1.5,1.5,2.3,3.4,2.3,5.3h0Z" fill="#fff" stroke-width="0"/>
  <path d="M1458.6,1060.4h-4.2v60.9h4.2v-60.9Z" fill="#506690" stroke-width="0"/>
  <path d="M1595.9,936h-392.5v90.5h392.5v-90.5h0Z" fill="#3b3f5c" stroke-width="0"/>
  <path d="M1443.4,951.2h-223.6v7.6h223.6v-7.6Z" fill="#1b2e4b" stroke-width="0"/>
  <path d="M1443.4,964.5h-223.6v7.6h223.6v-7.6Z" fill="#1b2e4b" stroke-width="0"/>
  <path d="M1443.4,977.9h-223.6v7.6h223.6v-7.6Z" fill="#1b2e4b" stroke-width="0"/>
  <path d="M1443.4,990.8h-223.6v7.6h223.6v-7.6Z" fill="#1b2e4b" stroke-width="0"/>
  <path d="M1443.4,1004.1h-223.6v7.6h223.6v-7.6Z" fill="#1b2e4b" stroke-width="0"/>
  <path d="M1484.1,958.8c0,1.5-.4,3-1.1,4.2-.8,1.1-1.9,2.3-3.4,2.7-1.5.8-3,.8-4.6.4-1.5,0-2.7-1.1-3.8-1.9-1.1-.8-1.9-2.3-1.9-3.8s0-3,.4-4.6c.8-1.5,1.5-2.7,2.7-3.4,1.1-.8,2.7-1.1,4.2-1.1s3.8.8,5.3,2.3c1.5,1.5,2.3,3.4,2.3,5.3h0Z" fill="#fff" stroke-width="0"/>
  <path d="M1509.2,958.8c0,1.5-.4,3-1.1,4.2-.8,1.1-1.9,2.3-3.4,2.7-1.5.8-3,.8-4.6.4-1.5,0-2.7-1.1-3.8-1.9-1.1-1.1-1.9-2.3-1.9-3.8s0-3,.4-4.6c.8-1.5,1.5-2.7,2.7-3.4,1.1-.8,2.7-1.1,4.2-1.1s3.8.8,5.3,2.3c1.5,1.5,2.3,3.4,2.3,5.3h0Z" fill="#fff" stroke-width="0"/>
  <path d="M1533.9,958.8c0,1.5-.4,3-1.1,4.2-.8,1.1-1.9,2.3-3.4,2.7-1.5.8-3,.8-4.6.4-1.5,0-2.7-1.1-3.8-1.9-1.1-1.1-1.9-2.3-1.9-3.8s0-3,.4-4.6c.8-1.5,1.5-2.7,2.7-3.4,1.1-.8,2.7-1.1,4.2-1.1s3.8.8,5.3,2.3,2.3,3.4,2.3,5.3h0Z" fill="#fff" stroke-width="0"/>
  <path d="M1559,958.8c0,1.5-.4,3-1.1,4.2-.8,1.1-1.9,2.3-3.4,2.7-1.5.8-3,.8-4.6.4-1.5,0-2.7-1.1-3.8-1.9-1.1-.8-1.9-2.3-1.9-3.8s0-3,.4-4.6c.8-1.5,1.5-2.7,2.7-3.4,1.1-.8,2.7-1.1,4.2-1.1s3.8.8,5.3,2.3c1.5,1.5,2.3,3.4,2.3,5.3h0Z" fill="#fff" stroke-width="0"/>
  <path d="M1584.1,958.8c0,1.5-.4,3-1.1,4.2-.8,1.1-1.9,2.3-3.4,2.7-1.5.8-3,.8-4.6.4-1.5,0-2.7-1.1-3.8-1.9-1.1-1.1-1.9-2.3-1.9-3.8s0-3,.4-4.6c.8-1.5,1.5-2.7,2.7-3.4,1.1-.8,2.7-1.1,4.2-1.1s3.8.8,5.3,2.3c1.5,1.5,2.3,3.4,2.3,5.3h0Z" fill="#fff" stroke-width="0"/>
  <path d="M1484.1,981.7c0,1.5-.4,3-1.1,4.2-.8,1.1-1.9,2.3-3.4,2.7-1.5.8-3,.8-4.6.4-1.5,0-2.7-1.1-3.8-1.9-1.1-.8-1.9-2.3-1.9-3.8s0-3,.4-4.6c.8-1.5,1.5-2.7,2.7-3.4,1.1-.8,2.7-1.1,4.2-1.1s3.8.8,5.3,2.3c1.5,1.5,2.3,3.4,2.3,5.3h0Z" fill="#fff" stroke-width="0"/>
  <path d="M1509.2,981.7c0,1.5-.4,3-1.1,4.2-.8,1.1-1.9,2.3-3.4,2.7-1.5.8-3,.8-4.6.4-1.5,0-2.7-1.1-3.8-1.9-1.1-1.1-1.9-2.3-1.9-3.8s0-3,.4-4.6c.8-1.5,1.5-2.7,2.7-3.4,1.1-.8,2.7-1.1,4.2-1.1s3.8.8,5.3,2.3c1.5,1.5,2.3,3.4,2.3,5.3h0Z" fill="#fff" stroke-width="0"/>
  <path d="M1533.9,981.7c0,1.5-.4,3-1.1,4.2-.8,1.1-1.9,2.3-3.4,2.7-1.5.8-3,.8-4.6.4-1.5,0-2.7-1.1-3.8-1.9-1.1-1.1-1.9-2.3-1.9-3.8s0-3,.4-4.6c.8-1.5,1.5-2.7,2.7-3.4,1.1-.8,2.7-1.1,4.2-1.1s3.8.8,5.3,2.3c1.5,1.5,2.3,3.4,2.3,5.3h0Z" fill="#fff" stroke-width="0"/>
  <path d="M1559,981.7c0,1.5-.4,3-1.1,4.2-.8,1.1-1.9,2.3-3.4,2.7-1.5.8-3,.8-4.6.4-1.5,0-2.7-1.1-3.8-1.9-1.1-.8-1.9-2.3-1.9-3.8s0-3,.4-4.6c.8-1.5,1.5-2.7,2.7-3.4,1.1-.8,2.7-1.1,4.2-1.1s3.8.8,5.3,2.3c1.5,1.5,2.3,3.4,2.3,5.3h0Z" fill="#fff" stroke-width="0"/>
  <path d="M1584.1,981.7c0,1.5-.4,3-1.1,4.2-.8,1.1-1.9,2.3-3.4,2.7-1.5.8-3,.8-4.6.4-1.5,0-2.7-1.1-3.8-1.9-1.1-1.1-1.9-2.3-1.9-3.8s0-3,.4-4.6c.8-1.5,1.5-2.7,2.7-3.4,1.1-.8,2.7-1.1,4.2-1.1s3.8.8,5.3,2.3c1.5,1.5,2.3,3.4,2.3,5.3h0Z" fill="#fff" stroke-width="0"/>
  <path d="M1484.1,1004.5c0,1.5-.4,3-1.1,4.2-.8,1.1-1.9,2.3-3.4,2.7-1.5.8-3,.8-4.6.4-1.5,0-2.7-1.1-3.8-1.9-1.1-1.1-1.9-2.3-1.9-3.8s0-3,.4-4.6c.8-1.5,1.5-2.7,2.7-3.4,1.1-.8,2.7-1.1,4.2-1.1s3.8.8,5.3,2.3c1.5,1.5,2.3,3.4,2.3,5.3h0Z" fill="#fff" stroke-width="0"/>
  <path d="M1509.2,1004.5c0,1.5-.4,3-1.1,4.2-.8,1.1-1.9,2.3-3.4,2.7-1.5.8-3,.8-4.6.4-1.5,0-2.7-1.1-3.8-1.9-1.1-1.1-1.9-2.3-1.9-3.8s0-3,.4-4.6c.8-1.5,1.5-2.7,2.7-3.4,1.1-.8,2.7-1.1,4.2-1.1s3.8.8,5.3,2.3c1.5,1.5,2.3,3.4,2.3,5.3h0Z" fill="#fff" stroke-width="0"/>
  <path d="M1533.9,1004.5c0,1.5-.4,3-1.1,4.2-.8,1.1-1.9,2.3-3.4,2.7-1.5.8-3,.8-4.6.4-1.5,0-2.7-1.1-3.8-1.9-1.1-1.1-1.9-2.3-1.9-3.8s0-3,.4-4.6c.8-1.5,1.5-2.7,2.7-3.4,1.1-.8,2.7-1.1,4.2-1.1s3.8.8,5.3,2.3c1.5,1.5,2.3,3.4,2.3,5.3h0Z" fill="#fff" stroke-width="0"/>
  <path d="M1559,1004.5c0,1.5-.4,3-1.1,4.2-.8,1.1-1.9,2.3-3.4,2.7-1.5.8-3,.8-4.6.4-1.5,0-2.7-1.1-3.8-1.9-1.1-1.1-1.9-2.3-1.9-3.8s0-3,.4-4.6c.8-1.5,1.5-2.7,2.7-3.4,1.1-.8,2.7-1.1,4.2-1.1s3.8.8,5.3,2.3c1.5,1.5,2.3,3.4,2.3,5.3h0Z" fill="#fff" stroke-width="0"/>
  <path d="M1584.1,1004.5c0,1.5-.4,3-1.1,4.2-.8,1.1-1.9,2.3-3.4,2.7-1.5.8-3,.8-4.6.4-1.5,0-2.7-1.1-3.8-1.9-1.1-1.1-1.9-2.3-1.9-3.8s0-3,.4-4.6c.8-1.5,1.5-2.7,2.7-3.4,1.1-.8,2.7-1.1,4.2-1.1s3.8.8,5.3,2.3c1.5,1.5,2.3,3.4,2.3,5.3h0Z" fill="#fff" stroke-width="0"/>
  <path d="M1458.6,951.2h-4.2v60.9h4.2v-60.9Z" fill="#506690" stroke-width="0"/>
  <path d="M1595.9,826.9h-392.5v90.5h392.5v-90.5h0Z" fill="#3b3f5c" stroke-width="0"/>
  <path d="M1443.4,842.1h-223.6v7.6h223.6v-7.6Z" fill="#1b2e4b" stroke-width="0"/>
  <path d="M1443.4,855.4h-223.6v7.6h223.6v-7.6Z" fill="#1b2e4b" stroke-width="0"/>
  <path d="M1443.4,868.3h-223.6v7.6h223.6v-7.6Z" fill="#1b2e4b" stroke-width="0"/>
  <path d="M1443.4,881.6h-223.6v7.6h223.6v-7.6Z" fill="#1b2e4b" stroke-width="0"/>
  <path d="M1443.4,894.9h-223.6v7.6h223.6v-7.6Z" fill="#1b2e4b" stroke-width="0"/>
  <path d="M1484.1,849.7c0,1.5-.4,3-1.1,4.2-.8,1.1-1.9,2.3-3.4,2.7-1.5.8-3,.8-4.6.4-1.5,0-2.7-1.1-3.8-1.9-1.1-.8-1.9-2.3-1.9-3.8s0-3,.4-4.6c.8-1.5,1.5-2.7,2.7-3.4,1.1-.8,2.7-1.1,4.2-1.1s3.8.8,5.3,2.3c1.5,1.5,2.3,3.4,2.3,5.3h0Z" fill="#fff" stroke-width="0"/>
  <path d="M1509.2,849.7c0,1.5-.4,3-1.1,4.2-.8,1.1-1.9,2.3-3.4,2.7-1.5.8-3,.8-4.6.4-1.5,0-2.7-1.1-3.8-1.9-1.1-1.1-1.9-2.3-1.9-3.8s0-3,.4-4.6c.8-1.5,1.5-2.7,2.7-3.4,1.1-.8,2.7-1.1,4.2-1.1s3.8.8,5.3,2.3c1.5,1.5,2.3,3.4,2.3,5.3h0Z" fill="#fff" stroke-width="0"/>
  <path d="M1533.9,849.7c0,1.5-.4,3-1.1,4.2-.8,1.1-1.9,2.3-3.4,2.7-1.5.8-3,.8-4.6.4-1.5,0-2.7-1.1-3.8-1.9-1.1-1.1-1.9-2.3-1.9-3.8s0-3,.4-4.6c.8-1.5,1.5-2.7,2.7-3.4,1.1-.8,2.7-1.1,4.2-1.1s3.8.8,5.3,2.3c1.5,1.5,2.3,3.4,2.3,5.3h0Z" fill="#fff" stroke-width="0"/>
  <path d="M1559,849.7c0,1.5-.4,3-1.1,4.2-.8,1.1-1.9,2.3-3.4,2.7-1.5.8-3,.8-4.6.4-1.5,0-2.7-1.1-3.8-1.9-1.1-.8-1.9-2.3-1.9-3.8s0-3,.4-4.6c.8-1.5,1.5-2.7,2.7-3.4,1.1-.8,2.7-1.1,4.2-1.1s3.8.8,5.3,2.3c1.5,1.5,2.3,3.4,2.3,5.3h0Z" fill="#fff" stroke-width="0"/>
  <path d="M1584.1,849.7c0,1.5-.4,3-1.1,4.2-.8,1.1-1.9,2.3-3.4,2.7-1.5.8-3,.8-4.6.4-1.5,0-2.7-1.1-3.8-1.9-1.1-1.1-1.9-2.3-1.9-3.8s0-3,.4-4.6c.8-1.5,1.5-2.7,2.7-3.4,1.1-.8,2.7-1.1,4.2-1.1s3.8.8,5.3,2.3c1.5,1.5,2.3,3.4,2.3,5.3h0Z" fill="#fff" stroke-width="0"/>
  <path d="M1484.1,872.5c0,1.5-.4,3-1.1,4.2-.8,1.1-1.9,2.3-3.4,2.7-1.5.8-3,.8-4.6.4-1.5,0-2.7-1.1-3.8-1.9-1.1-1.1-1.9-2.3-1.9-3.8s0-3,.4-4.6c.8-1.5,1.5-2.7,2.7-3.4,1.1-.8,2.7-1.1,4.2-1.1s3.8.8,5.3,2.3c1.5,1.5,2.3,3.4,2.3,5.3h0Z" fill="#fff" stroke-width="0"/>
  <path d="M1509.2,872.5c0,1.5-.4,3-1.1,4.2-.8,1.1-1.9,2.3-3.4,2.7-1.5.8-3,.8-4.6.4-1.5,0-2.7-1.1-3.8-1.9-1.1-1.1-1.9-2.3-1.9-3.8s0-3,.4-4.6c.8-1.5,1.5-2.7,2.7-3.4,1.1-.8,2.7-1.1,4.2-1.1s3.8.8,5.3,2.3c1.5,1.5,2.3,3.4,2.3,5.3h0Z" fill="#fff" stroke-width="0"/>
  <path d="M1533.9,872.5c0,1.5-.4,3-1.1,4.2-.8,1.1-1.9,2.3-3.4,2.7-1.5.8-3,.8-4.6.4-1.5,0-2.7-1.1-3.8-1.9-1.1-1.1-1.9-2.3-1.9-3.8s0-3,.4-4.6c.8-1.5,1.5-2.7,2.7-3.4,1.1-.8,2.7-1.1,4.2-1.1s3.8.8,5.3,2.3c1.5,1.5,2.3,3.4,2.3,5.3h0Z" fill="#fff" stroke-width="0"/>
  <path d="M1559,872.5c0,1.5-.4,3-1.1,4.2-.8,1.1-1.9,2.3-3.4,2.7-1.5.8-3,.8-4.6.4-1.5,0-2.7-1.1-3.8-1.9-1.1-1.1-1.9-2.3-1.9-3.8s0-3,.4-4.6c.8-1.5,1.5-2.7,2.7-3.4,1.1-.8,2.7-1.1,4.2-1.1s3.8.8,5.3,2.3c1.5,1.5,2.3,3.4,2.3,5.3h0Z" fill="#fff" stroke-width="0"/>
  <path d="M1584.1,872.5c0,1.5-.4,3-1.1,4.2-.8,1.1-1.9,2.3-3.4,2.7-1.5.8-3,.8-4.6.4-1.5,0-2.7-1.1-3.8-1.9-1.1-1.1-1.9-2.3-1.9-3.8s0-3,.4-4.6c.8-1.5,1.5-2.7,2.7-3.4,1.1-.8,2.7-1.1,4.2-1.1s3.8.8,5.3,2.3c1.5,1.5,2.3,3.4,2.3,5.3h0Z" fill="#fff" stroke-width="0"/>
  <path d="M1484.1,894.9c0,1.5-.4,3-1.1,4.2-.8,1.1-1.9,2.3-3.4,2.7-1.5.8-3,.8-4.6.4-1.5,0-2.7-1.1-3.8-1.9-1.1-1.1-1.9-2.3-1.9-3.8s0-3,.4-4.6c.8-1.5,1.5-2.7,2.7-3.4,1.1-.8,2.7-1.1,4.2-1.1s3.8.8,5.3,2.3c1.5,1.5,2.3,3.4,2.3,5.3h0Z" fill="#fff" stroke-width="0"/>
  <path d="M1509.2,894.9c0,1.5-.4,3-1.1,4.2-.8,1.1-1.9,2.3-3.4,2.7-1.5.8-3,.8-4.6.4-1.5,0-2.7-1.1-3.8-1.9-1.1-1.1-1.9-2.3-1.9-3.8s0-3,.4-4.6c.8-1.5,1.5-2.7,2.7-3.4,1.1-.8,2.7-1.1,4.2-1.1s3.8.8,5.3,2.3,2.3,3.4,2.3,5.3h0Z" fill="#fff" stroke-width="0"/>
  <path d="M1533.9,894.9c0,1.5-.4,3-1.1,4.2-.8,1.1-1.9,2.3-3.4,2.7-1.5.8-3,.8-4.6.4-1.5,0-2.7-1.1-3.8-1.9-1.1-1.1-1.9-2.3-1.9-3.8s0-3,.4-4.6c.8-1.5,1.5-2.7,2.7-3.4,1.1-.8,2.7-1.1,4.2-1.1s3.8.8,5.3,2.3c1.5,1.5,2.3,3.4,2.3,5.3h0Z" fill="#fff" stroke-width="0"/>
  <path d="M1559,894.9c0,1.5-.4,3-1.1,4.2-.8,1.1-1.9,2.3-3.4,2.7-1.5.8-3,.8-4.6.4-1.5,0-2.7-1.1-3.8-1.9-1.1-1.1-1.9-2.3-1.9-3.8s0-3,.4-4.6c.8-1.5,1.5-2.7,2.7-3.4,1.1-.8,2.7-1.1,4.2-1.1s3.8.8,5.3,2.3c1.5,1.5,2.3,3.4,2.3,5.3h0Z" fill="#fff" stroke-width="0"/>
  <path d="M1584.1,894.9c0,1.5-.4,3-1.1,4.2-.8,1.1-1.9,2.3-3.4,2.7-1.5.8-3,.8-4.6.4-1.5,0-2.7-1.1-3.8-1.9-1.1-1.1-1.9-2.3-1.9-3.8s0-3,.4-4.6c.8-1.5,1.5-2.7,2.7-3.4,1.1-.8,2.7-1.1,4.2-1.1s3.8.8,5.3,2.3c1.5,1.5,2.3,3.4,2.3,5.3h0Z" fill="#fff" stroke-width="0"/>
  <path d="M1458.6,842.1h-4.2v60.9h4.2v-60.9Z" fill="#506690" stroke-width="0"/>
  <path d="M1595.9,717.7h-392.5v90.5h392.5v-90.5h0Z" fill="#3b3f5c" stroke-width="0"/>
  <path d="M1443.4,732.5h-223.6v7.6h223.6v-7.6Z" fill="#1b2e4b" stroke-width="0"/>
  <path d="M1443.4,745.8h-223.6v7.6h223.6v-7.6Z" fill="#1b2e4b" stroke-width="0"/>
  <path d="M1443.4,759.2h-223.6v7.6h223.6v-7.6Z" fill="#1b2e4b" stroke-width="0"/>
  <path d="M1443.4,772.5h-223.6v7.6h223.6v-7.6Z" fill="#1b2e4b" stroke-width="0"/>
  <path d="M1443.4,785.8h-223.6v7.6h223.6v-7.6Z" fill="#1b2e4b" stroke-width="0"/>
  <path d="M1484.1,740.1c0,1.5-.4,3-1.1,4.2-.8,1.1-1.9,2.3-3.4,2.7-1.5.8-3,.8-4.6.4-1.5,0-2.7-1.1-3.8-1.9-1.1-.8-1.9-2.3-1.9-3.8s0-3,.4-4.6c.8-1.5,1.5-2.7,2.7-3.4,1.1-.8,2.7-1.1,4.2-1.1s3.8.8,5.3,2.3c1.5,1.5,2.3,3.4,2.3,5.3h0Z" fill="#fff" stroke-width="0"/>
  <path d="M1509.2,740.1c0,1.5-.4,3-1.1,4.2-.8,1.1-1.9,2.3-3.4,2.7-1.5.8-3,.8-4.6.4-1.5,0-2.7-1.1-3.8-1.9-1.1-1.1-1.9-2.3-1.9-3.8s0-3,.4-4.6c.8-1.5,1.5-2.7,2.7-3.4,1.1-.8,2.7-1.1,4.2-1.1s3.8.8,5.3,2.3c1.5,1.5,2.3,3.4,2.3,5.3h0Z" fill="#fff" stroke-width="0"/>
  <path d="M1533.9,740.1c0,1.5-.4,3-1.1,4.2-.8,1.1-1.9,2.3-3.4,2.7-1.5.8-3,.8-4.6.4-1.5,0-2.7-1.1-3.8-1.9-1.1-1.1-1.9-2.3-1.9-3.8s0-3,.4-4.6c.8-1.5,1.5-2.7,2.7-3.4,1.1-.8,2.7-1.1,4.2-1.1s3.8.8,5.3,2.3c1.5,1.5,2.3,3.4,2.3,5.3h0Z" fill="#fff" stroke-width="0"/>
  <path d="M1559,740.1c0,1.5-.4,3-1.1,4.2-.8,1.1-1.9,2.3-3.4,2.7-1.5.8-3,.8-4.6.4-1.5,0-2.7-1.1-3.8-1.9-1.1-.8-1.9-2.3-1.9-3.8s0-3,.4-4.6c.8-1.5,1.5-2.7,2.7-3.4,1.1-.8,2.7-1.1,4.2-1.1s3.8.8,5.3,2.3c1.5,1.5,2.3,3.4,2.3,5.3h0Z" fill="#fff" stroke-width="0"/>
  <path d="M1584.1,740.1c0,1.5-.4,3-1.1,4.2-.8,1.1-1.9,2.3-3.4,2.7-1.5.8-3,.8-4.6.4-1.5,0-2.7-1.1-3.8-1.9-1.1-1.1-1.9-2.3-1.9-3.8s0-3,.4-4.6c.8-1.5,1.5-2.7,2.7-3.4,1.1-.8,2.7-1.1,4.2-1.1s3.8.8,5.3,2.3c1.5,1.5,2.3,3.4,2.3,5.3h0Z" fill="#fff" stroke-width="0"/>
  <path d="M1476.5,770.6c4.2,0,7.6-3.4,7.6-7.6s-3.4-7.6-7.6-7.6-7.6,3.4-7.6,7.6,3.4,7.6,7.6,7.6Z" fill="#fff" stroke-width="0"/>
  <path d="M1509.2,763c0,1.5-.4,3-1.1,4.2-.8,1.1-1.9,2.3-3.4,2.7-1.5.8-3,.8-4.6.4-1.5,0-2.7-1.1-3.8-1.9-1.1-1.1-1.9-2.3-1.9-3.8s0-3,.4-4.6c.8-1.5,1.5-2.7,2.7-3.4,1.1-.8,2.7-1.1,4.2-1.1s3.8.8,5.3,2.3c1.5,1.5,2.3,3.4,2.3,5.3h0Z" fill="#fff" stroke-width="0"/>
  <path d="M1526.3,770.6c4.2,0,7.6-3.4,7.6-7.6s-3.4-7.6-7.6-7.6-7.6,3.4-7.6,7.6,3.4,7.6,7.6,7.6Z" fill="#fff" stroke-width="0"/>
  <path d="M1559,763c0,1.5-.4,3-1.1,4.2-.8,1.1-1.9,2.3-3.4,2.7-1.5.8-3,.8-4.6.4-1.5,0-2.7-1.1-3.8-1.9-1.1-.8-1.9-2.3-1.9-3.8s0-3,.4-4.6c.8-1.5,1.5-2.7,2.7-3.4,1.1-.8,2.7-1.1,4.2-1.1s3.8.8,5.3,2.3c1.5,1.5,2.3,3.4,2.3,5.3h0Z" fill="#fff" stroke-width="0"/>
  <path d="M1584.1,763c0,1.5-.4,3-1.1,4.2-.8,1.1-1.9,2.3-3.4,2.7-1.5.8-3,.8-4.6.4-1.5,0-2.7-1.1-3.8-1.9-1.1-1.1-1.9-2.3-1.9-3.8s0-3,.4-4.6c.8-1.5,1.5-2.7,2.7-3.4,1.1-.8,2.7-1.1,4.2-1.1s3.8.8,5.3,2.3c1.5,1.5,2.3,3.4,2.3,5.3h0Z" fill="#fff" stroke-width="0"/>
  <path d="M1484.1,785.8c0,1.5-.4,3-1.1,4.2-.8,1.1-1.9,2.3-3.4,2.7-1.5.8-3,.8-4.6.4-1.5,0-2.7-1.1-3.8-1.9-1.1-1.1-1.9-2.3-1.9-3.8s0-3,.4-4.6c.8-1.5,1.5-2.7,2.7-3.4,1.1-.8,2.7-1.1,4.2-1.1s3.8.8,5.3,2.3c1.5,1.5,2.3,3.4,2.3,5.3h0Z" fill="#fff" stroke-width="0"/>
  <path d="M1509.2,785.8c0,1.5-.4,3-1.1,4.2-.8,1.1-1.9,2.3-3.4,2.7-1.5.8-3,.8-4.6.4-1.5,0-2.7-1.1-3.8-1.9-1.1-1.1-1.9-2.3-1.9-3.8s0-3,.4-4.6c.8-1.5,1.5-2.7,2.7-3.4,1.1-.8,2.7-1.1,4.2-1.1s3.8.8,5.3,2.3c1.5,1.5,2.3,3.4,2.3,5.3h0Z" fill="#fff" stroke-width="0"/>
  <path d="M1533.9,785.8c0,1.5-.4,3-1.1,4.2-.8,1.1-1.9,2.3-3.4,2.7-1.5.8-3,.8-4.6.4-1.5,0-2.7-1.1-3.8-1.9-1.1-1.1-1.9-2.3-1.9-3.8s0-3,.4-4.6c.8-1.5,1.5-2.7,2.7-3.4,1.1-.8,2.7-1.1,4.2-1.1s3.8.8,5.3,2.3c1.5,1.5,2.3,3.4,2.3,5.3h0Z" fill="#fff" stroke-width="0"/>
  <path d="M1559,785.8c0,1.5-.4,3-1.1,4.2-.8,1.1-1.9,2.3-3.4,2.7-1.5.8-3,.8-4.6.4-1.5,0-2.7-1.1-3.8-1.9-1.1-1.1-1.9-2.3-1.9-3.8s0-3,.4-4.6c.8-1.5,1.5-2.7,2.7-3.4,1.1-.8,2.7-1.1,4.2-1.1s3.8.8,5.3,2.3c1.5,1.5,2.3,3.4,2.3,5.3h0Z" fill="#fff" stroke-width="0"/>
  <path d="M1584.1,785.8c0,1.5-.4,3-1.1,4.2-.8,1.1-1.9,2.3-3.4,2.7-1.5.8-3,.8-4.6.4-1.5,0-2.7-1.1-3.8-1.9-1.1-1.1-1.9-2.3-1.9-3.8s0-3,.4-4.6c.8-1.5,1.5-2.7,2.7-3.4,1.1-.8,2.7-1.1,4.2-1.1s3.8.8,5.3,2.3c1.5,1.5,2.3,3.4,2.3,5.3h0Z" fill="#fff" stroke-width="0"/>
  <path d="M1458.6,732.5h-4.2v60.9h4.2v-60.9Z" fill="#506690" stroke-width="0"/>
  <path d="M1531.6,642.4h-517.3v28.9h517.3v-28.9Z" fill="#3b3f5c" stroke-width="0"/>
  <path d="M1019.3,1460.9h-57.8v57.8h57.8v-57.8Z" fill="#506690" stroke-width="0"/>
  <path d="M171.2,1345.3h-101.2v101.2h101.2v-101.2Z" fill="#3b3f5c" stroke-width="0"/>
  <path d="M120.6,1429.7c18.6,0,33.9-15.2,33.9-33.9s-15.2-33.9-33.9-33.9-33.9,15.2-33.9,33.9,15.2,33.9,33.9,33.9Z" fill="#1b2e4b" stroke-width="0"/>
  <path d="M114.5,1382.2h-7.6v27.8h7.6v-27.8Z" fill="#506690" stroke-width="0"/>
  <path d="M135.8,1382.2h-7.6v27.8h7.6v-27.8Z" fill="#506690" stroke-width="0"/>
  <path d="M44.9,1603.5l202.7-.8h202.7l405.4-1.1,405.4.8h202.7l202.7,1.1-202.7.8h-202.7l-405.4.8-405.4-.8h-202.7l-202.7-1.1v.4Z" fill="#506690" stroke-width="0"/>
  <path d="M392.1,1508c3.8,8-10.6,65.8-15.2,77.6-4.6,11.8-20.5,78-28.1,81-7.6,3-45.3,1.9-50.6,0-5.3-1.9,0-13.3,6.1-17.5,6.1-3.8,13.3-9.9,13.3-9.9,0,0-11-102.3-8.7-113.7,1.9-11.4,73.8-39.2,83.7-17.5h-.4Z" fill="#4361ee" stroke-width="0"/>
  <path d="M392.1,1508c3.8,8-10.6,65.8-15.2,77.6-4.6,11.8-20.5,78-28.1,81-7.6,3-45.3,1.9-50.6,0-5.3-1.9,0-13.3,6.1-17.5,6.1-3.8,13.3-9.9,13.3-9.9,0,0-11-102.3-8.7-113.7,1.9-11.4,73.8-39.2,83.7-17.5h-.4Z" fill="#000" isolation="isolate" opacity=".1" stroke-width="0"/>
  <path d="M313.4,1662.5c.4-1.9,1.1-3.8,2.7-5.7,1.1-1.5,2.7-3,4.2-4.2,1.5-1.1,3.4-2.3,5.3-2.7h0c-.8.8-1.5,1.1-1.9,1.9-.8.8-1.5,1.5-1.9,1.9-1.1,1.5-2.3,2.7-3,4.6-.8,1.5-1.9,3-2.7,4.9-.8,1.5-1.1,3.4-1.9,5.3h0v-6.1h-.8Z" fill="#000" isolation="isolate" opacity=".1" stroke-width="0"/>
  <path d="M302.4,1656.4c1.9-3.4,5.3-6.5,9.1-8,0,0,.4,0,0,.4-3,2.3-5.3,4.9-7.2,8.4-1.1,1.5-1.5,3.4-1.9,5.3,0,1.9,0,3.8.4,5.7h0c-1.1-1.5-1.9-3.8-1.9-5.7s.4-4.2,1.5-5.7v-.4Z" fill="#000" isolation="isolate" opacity=".1" stroke-width="0"/>
  <path d="M311.5,1582.2l51.7,49.1c5.7-18.6,11-39.2,13.3-45.3,4.6-11.8,19-69.6,15.2-77.6-9.9-21.7-81.8,6.1-83.7,17.5-.8,5.3,1.1,30.8,3.4,56.3Z" fill="#000" isolation="isolate" opacity=".1" stroke-width="0"/>
  <path d="M587.2,1565.9c2.3,1.9,22.4-17.1,25.5-26.2,3-9.1-9.9-34.6-7.6-38.8,2.3-4.2,13.3-7.6,19.4-1.1,5.7,6.8,20.5,43,17.5,58.6-3,15.6-34.2,50.2-37.7,50.2s-17.1-43-17.1-43v.4Z" fill="#4361ee" stroke-width="0"/>
  <path d="M587.2,1565.9s13.7,42.6,17.1,42.6,19.8-18.6,30.4-34.6l-28.5-24c-7.2,8.4-17.1,17.1-18.6,15.6l-.4.4Z" fill="#000" isolation="isolate" opacity=".1" stroke-width="0"/>
  <path d="M472.4,1390.1h-168.9s-12.6,111.1-11,125.9c1.5,14.8,75.7,123.6,98.5,137.7,23.2,14.1,155.2,14.8,187.5,7.6,25.1-5.7,46-37.7,35.4-86.7-4.6-21.7-63.1-72.6-71.5-82.5-8-9.9-70-102.3-70-102.3v.4Z" fill="#c7c7c7" stroke-width="0"/>
  <path d="M292.1,1516c1.5,14.8,75.7,123.6,98.5,137.7,22.8,14.1,155.2,14.8,187.5,7.6,25.1-5.7,46-37.7,35.4-86.7-4.6-21.3-63.1-72.6-71.5-82.5-4.9-6.1-30-43-49.1-70.7-11.8-17.5-21.3-31.6-21.3-31.6h-168.9s-3,27.8-6.1,57.4c-3,29.7-5.7,61.2-4.9,68.5l.4.4Z" fill="#4361ee" stroke-width="0"/>
  <path d="M297.4,1447.6c90.9,28.1,171.5-11.8,196.3-26.2-11.8-17.5-21.3-31.6-21.3-31.6h-168.9s-3,27.8-6.1,57.4v.4Z" fill="#000" isolation="isolate" opacity=".1" stroke-width="0"/>
  <path d="M581.5,1569.3s-46.4-29.3-79.1-24c-32.7,5.3-44.1,72.3-28.5,109.9,0,0-29.7,8.7-29.7,23.2s17.1,10.6,41.5,10.3c24.3-.4,73.4-1.1,74.2-7.2,0-4.9-.8-10.3-3-14.8,0,0,44.1-4.9,52.5-34.2,8.7-29.3-20.5-58.2-27.8-63.1h0Z" fill="#4361ee" stroke-width="0"/>
  <path d="M518,1658.7c12.6,4.9,25.9,8,39.2,8.7v.4c-13.7,1.5-27.4-1.9-39.2-8.7,0,0,0-.4,0,0v-.4Z" fill="#000" isolation="isolate" opacity=".1" stroke-width="0"/>
  <path d="M463.3,1689.1c1.5-5.3,5.3-10.3,10.3-12.9,2.7-1.9,5.7-3.4,8.7-4.2,3.4-1.1,7.2-1.9,10.6-3,0,0,.4,0,0,.4-3,1.1-6.1,2.3-8.7,4.2-2.7,1.5-5.7,3-8.4,4.9-4.6,3-8.4,6.8-11.4,11.4,0,.4-1.1,0-.8-.4l-.4-.4Z" fill="#000" isolation="isolate" opacity=".1" stroke-width="0"/>
  <path d="M469.3,1665.9h0c-9.1,3.8-16.4,11-20.2,19.8,0,.4-.8.4-.8,0,.8-5.3,3-9.9,6.8-13.7,3.8-3.8,8.7-6.1,13.7-6.5l.4.4Z" fill="#000" isolation="isolate" opacity=".1" stroke-width="0"/>
  <path d="M454.9,1664h0c5.7-3.4,11.8-6.1,18.3-8.4.8,1.5,1.5,2.7,2.3,3.8,0,0,.8,0,.4,0-5.7-11.8-8.4-24.7-8-37.7,0-6.8.4-13.7,1.1-20.5,1.5-11.8,5.3-23.6,11-34.2,3-6.8,8-12.6,14.5-16.4,6.8-3.4,14.1-4.6,21.3-3.8,7.6.4,15.2,1.9,22.4,4.2,7.2,1.9,14.8,4.6,21.7,7.6-13.7-7.6-28.5-12.6-44.1-14.8-8-1.1-16.4,0-23.6,3.8-6.8,4.2-12.2,10.3-16,17.5-7.2,14.1-11,29.3-11.8,45.3v12.6c0,11.4,2.7,22.4,8,32.3-6.8,1.1-13.3,4.2-18.3,8.7h.8Z" fill="#000" isolation="isolate" opacity=".1" stroke-width="0"/>
  <path d="M446.5,1522.5c3.8,8-10.6,65.8-15.2,77.6-4.6,11.8-20.5,78-28.1,81-7.6,3-45.3,1.9-50.6,0-5.3-1.9,0-13.3,6.1-17.1,6.1-3.8,13.3-9.9,13.3-9.9,0,0-11-102.3-8.7-113.7,1.9-11.4,73.8-39.2,83.7-17.5l-.4-.4Z" fill="#4361ee" stroke-width="0"/>
  <path d="M421.4,1632c3.4-10.3,8-20.5,11.4-30.8,0-.4.8,0,.8,0-2.7,8.4-4.6,17.1-7.2,25.5,0-.4.8-1.1,1.1-1.9,2.7-3,4.6-6.8,6.1-10.6h0c-.4,1.9-1.1,3.4-2.3,4.9-1.1,1.9-1.9,3.8-3,5.7-1.1,1.9-2.7,4.9-4.2,7.2h0c-3,11-7.2,21.3-11.4,31.6h0c2.7-10.6,5.7-21.3,9.1-31.6h-.4Z" fill="#000" isolation="isolate" opacity=".1" stroke-width="0"/>
  <path d="M361.7,1556.4h.4c1.1,7.6,1.5,15.6,2.3,23.2.8,7.6,1.9,16,2.7,24.3,1.9,16,4.6,31.9,5.7,48.3,0,.8-1.1.8-1.5,0-3.8-15.6-6.5-31.2-8-47.2-.8-8-1.1-16-1.5-23.6-.8-8.4-.8-16.7,0-25.1Z" fill="#000" isolation="isolate" opacity=".1" stroke-width="0"/>
  <path d="M366.3,1675.8c.4-1.9,1.1-3.8,2.3-5.7,1.1-1.5,2.7-3,4.2-4.2,1.5-1.1,3.4-2.3,5.3-2.7h0c-.8.8-1.5,1.1-1.9,1.9l-1.9,1.9c-1.1,1.5-2.3,2.7-3,4.6-.8,1.5-1.9,3-2.7,4.9-.8,1.5-1.1,3.4-1.9,5.3h0c-.4-1.9,0-4.2,0-6.1h-.4Z" fill="#000" isolation="isolate" opacity=".1" stroke-width="0"/>
  <path d="M355.2,1669.7c2.3-3.8,5.3-6.5,9.1-8,0,0,.4,0,0,0-3,2.3-5.3,4.9-7.2,8.4-1.1,1.5-1.5,3.4-1.9,5.3,0,1.9,0,3.8.4,5.7h0c-1.1-1.5-1.9-3.8-1.9-5.7s0-4.2,1.5-5.7Z" fill="#000" isolation="isolate" opacity=".1" stroke-width="0"/>
  <path d="M368.2,1235.3c1.9-6.8-14.8-30.4-21.3-38-6.5-8-41.5-19.8-52.5-13.7-4.6,2.3-12.6,19.4-23.6,33.9-17.1,22.4-36.9,46.4-29.7,52.5,17.5,15.6,57.4-9.1,70.4-17.1s24.7-18.3,28.1-17.9c4.2.4,12.9,7.2,16.4,7.6,2.7,0,4.9-.4,7.2-1.5,2.3-1.1,3.8-3,4.9-5.3v-.4Z" fill="#4361ee" stroke-width="0"/>
  <path d="M368.2,1235.3c1.9-6.8-14.8-30.4-21.3-38-6.5-8-41.5-19.8-52.5-13.7-4.6,2.3-12.6,19.4-23.6,33.9-17.1,22.4-36.9,46.4-29.7,52.5,17.5,15.6,57.4-9.1,70.4-17.1s24.7-18.3,28.1-17.9c4.2.4,12.9,7.2,16.4,7.6,2.7,0,4.9-.4,7.2-1.5,2.3-1.1,3.8-3,4.9-5.3v-.4Z" fill="#000" isolation="isolate" opacity=".1" stroke-width="0"/>
  <path d="M448.8,1211.8c40.7,24.3,59,89.4,60.1,99.6.8,8.4,20.5,38.4,16.7,70.7-2.3,20.5-39.6,48.3-69.6,47.9-5.7,0-52.9,17.1-92.4,14.5-39.9-2.7-70-31.2-71.1-33.5-1.1-2.3-33.9-7.2-35.8-40.3-3-53.2,51-143.8,66.6-155.9,25.9-20.5,97.7-19.4,125.5-3h0Z" fill="#4361ee" stroke-width="0"/>
  <path d="M429.4,1239.9c-.8-7.2,20.5-28.9,28.5-36.1,8-7.2,46-13.7,56.7-5.7,4.2,3.4,9.9,22.1,18.6,38.8,13.7,26.2,30.4,54,22.1,59.7-20.9,13.3-58.2-18.6-70.4-29.7-12.2-10.6-22.8-22.8-26.2-23.2-4.6,0-14.5,5.3-18.3,4.9-2.7,0-4.9-1.1-7.2-3-1.9-1.5-3.4-3.8-4.2-6.5l.4.8Z" fill="#4361ee" stroke-width="0"/>
  <path d="M429.4,1239.9c-.8-7.2,20.5-28.9,28.5-36.1,8-7.2,46-13.7,56.7-5.7,4.2,3.4,9.9,22.1,18.6,38.8,13.7,26.2,30.4,54,22.1,59.7-20.9,13.3-58.2-18.6-70.4-29.7-12.2-10.6-22.8-22.8-26.2-23.2-4.6,0-14.5,5.3-18.3,4.9-2.7,0-4.9-1.1-7.2-3-1.9-1.5-3.4-3.8-4.2-6.5l.4.8Z" fill="#000" isolation="isolate" opacity=".1" stroke-width="0"/>
  <path d="M354.9,1330.8c25.1,0,36.5,27,39.6,33.9,3,6.8,18.6,22.8,19,39.6.4,16.7-31.2,35.4-64.7,29.7-33.5-5.7-51-24.7-50.6-41.5,0-13.7,12.9-25.5,14.5-28.9,1.5-3.4,19.8-32.7,42.6-32.3l-.4-.4Z" fill="#000" isolation="isolate" opacity=".1" stroke-width="0"/>
  <path d="M416.5,1378c3.4,3.8,6.1,8,8.4,12.6,2.3,4.6,3.8,9.5,4.9,14.5,1.1,5.3.4,10.6-1.5,15.6-1.1,2.3-2.7,4.6-4.9,6.1-1.9,1.5-4.2,2.7-6.8,3.4,4.2-2.7,7.2-6.5,9.1-11,1.5-4.6,1.5-9.1.8-13.7-.8-4.9-2.3-9.5-3.8-14.1-1.9-4.6-3.8-9.1-5.7-13.7l-.4.4Z" fill="#000" isolation="isolate" opacity=".1" stroke-width="0"/>
  <path d="M301.6,1368.1c-2.3,2.7-4.2,5.3-6.1,8-1.9,2.7-3.4,5.3-4.9,8.4-1.1,2.7-1.9,5.7-2.3,9.1,0,3.4.8,6.5,1.9,9.5-2.7-2.7-4.2-5.7-4.6-9.5,0-3.8,0-7.2,1.9-10.6,3-6.5,8-11.4,14.5-14.8h-.4Z" fill="#000" isolation="isolate" opacity=".1" stroke-width="0"/>
  <path d="M692.6,1726.4c-41.1,0-86.3-.8-131.6-1.5-23.6-.4-41.8-.8-53.6-.8-59,0-76.1-76.1-92.4-149.5-2.3-10.3-4.6-20.5-6.8-30.4-4.6-19.8-8.4-39.6-12.2-58.6-11.4-59.3-21.7-110.7-47.9-113.3-34.6-3.8-65.4,47.9-76.4,128.6l-7.6-1.1c11.8-85.2,46-139.6,84.8-135,31.6,3.4,42.2,57.1,54.4,119.4,3.8,19,7.6,38.8,12.2,58.2,2.3,10.3,4.6,20.5,6.8,30.8,16.4,73.8,31.9,143.4,85.2,143.4s30,0,53.6.8c51.3,1.1,121.7,2.3,181.4,1.1,96.6-1.9,108-9.5,109.2-11.8,0-16-101.9-35-140.3-41.8-38.4-7.2-40.3-7.6-39.9-12.2.4-4.6,5.3-4.2,12.2-4.2h159.4c49.8,0,66.2-71.9,75.7-114.9,1.5-9.1,4.2-18.3,7.2-27,11-23.2,39.6-19.8,40.7-19.8l-1.1,7.6c-1.1,0-24-2.7-32.7,15.6-3,8.4-5.3,16.7-6.8,25.5-10.3,45.3-27,120.9-83.3,120.9h-138.4l8,1.5c92.8,17.5,146.8,31.2,146.8,49.8s0,1.9-.8,3c-.4.8-1.1,1.9-1.9,2.3-11.4,11-78.4,14.1-164.3,14.1l.8-.8Z" fill="#1b2e4b" stroke-width="0"/>
  <path d="M292.1,1495.1l-46.8-2.7-1.5,28.1,46.8,2.7,1.5-28.1Z" fill="#1b2e4b" stroke-width="0"/>
  <path d="M283.7,1485.6l-28.9-1.9v8.7c-.4,0,28.5,1.9,28.5,1.9v-8.7h.4Z" fill="#3b3f5c" stroke-width="0"/>
  <path d="M259,1521.4h-5.3l-1.1,20.9h5.3l1.1-20.9Z" fill="#4361ee" stroke-width="0"/>
  <path d="M280.3,1522.5h-5.3l-1.1,20.9h5.3l1.1-20.9Z" fill="#4361ee" stroke-width="0"/>
  <path d="M981.3,1466.2v46.8h20.5v-46.8h-20.5Z" fill="#1b2e4b" stroke-width="0"/>
  <path d="M964.9,1475v29.3h16.4v-29.3h-16.4Z" fill="#3b3f5c" stroke-width="0"/>
  <path d="M323.3,1371.5s9.9,11.4,13.7,9.1c3.8-2.3,13.3-25.1,13.3-25.1,0,0,2.3,28.9,9.9,29.7,7.2.8,20.2-10.6,20.2-10.6l-30-20.9-27,17.9Z" fill="#4361ee" stroke-width="0"/>
  <path d="M323.3,1371.5s9.9,11.4,13.7,9.1c3.8-2.3,13.3-25.1,13.3-25.1,0,0,2.3,28.9,9.9,29.7,7.2.8,20.2-10.6,20.2-10.6l-30-20.9-27,17.9Z" fill="#000" isolation="isolate" opacity=".1" stroke-width="0"/>
  <path d="M470.1,1335.8c3-9.1,3.8-19,3-28.5-.4-4.9-1.5-9.9-3.4-14.5-1.1-2.3-2.3-4.6-3.8-6.8-1.5-2.3-3-4.2-4.9-6.1s-1.9-1.9-3-2.3c-1.1-.8-2.3-1.5-3.4-1.9l-1.5-.8-1.9-.8c-1.1-.4-2.7-1.1-3.8-1.5-4.9-1.5-10.3-1.9-15.2-1.5-9.9.8-19,4.6-27,10.6,8.7-3.4,17.9-4.9,27-4.9s8.7.8,12.9,2.3c1.1,0,1.9.8,3,1.1l1.5.8,1.5.8c.8.4,1.9,1.1,2.7,1.5.8.8,1.5,1.1,2.3,1.9,3,3,5.7,6.5,7.2,10.3,1.9,4.2,3.4,8.4,4.2,12.6,1.9,9.1,3,18.6,3,27.8h-.4Z" fill="#000" isolation="isolate" opacity=".1" stroke-width="0"/>
  <path d="M284.9,1316.4c.4-8,1.5-15.6,3.8-23.2,1.9-7.2,5.7-13.3,11.4-18.3,1.5-1.1,3-1.9,4.6-2.7,1.5-.8,3-1.1,4.9-1.5,3.8-.4,7.2,0,11,0,8,1.5,15.6,3.4,23.2,6.1-3-2.7-6.5-4.9-10.3-6.8-1.9-.8-3.8-1.9-5.7-2.7-1.9-.8-3.8-1.5-6.1-1.9-4.2-1.1-8.7-1.9-12.9-1.5-2.3,0-4.6.8-6.8,1.5-2.3.8-4.2,1.9-6.1,3.4-3.4,2.7-6.5,6.1-8.7,10.3-1.9,3.8-3,8-3.8,12.2-1.5,8.4-.8,16.7,1.5,24.7v.4Z" fill="#000" isolation="isolate" opacity=".1" stroke-width="0"/>
  <path d="M408.5,1324c0-.4,1.1.4.8,1.1-.8,11.4,0,24.7,11.4,28.9v.8c-14.1-2.3-15.2-20.2-12.2-30.8Z" fill="#1b2e4b" stroke-width="0"/>
  <path d="M420.3,1312.2c20.2-.4,20.2,36.5,1.5,36.9s-18.3-36.5-1.5-36.9Z" fill="#1b2e4b" stroke-width="0"/>
  <path d="M329.8,1314.8c0-.4-1.1.4-1.1.8-.8,11.4-3.8,24.3-15.2,27v.8c14.1-.4,17.5-17.9,16.4-28.9v.4Z" fill="#1b2e4b" stroke-width="0"/>
  <path d="M319.9,1301.9c-20.2-3.4-25.1,33.5-6.5,36.5,18.6,3,23.6-33.9,6.5-36.5Z" fill="#1b2e4b" stroke-width="0"/>
  <path d="M349.5,1354.4c3.8,1.1,28.5-6.8,26.6-14.5-2.3-8.4-37.3-10.3-41.8-4.9-4.6,5.3,11.4,17.9,15.2,19v.4Z" fill="#1b2e4b" stroke-width="0"/>
  <path d="M380.7,1374.2c-4.2,3-8.4,5.7-12.6,8-2.3,1.1-4.6,1.9-6.8,1.9s-2.7-1.5-3.4-3.4c-1.5-3.8-2.7-8-3-12.2-.8-4.2-1.1-8.4-1.5-12.6l-1.1-11.4-3.4,11c-1.1,3.4-2.3,6.8-3.4,10.3-1.1,3.4-2.7,6.8-4.6,9.9-.4.8-.8,1.5-1.5,2.3-.4.8-1.1,1.5-1.9,1.9-.8,0-1.5.4-1.9,0-1.1,0-1.9-.8-2.7-1.1-3.4-2.3-6.5-4.9-9.1-8,1.9,3.8,4.6,6.8,7.6,9.5,1.1.8,2.3,1.5,3.4,1.9h2.3c.8,0,1.5,0,2.3-.8,1.1-.8,1.9-1.5,2.7-2.3.8-.8,1.1-1.5,1.9-2.7,2.3-3.4,3.8-6.8,5.3-10.3,1.5-3.4,2.7-6.8,3.8-10.6h-4.6c0,3.8.8,8.4,1.9,12.6.4,2.3,1.1,4.2,1.5,6.5.8,2.3,1.5,4.2,2.7,6.5.8,1.1,1.5,2.3,2.3,3,.8.8,1.1,1.1,1.9,1.5.4,0,1.1.4,1.5.4h1.5c3,0,5.7-1.1,8.4-3,4.2-2.7,8-6.1,11.4-9.5l-.8.8Z" fill="#1b2e4b" stroke-width="0"/>
  <path d="M189.8,1505.8c15.2-.8,30.4,0,45.3,3-15.2.8-30.4,0-45.3-3Z" fill="#506690" stroke-width="0"/>
  <path d="M299.3,1529.7c7.2,2.7,14.1,5.3,20.9,8.7,6.8,3.4,13.3,7.2,19.4,11.4-14.1-4.9-27.8-11.8-40.3-20.5h0v.4Z" fill="#506690" stroke-width="0"/>
  <path d="M213.8,1582.2c7.6-13.3,16.7-25.1,27-36.1-3.8,6.5-8,12.9-12.6,19-4.6,6.1-9.5,11.8-14.8,17.1h.4Z" fill="#506690" stroke-width="0"/>
  <path d="M171.2,1460.9c6.1,1.9,11.8,3.8,17.5,6.1,5.7,2.3,11.4,4.6,17.1,6.8,5.7,2.3,11.4,4.9,16.7,7.6,5.3,2.7,11,5.3,16.4,8.4-6.1-1.9-11.8-4.2-17.5-6.1-5.7-2.3-11.4-4.6-17.1-6.8-5.7-2.3-11.4-4.9-16.7-7.6-5.3-2.7-11-5.3-16.4-8.4Z" fill="#506690" stroke-width="0"/>
  <path d="M304.7,1494.4c5.3-2.7,10.6-4.9,16.4-6.5,5.7-1.9,11.4-3,17.1-3.8-10.6,5.3-22.1,8.7-33.9,10.3h.4Z" fill="#506690" stroke-width="0"/>
  <path d="M250.3,1475.3c-3-4.9-6.1-9.9-8.7-15.2-2.7-5.3-5.3-10.3-8-15.6s-4.9-10.3-7.6-15.6c-2.3-5.3-4.6-10.6-6.8-16,3,4.9,6.1,9.9,8.7,15.2,2.7,5.3,5.3,10.3,8,15.6,2.7,5.3,4.9,10.3,7.6,15.6,2.7,5.3,4.6,10.6,6.8,16Z" fill="#506690" stroke-width="0"/>
  <path d="M327.1,1595.5c-3.4-3.8-6.5-8-9.5-12.2-3-4.2-6.1-8.4-9.1-12.6-3-4.2-5.7-8.4-8.4-12.9s-5.3-8.7-8-13.3c3.4,3.8,6.5,8,9.5,12.2,3,4.2,6.1,8.4,9.1,12.6,3,4.2,5.7,8.4,8.4,12.9,2.7,4.2,5.3,8.7,8,13.3Z" fill="#506690" stroke-width="0"/>
  <path d="M1349.8,642.4h-314.5l-24.3-213.4h314.5l24.3,213.4Z" fill="#a6a6a6" stroke-width="0"/>
  <path d="M1332.7,627.9h-283.4l-20.9-184.8h283.4l20.9,184.8Z" fill="#888ea8" stroke-width="0"/>
  <path d="M1157.8,540.5l-4.6,5.3-44.5-38.4,4.6-5.3,44.5,38.4Z" fill="#4361ee" stroke-width="0"/>
  <path d="M1146.3,501.7l6.1,5.3-32.3,38.4-6.1-5.3,32.3-38.4Z" fill="#4361ee" stroke-width="0"/>
  <path d="M1253.2,540.5l-4.6,5.3-44.5-38.4,4.6-5.3,44.5,38.4Z" fill="#4361ee" stroke-width="0"/>
  <path d="M1241.8,501.7l6.1,5.3-32.3,38.4-6.1-5.3,32.3-38.4Z" fill="#4361ee" stroke-width="0"/>
  <path d="M1103,577.4l-1.1-7.6h172.7l1.1,7.6h-172.7Z" fill="#4361ee" stroke-width="0"/>
  <path d="M1442.2,627.9h-404.3v14.5h404.3v-14.5Z" fill="#a6a6a6" stroke-width="0"/>
  <path d="M1476.5,627.9h-350.7v14.5h350.7v-14.5Z" fill="#c7c7c7" stroke-width="0"/>
  <path d="M1312.9,451.8l-1.1-9.1h-283.4l1.1,9.1h283.4Z" fill="#506690" stroke-width="0"/>
  <path d="M1052.4,447.7c0,.8,0,1.1.8,1.5.4.4,1.1.8,1.5.8h.8s.4,0,.8-.4v-1.5c0-.8,0-1.1-.8-1.5-.4-.4-1.1-.8-1.5-.8h-.8s-.4,0-.8.4v1.5Z" fill="#c7c7c7" stroke-width="0"/>
  <path d="M1044,447.7c0,.8,0,1.1.8,1.5.4.4,1.1.8,1.5.8h.8s.4,0,.8-.4v-1.5c0-.8,0-1.1-.8-1.5-.4-.4-1.1-.8-1.5-.8h-.8s-.4,0-.8.4v1.5Z" fill="#888ea8" stroke-width="0"/>
  <path d="M1036,447.7c0,.8,0,1.1.8,1.5.4.4,1.1.8,1.5.8h.8s.4,0,.8-.4v-1.5c0-.8,0-1.1-.8-1.5-.4-.4-1.1-.8-1.5-.8h-.8s-.4,0-.8.4v1.5Z" fill="#4361ee" stroke-width="0"/>
  <g>
    <path d="M217.6,909h-62.8v-62.4H0v-70.7l140.3-180.7h77.6v193.2h44.9v58.2h-44.9v62.4h-.4ZM62.8,788.4h92v-118.3s-92,118.3-92,118.3Z" fill="#fff" stroke-width="0"/>
    <path d="M332.4,640.1c21.7-30,57.8-49.4,101.9-49.4s91.7,28.1,112.2,68.1c15.2,27,21.7,58.6,21.7,91.7,0,50.2-16.4,98.1-48.3,129.3-20.9,20.5-51.7,33.5-87.1,33.5-54.4,0-92.4-28.1-113-68.5-14.5-27.4-20.9-59-20.9-92.4s11.8-81.4,33.1-111.8h0l.4-.4ZM375,804c9.5,26.2,29.3,46.4,59,46.8,49.4,0,68.5-58.2,68.5-99.3s-5.3-44.9-15.6-65c-10.3-20.2-29.3-33.9-52.9-33.9s-35.8,9.5-46,22.8c-10.3,13.3-17.5,31.9-20.5,49.8-4.6,25.9-3,52.5,7.6,78.7Z" fill="#fff" stroke-width="0"/>
    <path d="M683.9,909v-236.2l-66.2,38-28.9-52.9,106.5-62.4h53.2v313.8h-64.7v-.4Z" fill="#fff" stroke-width="0"/>
  </g>
</svg>